<ttFont>
          <CharString index="0">
            18 22.6666564941 18.6666717529 31.0000152588 19.3333282471 39.3333282471 20 42 11.3333282471 33 2.66667175293 24 rrcurveto
            -105 hlineto
            -8 -50.6666717529 -4.66665649414 -28.6666564941 -1.33334350586 -6.66667175293 -8 -34.6666717529 -12 -30.9999847412 -16 -27.3333435059 rrcurveto
            return
          </CharString>
          <CharString index="1">
            18 22.6666564941 18.6666564941 31.0000152588 19.3333435059 39.3333282471 20 42 11.3333282471 33 2.66667175293 24 rrcurveto
            -105 hlineto
            -8 -50.6666717529 -4.66667175293 -28.6666564941 -1.33332824707 -6.66667175293 -8 -34.6666717529 -12 -30.9999847412 -16 -27.3333435059 rrcurveto
            return
          </CharString>
          <CharString index="2">
            36.6666717529 -61.3333282471 63.3333282471 -30.6666717529 90 0 57.3333282471 0 49.3333282471 15.3333282471 41.3333435059 30.6666717529 48.6666564941 36 28 52.3333435059 7.33334350586 68.6666564941 1.33334350586 10.6666717529 0.666656494141 10 0 9.33332824707 0 60 -22 45.3333435059 -44 30.6666564941 -6.66665649414 4 -40 18 -73.3333435059 32 rrcurveto
            -41.3333282471 18 -19 24 3.33332824707 30 3.33332824707 34.6666870117 10.6666717529 24 18 13.3333129883 13.3333282471 10.6666870117 20.3333435059 5.33331298828 27.3333282471 0 40.6666564941 0 40.6666870117 -21.3333129883 40.6666564941 -42.6666870117 rrcurveto
            49 84 rlineto
            -51.3333435059 47.3333129883 -60.3333129883 23.6666870117 -69.3333435059 0 -43.3333282471 0 -41.3333435059 -14.6666870117 -39.3333282471 -29.3333129883 -46.6666564941 -34.6666870117 -26.3333435059 -44.6666259766 -6 -54.6666870117 -1.33332824707 -10.6666564941 -0.66667175293 -10.3333435059 0 -10 0 -57.3333435059 22.3333435059 -43.3333129883 44.6666564941 -29.3333435059 rrcurveto
            123.5 -55 rlineto
            41.6666564941 -18.6666717529 19.1666870117 -26.3333282471 -3.33334350586 -34 -7.33334350586 -68 -38.3333129883 -34 -69.3333435059 0 -51.3333282471 0 -43.3333282471 23.3333435059 -35.3333435059 46.6666564941 rrcurveto
            return
          </CharString>
          <CharString index="3">
            -12 -109 rlineto
            -30 -32 -35 -16 -40 0 -16 0 -13.3333282471 7.16665649414 -10.6666717529 14.3333435059 -10.6666717529 14.3333435059 -4.33332824707 16.5 2 18.6666564941 3.33332824707 29.3333282471 10.3333435059 19.6666717529 17.3333282471 10 11.3333282471 7.33332824707 21.6666717529 6.33334350586 32 5.33332824707 29.3333282471 5.33332824707 24.6666717529 2.66667175293 20 0 rrcurveto
            return
          </CharString>
          <CharString index="4">
            2.66665649414 -17.3333282471 9.66668701172 -15.6666717529 16.6666564941 -14 14 -12 12.3333435059 -6 10.6666564941 0 24 0 33.6666564941 11 43.3333435059 22 rrcurveto
            -4 64 rlineto
            -7.33334350586 -6.66665649414 -14.3333129883 -3.33334350586 -21.3333435059 0 -5.33334350586 0 -4.83331298828 2.66665649414 -4.33334350586 5.33334350586 -4.33334350586 5.33334350586 -2.16665649414 4.66665649414 0 4 rrcurveto
            27 251 rlineto
            4.66665649414 47.3333435059 -12.1666564941 39 -29 30.6666564941 -29 30.6666564941 -38.1666564941 15.3333435059 -47.3333435059 0 -32 0 -35 -8.66665649414 -38 -17.3333435059 -43.3333435059 -19.3333435059 -32.3333129883 -24.6666564941 -21.3333435059 -30 rrcurveto
            37 -61 rlineto
            42.6666717529 45.3333435059 51.6666564941 22.6666564941 60.6666717529 0 16 0 13.3333435059 -6.5 10.6666564941 -13 10.6666564941 -13 4.66668701172 -13.8333435059 -1.33334350586 -14.6666564941 rrcurveto
            -6 -52 rlineto
            -26 -2.66665649414 -28.6666717529 -4.33334350586 -31.3333282471 -6 -62 -12 -42 -13 -22 -14 -34.6666717529 -23.3333282471 -20.3333282471 -39.3333435059 -6 -55.3333282471 -0.66667175293 -7.33332824707 -0.33332824707 -7.00001525879 0 -6.66665649414 0 -40.6666564941 12.3333282471 -32.0000152588 24.6666717529 -23.3333282471 24.6666564941 -23.3333282471 30.6666870117 -11.6666717529 36.6666564941 0 rrcurveto
            22 0 23 7.33332824707 24 14.6666717529 11.3333282471 7.33332824707 21.0000152588 16 30.6666564941 24.6666717529 rrcurveto
            return
          </CharString>
          <CharString index="5">
            -67.3333282471 0.666656494141 -33.6666717529 42.3333435059 0 84 0 12.6666717529 0.66667175293 14.3333282471 1.33332824707 16 rrcurveto
            296 0 8 75 rlineto
            0.666656494141 9.33334350586 0.333343505859 9.33331298828 0 9.33334350586 0 52.6666564941 -16.3333435059 42 -32.6666564941 31.3333435059 -30 28.6666564941 -38 14.3333435059 -46 0 -72.6666717529 0 -60.3333282471 -25.6666564941 -48 -51.3333435059 -44.6666564941 -48.6666564941 -26.3333435059 -62 -8 -75.3333435059 -1.33332824707 -8.66667175293 -0.66667175293 -9.66665649414 0 -10.6666717529 rrcurveto
            0 -56.6666717529 12 -47.9999847412 24 -39.3333435059 34 -57.3333282471 56 -28.6666717529 78 0 37.3333435059 0 31.5 5.33332824707 25.6666564941 10.6666717529 25.6666564941 10.6666717529 31.8333435059 22 38 33.3333282471 rrcurveto
            -38 61 rlineto
            -48 -42.6666564941 -45.6666564941 -21 -43.3333435059 0.666656494141 rrcurveto
            return
          </CharString>
          <CharString index="6">
            -180 hlineto
            10 35.3333435059 16 27.6666564941 22 20 20 17.3333435059 21 8.66665649414 22 0 47.3333435059 0 23.6666564941 -27 0 -54 0 -8.66665649414 -0.666656494141 -9.33334350586 -1.33334350586 -10 rrcurveto
            return
          </CharString>
          <CharString index="7">
            -52 -495 107 0 52 495 rlineto
            return
          </CharString>
          <CharString index="8">
            -34 -320 107 0 35 332 rlineto
            0.666656494141 8 0.333343505859 7.66665649414 0 7.33334350586 0 46.6666564941 -13.3333435059 37.6666870117 -26.6666564941 28.6666564941 -26.6666564941 28.6666564941 -32.6666870117 14.3333435059 -38.6666564941 0 -42 0 -44.6666717529 -34.6666564941 -47.3333282471 -69.3333435059 rrcurveto
            9 89 -107 0 -52 -496 107 0 32 303 rlineto
            2 22 15.6666717529 25.1666564941 29.3333282471 28.3333435059 29.3333282471 28.3333435059 26.6666717529 14.1666564941 24 0 32 0 16 -25.6666564941 0 -51.3333435059 0 -7.33334350586 -0.333343505859 -8 -0.666656494141 -8.66665649414 rrcurveto
            return
          </CharString>
          <CharString index="9">
            -1.33332824707 -12 -0.66667175293 -12.3333282471 0 -12.6666717529 0 -58.6666717529 12.6666717529 -48.6666717529 25.3333282471 -38.6666564941 35.3333435059 -53.3333282471 57.6666564941 -26.6666717529 80 0 82.6666564941 0 65.6666870117 34 48.6666564941 68 35.3333435059 48.6666717529 20.6666564941 53.6666564941 6 58.6666717529 1.33334350586 13.3333435059 0.666656494141 13 0 12.6666564941 rrcurveto
            0 72.6666564941 -22.3333435059 56.6666870117 -44.6666564941 40.6666564941 -38.6666564941 34 -46.3333435059 17 -54 0 -59.3333282471 0 -54 -20 -48.6666717529 -40 -58.6666564941 -48 -34.0000152588 -66.6666564941 -9.33332824707 -85.3333435059 rrcurveto
            return
          </CharString>
          <CharString index="10">
            0 51.3333435059 11.3333282471 47 22.6666717529 42.6666564941 27.3333282471 51.3333435059 37.3333435059 25.6666564941 47.3333282471 0 30.6666564941 0 24 -15 17.3333435059 -30 14.6666564941 -26.6666564941 7.33334350586 -34.3333435059 0 -42 0 -50.6666717529 -11 -46.6666564941 -22 -42.6666717529 -26.6666564941 -52 -36 -26 -45.3333435059 0 rrcurveto
            -32.6666717529 0 -25 15 -17.3333282471 30 -16 26.6666717529 -8 34.3333282471 0 42 rrcurveto
            return
          </CharString>
          <CharString index="11">
            34.6666717529 -53.3333282471 53.3333282471 -26.6666717529 72 0 51.3333282471 0 44.0000152588 14.3333282471 36.6666564941 28.6666717529 41.3333435059 32.6666717529 23.6666564941 45.3333282471 6 58 6.66665649414 68.6666717529 -43 48.6666717529 -92.6666564941 28.6666564941 -21.3333282471 6.66665649414 -21.6666717529 8 -22 9.33334350586 -14 6 -6 12 2 18 rrcurveto
            1.33332824707 14.6666564941 7.16667175293 13 13 11.3333435059 13 11.3333435059 17.1666717529 5.66665649414 21.3333282471 0 32 0 33.6666564941 -13.6666564941 35.3333435059 -27.3333435059 rrcurveto
            47 74 rlineto
            -53.3333435059 36 -48.6666564941 18 -44 0 rrcurveto
            -2 hlineto
            -44 0 -38.6666717529 -13 -33.3333282471 -26 -38 -30 -22 -42 -6 -54 -3.33334350586 -38 8.33334350586 -30 20 -22 16 -16.6666717529 26.3333282471 -13.6666564941 36.6666717529 -10.6666717529 73.3333282471 -22 35.0000152588 -27.6666717529 -3.33334350586 -33.3333282471 -2 -18.6666564941 -8.16665649414 -15.3333435059 -14.3333435059 -12 rrcurveto
            -14.3333282471 -12 -17.8333435059 -6 -21.3333282471 0 -42.6666717529 0 -36.3333282471 23.3333435059 -30 46.6666564941 rrcurveto
            return
          </CharString>
          <CharString index="12">
            97 0 52 495 -107 0 -32 -306 rlineto
            -2 -17.3333282471 -15.3333435059 -22.6666717529 -28.6666564941 -28 -31.3333435059 -30.6666564941 -27.6666564941 -15.3333435059 -24 0 -29.3333282471 0 -14.6666717529 22.3333435059 0 44.6666564941 0 8 0.66667175293 9 1.33332824707 10 rrcurveto
            34 326 -107 0 -35 -329 rlineto
            -0.66667175293 -8.66667175293 -0.33332824707 -8.66665649414 0 -8.66667175293 0 -48 13 -38.3333282471 26 -28.6666717529 26 -28.6666717529 31.6666717529 -14.3333282471 37.3333282471 0 36.6666717529 0 44.3333282471 29.6666717529 52 59.3333282471 1.33334350586 -29.3333282471 1 -23.6666717529 0.666656494141 -18 rrcurveto
            return
          </CharString>
          <CharString index="13">
            37.3333435059 0 34.3333282471 13 31.3333282471 26 25.3333282471 21.3333282471 20.3333435059 26.3333282471 15.3333282471 31.3333435059 rrcurveto
            257 554 -98 25 -147 -364 -79 366 -117 -30 135 -441 rlineto
            -32 -86.6666717529 -33 -42.9999847412 -34 0.666656494141 -22 0 -22.6666717529 6.66665649414 -23.3333282471 13.3333435059 rrcurveto
            -42 -95 rlineto
            44 -16 31.3333282471 -8 18.6666717529 0 rrcurveto
            return
          </CharString>
          <CharString index="14">
            -148 -88 -132 87 -11 -97 132 -106 148 106 rlineto
            return
          </CharString>
          <CharString index="15">
            0 -91.3333282471 32.3333435059 -78 64.6666564941 -64.6666717529 64.6666717529 -64.6666717529 77.9999847412 -32.3333282471 91.3333435059 0 91.3333435059 0 77.9999694824 32.3333282471 64.6666870117 64.6666717529 64.6666870117 64.6666717529 32.3333129883 78 0 91.3333282471 0 91.3333435059 -32.3333129883 78 -64.6666870117 64.6666564941 -64.6666870117 64.6666870117 -77.9999694824 32.3333129883 -91.3333435059 0 rrcurveto
            -91.3333435059 0 -77.9999847412 -32.3333129883 -64.6666717529 -64.6666870117 -64.6666564941 -64.6666564941 -32.3333435059 -78 0 -91.3333435059 rrcurveto
            return
          </CharString>
          <CharString index="16">
            -147 -88 -133 87 -10 -97 132 -106 148 106 rlineto
            return
          </CharString>
          <CharString index="17">
            37 -180 118 19 -143 647 -102 0 -275 -652 111 -14 73 180 rlineto
            return
          </CharString>
          <CharString index="18">
            87 222 40 -222 rlineto
            return
          </CharString>
          <CharString index="19">
            54 59 -200 96 -54 -65 rlineto
            return
          </CharString>
          <CharString index="20">
            37 -180 118 19 -143 647 -102 0 -276 -652 112 -14 73 180 rlineto
            return
          </CharString>
          <CharString index="21">
            146 78 134 -77 9 87 -131 106 -149 -106 rlineto
            return
          </CharString>
          <CharString index="22">
            -67 -642 129 0 67 642 rlineto
            return
          </CharString>
          <CharString index="23">
            55 -72 223 83 -54 78 rlineto
            return
          </CharString>
          <CharString index="24">
            -2 -18.6666564941 -1 -18.3333435059 0 -18 0 -89.3333282471 24 -70.0000152588 48 -50.6666564941 46 -48.6666717529 61 -24.3333282471 76 0 84.6666564941 0 72.3333435059 29 60 58 64 61.3333282471 37.3333129883 83.6666717529 10.6666870117 106 2 15.3333435059 1 15 0 14.6666564941 rrcurveto
            0 82 -23.1666870117 67 -46.3333129883 52 -46.3333435059 52 -62.1666564941 26 -78 0 -85.3333435059 0 -73.4999847412 -30.6666870117 -61.6666717529 -61.3333129883 -61.6666564941 -61.3333435059 -35.8333435059 -77.3333129883 -10 -93.3333435059 rrcurveto
            return
          </CharString>
          <CharString index="25">
            0 62.6666564941 17.6666717529 58.3333435059 35.3333282471 54 40 61.3333129883 50 30.6666870117 60 0 45.3333435059 0 36.6666564941 -19.3333129883 28 -38.6666870117 28 -38.6666564941 14 -48 0 -57.3333435059 0 -62 -18.3333435059 -57.6666717529 -36.6666564941 -53.3333282471 -40.6666564941 -59.3333435059 -50.3333435059 -29.6666564941 -60 0 rrcurveto
            -43.3333282471 0 -35.6666717529 18.8333435059 -28 37.6666564941 -28 37.6666717529 -14 46.8333282471 0 56 rrcurveto
            return
          </CharString>
          <CharString index="26">
            62 0 54 19.3333282471 46 38.6666717529 54 45.3333435059 31.3333435059 64.6666564941 8.66665649414 84 rrcurveto
            43 405 -119 0 -43 -405 rlineto
            -5.33334350586 -52.6666717529 -16 -40 -26.6666564941 -27.3333282471 -22 -22.6666564941 -25.6666564941 -11.3333435059 -29.3333435059 0 -56 0 -28 39 0 78 0 12 0.66667175293 12.3333282471 1.33332824707 12.6666717529 rrcurveto
            43 405 -119 0 -43 -405 rlineto
            -1.33332824707 -15.3333282471 -0.66667175293 -14.6666717529 0 -14 0 -69.3333435059 19 -53 38 -36.6666564941 34 -32.6666717529 44.6666717529 -16.3333282471 55.3333282471 0 rrcurveto
            return
          </CharString>
          <CharString index="27">
            -2 -18.6666870117 4 -16 10 -13.3333129883 11.3333435059 -16 16.6666564941 -8 22 0 22 0 18.6666564941 8 15.3333435059 16 12.6666564941 14 7.33334350586 16 2 18 2 17.3333129883 -4 15.6666870117 -10 14 -11.3333435059 16.6666870117 -16.6666564941 8.33331298828 -22 0 rrcurveto
            -23.3333435059 0 -19 -8.33331298828 -14.6666564941 -16.6666870117 -12 -13.3333129883 -7 -15.6666870117 -2 -18 rrcurveto
            return
          </CharString>
          <CharString index="28">
            -2 -18.6666870117 4 -16 10 -13.3333129883 11.3333435059 -16 16.6666564941 -8 22 0 22.6666717529 0 18.6666564941 8 14.6666717529 16 12.6666717529 14 7.33332824707 16 2 18 2 17.3333129883 -4 15.6666870117 -10 14 -11.3333282471 16.6666870117 -16.6666717529 8.33331298828 -22 0 rrcurveto
            -22.6666717529 0 -18.6666717529 -8.33331298828 -14.6666564941 -16.6666870117 -12.6666564941 -14 -7.33334350586 -15.6666870117 -2 -17.3333129883 rrcurveto
            return
          </CharString>
          <CharString index="29">
            -2 -18.6666870117 4 -16 10 -13.3333129883 11.3333282471 -16 16.6666717529 -8 22 0 22 0 18.6666564941 8 15.3333435059 16 12.6666564941 14 7.33334350586 16 2 18 2 17.3333129883 -4 15.6666870117 -10 14 -11.3333435059 16.6666870117 -16.6666564941 8.33331298828 -22 0 rrcurveto
            -23.3333282471 0 -19 -8.33331298828 -14.6666717529 -16.6666870117 -12 -13.3333129883 -7 -15.6666870117 -2 -18 rrcurveto
            return
          </CharString>
        <CharString name=".notdef">
          63 hmoveto
          375 750 -375 hlineto
          62 -687 rmoveto
          625 250 -625 vlineto
          endchar
        </CharString>
        <CharString name=".null">
          -475 endchar
        </CharString>
        <CharString name="A">
          93 362 148 rmoveto
          30 -160 118 19 -142 647 -102 0 -277 -652 103 -14 63 160 rlineto
          37 93 rmoveto
          105 260 48 -260 rlineto
          endchar
        </CharString>
        <CharString name="AE">
          387 222 271 rmoveto
          84 222 40 -222 rlineto
          226 120 rmoveto
          17 154 257 0 10 96 -380 0 -35 -331 -65 344 -104 0 -283 -652 116 -14 74 180 186 0 35 -169 385 0 11 100 -254 0 rlineto
          20 193 240 0 10 99 rlineto
          endchar
        </CharString>
        <CharString name="Aacute">
          93 351 168 rmoveto
          -90 callsubr
          37 93 rmoveto
          88 222 39 -222 rlineto
          -153 485 rmoveto
          56 -72 222 83 -53 78 rlineto
          endchar
        </CharString>
        <CharString name="Acircumflex">
          93 350 168 rmoveto
          -87 callsubr
          37 93 rmoveto
          -89 callsubr
          -162 400 rmoveto
          147 88 132 -87 10 97 -131 106 -148 -106 rlineto
          endchar
        </CharString>
        <CharString name="Adieresis">
          105 352 168 rmoveto
          -87 callsubr
          36 93 rmoveto
          88 222 39 -222 rlineto
          29 497 rmoveto
          -2 -18.6666870117 3.66665649414 -16 9.33334350586 -13.3333129883 11.3333435059 -16 17 -8 22.6666564941 0 22 0 18.3333435059 8 14.6666564941 16 13.3333435059 14 7.66665649414 16 2 18 1.33334350586 17.3333129883 -4.33334350586 15.6666870117 -10 14 -11.3333435059 16.6666870117 -16.6666564941 8.33331298828 -22 0 rrcurveto
          -22.6666564941 0 -18.6666870117 -8.33331298828 -14.6666564941 -16.6666870117 -12.6666564941 -13.3333129883 -7 -15.6666870117 -1.33334350586 -18 rrcurveto
          -210 hmoveto
          -2 -18.6666870117 3.66667175293 -16 9.33332824707 -13.3333129883 11.3333282471 -16 17 -8 22.6666717529 0 22 0 18.3333282471 8 14.6666717529 16 13.3333435059 14 7.66665649414 16 2 18 1.33334350586 17.3333129883 -4 15.6666870117 -9.33334350586 14 -12 16.6666870117 -17 8.33331298828 -22 0 rrcurveto
          -22.6666717529 0 -18.6666564941 -8.33331298828 -14.6666717529 -16.6666870117 -12.6666717529 -13.3333129883 -7 -15.6666870117 -1.33332824707 -18 rrcurveto
          endchar
        </CharString>
        <CharString name="Agrave">
          105 351 168 rmoveto
          -90 callsubr
          37 93 rmoveto
          -89 callsubr
          60 425 rmoveto
          -88 callsubr
          endchar
        </CharString>
        <CharString name="Aring">
          105 350 168 rmoveto
          -90 callsubr
          37 93 rmoveto
          -89 callsubr
          -12 425 rmoveto
          26.6666564941 0 22.6666870117 8.16668701172 18.6666564941 16.3333129883 18.6666564941 16.3333129883 10.6666870117 20.8333740234 2.66665649414 25.3333129883 2.66665649414 24.6666870117 -6.33331298828 20.5 -15.3333435059 16.3333129883 -15.3333435059 16.3333129883 -21 8.16668701172 -26.6666564941 0 -26.6666564941 0 -22.6666870117 -8.16668701172 -18.6666564941 -16.3333129883 -18.6666717529 -16.3333129883 -10.6666564941 -20.5 -2.66667175293 -24.6666870117 rrcurveto
          -2.66667175293 -25.3333129883 6.16667175293 -20.8333740234 15 -16.3333129883 15 -16.3333129883 21.1666564941 -8.16668701172 27.3333435059 0 rrcurveto
          13 130 rmoveto
          22 0 9.66665649414 -14.3333129883 -2.66665649414 -28.6666870117 -3.33334350586 -29.3333129883 -12.6666564941 -14.6666870117 -22 0 -22 0 -9.33334350586 14.6666870117 3.33334350586 29.3333129883 2.66665649414 28.6666870117 12.3333435059 14.3333129883 22 0 rrcurveto
          endchar
        </CharString>
        <CharString name="Atilde">
          105 352 168 rmoveto
          -87 callsubr
          37 93 rmoveto
          -89 callsubr
          -23 458 rmoveto
          28.6666564941 -20 24.3333435059 -10 20 0 10 0 14.5 3.66668701172 19 7.33331298828 19 7.33331298828 15.5 9 12 10.6666870117 rrcurveto
          -29 76 rlineto
          -27.3333435059 -20.6666870117 -18.3333129883 -10.3333129883 -9.33334350586 0 -6.66665649414 0 -15.1666870117 9 -23.6666564941 18 -23.6666564941 18 -22.1666870117 8.66668701172 -20.6666564941 -0.666687011719 -44 -1.33331298828 -36.6666717529 -17.3333740234 -29.3333282471 -33.3333129883 rrcurveto
          30 -78 rlineto
          30.6666717529 31.3333129883 23.6666564941 15.6666870117 16.6666717529 0 5.33334350586 0 14 -7.66668701172 22.6666564941 -15.3333129883 rrcurveto
          endchar
        </CharString>
        <CharString name="B">
          26 29 2 rmoveto
          12.6666717529 0 23.1666717529 -0.66667175293 33.6666564941 -1.33332824707 33.6666717529 -1.33332824707 25.8333282471 -0.66667175293 18 0 79.3333282471 0 60.6666717529 11 42 22 58 30.6666717529 33 53.6666717529 8 76.6666564941 4.66665649414 40.6666717529 -9.16665649414 35.9999847412 -23 31.3333435059 -23 31.3333435059 -28.8333435059 17 -34.6666564941 2.66665649414 rrcurveto
          63.3333435059 32 34.6666564941 43.6666564941 6 55.3333435059 0.666656494141 8 0.333343505859 7.66665649414 0 7.33334350586 0 44.6666870117 -13.8333435059 34.5 -27.6666564941 24.3333129883 -27.6666564941 24.3333129883 -38.5 12.1666870117 -49.3333435059 0 -24.6666564941 0 -33.3333435059 -0.666687011719 -42 -1.33331298828 -57.3333282471 -1.33331298828 -31.3333282471 -0.666687011719 -5.33334350586 0 rrcurveto
          110 -72 rmoveto
          24 1.33331298828 19 0.666687011719 14 0 54.6666564941 0 24.3333435059 -32.6666870117 -6 -65.3333129883 -2.66665649414 -26 -10.3333435059 -21.6666564941 -18 -17.3333435059 -20 -18.6666564941 -25 -9.33334350586 -30 0 rrcurveto
          -44 hlineto
          -8 -76 rmoveto
          65 hlineto
          34 0 26.3333435059 -12 18.6666564941 -24 16.6666564941 -22 6.66668701172 -25 -3.33334350586 -28 -3.33334350586 -34 -11.6666564941 -26.6666717529 -20 -19.3333282471 -21.3333435059 -21.3333435059 -28.3333129883 -10.6666564941 -35.3333435059 0 rrcurveto
          -67 hlineto
          endchar
        </CharString>
        <CharString name="C">
          82 348 660 rmoveto
          -96.6666717529 0 -78.6666564941 -40.6666870117 -60.6666717529 -81.3333129883 -55.3333282471 -74 -27.6666717529 -86.6666564941 0 -99.3333435059 0 -81.3333282471 19 -66.3333435059 38 -51.3333282471 42.6666717529 -58 62.3333282471 -29 82 0 38 0 35.6666564941 6.33332824707 33.3333435059 12.6666717529 26 10 36.6666564941 19.3333282471 47.3333435059 28.6666717529 rrcurveto
          -39 78 rlineto
          -37.3333435059 -20 -27 -13 -16.6666564941 -6 -22 -8 -22.6666564941 -4 -23.3333435059 0 -39.3333435059 0 -32.9999847412 17.6666564941 -26.6666717529 35.3333435059 -26.6666717529 35.3333282471 -13.3333282471 45 0 54.6666717529 0 11.3333435059 0.66667175293 11.3333129883 1.33332824707 11.3333435059 6 59.3333435059 18 53.6666564941 30 48 rrcurveto
          36.6666717529 60 45.3333282471 30 54 0 25.3333435059 0 24 -5.66668701172 22.6666564941 -11.3333129883 1.33334350586 -1.33331298828 20.3333129883 -13 39.3333435059 -24.6666870117 rrcurveto
          50 78 rlineto
          -70 46 -63.3333435059 23 -56.6666564941 0 rrcurveto
          endchar
        </CharString>
        <CharString name="Ccedilla">
          95 302 -219 rmoveto
          30.6666564941 0 25 9 19.3333435059 18 17.3333435059 16.6666717529 10 20 2.66665649414 23.3333282471 2.66665649414 23.3333435059 -5.33331298828 20 -13.3333435059 16.6666564941 -15.3333435059 19.3333282471 -21.6666564941 9.66667175293 -28 0 -10 0 -8.33334350586 -1.33332824707 -6.66665649414 -2.66667175293 rrcurveto
          7 39 rlineto
          32.6666564941 1.33332824707 30.6666870117 6 28.6666564941 10.6666717529 22 7.33332824707 35 16 48 24.6666717529 rrcurveto
          -45 94 rlineto
          -72 -38 -53.6666564941 -19 -35.3333435059 0 -38.6666564941 0 -32.1666717529 17.5 -25.6666717529 35 -25.6666717529 35 -12.8333282471 45.1666717529 0 55.3333282471 0 11.3333435059 0.66667175293 11.6666564941 1.33332824707 12 6 58 18 52 30 46 36 56.6666870117 45.3333435059 28.3333129883 54.6666564941 0 rrcurveto
          21.3333435059 0 24 -8.66668701172 26.6666564941 -17.3333129883 rrcurveto
          63 -45 63 109 rlineto
          -68 42.6666870117 -64.3333435059 21 -60.6666564941 -0.666687011719 -96.6666564941 -0.666687011719 -78.0000152588 -41 -59.3333282471 -81.3333129883 -54 -73.3333435059 -27 -86.3333129883 0 -99.3333435059 0 -74 16 -62 32 -50 36 -56.6666717529 52.3333282471 -32.6666564941 68.6666717529 -8.66667175293 rrcurveto
          -14 -84 44 -21 rlineto
          15.3333435059 10 12.3333129883 5 9.33334350586 0 22 0 9.66665649414 -13 -2.66665649414 -26 -2.66665649414 -22.6666717529 -13 -11.3333282471 -23.3333435059 0 -15.3333435059 0 -16 10.6666717529 -16.6666564941 21.3333282471 rrcurveto
          -40 -34 rlineto
          11.3333282471 -32 27.3333282471 -16 43.3333435059 0 rrcurveto
          endchar
        </CharString>
        <CharString name="D">
          90 29 2 rmoveto
          27.3333282471 0 29.3333282471 -0.66667175293 31.3333435059 -1.33332824707 31.3333282471 -1.33332824707 23.6666717529 -0.66667175293 16 0 102 0 81 29.3333282471 60 58.6666717529 58 56 34 79 10 102 2 20.6666564941 1 20 0 19.3333435059 0 176 -92 88 -184 0 rrcurveto
          -55.3333282471 0 -54.3333435059 -1.33331298828 -53.3333282471 -2.66668701172 rrcurveto
          163 -74 rmoveto
          100 50 -65 -130 hvcurveto
          0 -19.3333435059 -1 -20.3333129883 -2 -21.3333435059 -6 -58.6666717529 -19.6666564941 -51 -33.3333435059 -43.3333282471 -37.3333435059 -48.6666564941 -44.3333129883 -24.3333435059 -51.3333435059 0 rrcurveto
          -55 0 51 481 rlineto
          6.66667175293 0 8.66665649414 0.333312988281 10.6666717529 0.666687011719 rrcurveto
          endchar
        </CharString>
        <CharString name="Delta">
          214 355 657 rmoveto
          -313 -657 572 0 -153 657 rlineto
          -251 -567 rmoveto
          179 400 78 -400 rlineto
          endchar
        </CharString>
        <CharString name="E">
          -13 186 391 rmoveto
          18 164 243 0 9 85 -359 0 -68 -640 356 0 10 89 -240 0 22 214 227 -1 9 89 rlineto
          endchar
        </CharString>
        <CharString name="Eacute">
          -6 182 391 rmoveto
          15 144 242 0 11 105 -359 0 -67 -640 357 0 11 110 -240 -1 19 184 226 -1 11 99 rlineto
          -257 365 rmoveto
          54 -72 223 83 -54 78 rlineto
          endchar
        </CharString>
        <CharString name="Ecircumflex">
          14 180 391 rmoveto
          15 144 242 0 11 105 -359 0 -67 -640 357 0 12 110 -241 -1 20 184 226 -1 10 99 rlineto
          -255 290 rmoveto
          -86 callsubr
          endchar
        </CharString>
        <CharString name="Edieresis">
          14 182 391 rmoveto
          16 144 242 0 11 105 -359 0 -68 -640 357 0 12 110 -240 -1 19 184 226 -1 10 99 rlineto
          -77 367 rmoveto
          -2 -18.6666870117 4 -16 10 -13.3333129883 11.3333435059 -16 16.6666564941 -8 22 0 22.6666564941 0 18.6666870117 8 14.6666564941 16 12.6666564941 14 7.33334350586 16 2 18 2 17.3333129883 -4 15.6666870117 -10 14 -11.3333435059 16.6666870117 -16.6666564941 8.33331298828 -22 0 rrcurveto
          -22.6666564941 0 -18.6666870117 -8.33331298828 -14.6666564941 -16.6666870117 -12.6666564941 -14 -7.33334350586 -15.6666870117 -2 -17.3333129883 rrcurveto
          -209 hmoveto
          -2 -18.6666870117 3.66665649414 -16 9.33334350586 -13.3333129883 11.3333282471 -16 17 -8 22.6666717529 0 22 0 18.3333282471 8 14.6666717529 16 12.6666717529 14 7.33332824707 16 2 18 2 17.3333129883 -4 15.6666870117 -10 14 -11.3333282471 16.6666870117 -16.3333435059 8.33331298828 -21.3333282471 0 rrcurveto
          -23.3333282471 0 -19 -8.33331298828 -14.6666717529 -16.6666870117 -12 -13.3333129883 -7 -15.6666870117 -2 -18 rrcurveto
          endchar
        </CharString>
        <CharString name="Egrave">
          14 182 391 rmoveto
          15 144 242 0 11 105 -359 0 -67 -640 357 0 11 110 -240 -1 20 184 225 -1 11 99 rlineto
          -46 295 rmoveto
          55 59 -201 96 -53 -65 rlineto
          endchar
        </CharString>
        <CharString name="Eth">
          90 245 353 rmoveto
          -63 0 21 195 rlineto
          7.33332824707 0 10.3333435059 0.333312988281 13.3333282471 0.666687011719 rrcurveto
          28 hlineto
          98.6666564941 49.3333435059 -58 -116 hvcurveto
          0 -18.6666564941 -1.33334350586 -20.6666870117 -2.66665649414 -22.6666564941 -6 -57.3333282471 -18.3333435059 -47.6666717529 -30.6666564941 -38 -34.6666564941 -42 -43.6666870117 -21 -52.6666564941 0 rrcurveto
          -64 0 15 144 63 0 rlineto
          -172 102 rmoveto
          -53 0 -11 -102 53 0 -26 -249 rlineto
          28 0 29.5 -0.66667175293 31 -1.33332824707 31 -1.33332824707 23.8333282471 -0.66667175293 16.6666717529 0 103.333343506 0 82 29.3333282471 60.6666564941 58.6666717529 58 56 34 79 10 102 2 22 1 21 0 20 0 91.3333435059 -23.8333129883 66.3333435059 -47.6666870117 41.3333129883 rrcurveto
          -47.6666564941 41.3333129883 -72.5 20.6666870117 -97.3333435059 0 -48.6666717529 0 -51.3333282471 -1.33331298828 -54 -2.66668701172 rrcurveto
          endchar
        </CharString>
        <CharString name="F">
          -12 186 391 rmoveto
          18 164 244 0 9 85 -360 0 -68 -640 116 0 32 302 229 0 9 89 rlineto
          endchar
        </CharString>
        <CharString name="G">
          107 267 -6 rmoveto
          42.6666564941 0 38.3333435059 6 34 12 26.6666564941 8.66667175293 36.3333435059 17.6666564941 46 26.6666717529 rrcurveto
          35 326 -250 0 -9 -87 131 0 -21 -196 rlineto
          -23.3333435059 -10.6666564941 -32 -5.33334350586 -40.6666564941 0 -35.3333282471 0 -28.8333435059 17.6666564941 -22.3333282471 35.3333435059 -22.3333282471 35.3333282471 -11.1666717529 44.6666717529 0 54 0 12.6666564941 0.66667175293 13 1.33332824707 13.3333435059 6 56.6666564941 18 53.3333435059 30 50 36.6666717529 60.6666870117 42.9999847412 30.3333129883 49.3333435059 0 rrcurveto
          45.3333435059 0 47.3333129883 -18.3333129883 49.3333435059 -36.6666870117 rrcurveto
          49 76 rlineto
          -24 21.3333129883 -33.6666564941 17.6666870117 -43.3333435059 14 -37.3333435059 11.3333129883 -34 5.66668701172 -30.6666564941 0 -86 0 -72.6666717529 -39 -59.3333282471 -78 -49.3333435059 -66 -28.3333282471 -73.3333435059 -7.33332824707 -80.6666564941 -2 -14.6666564941 -1 -14.6666870117 0 -14.6666564941 0 -79.3333282471 19 -65.6666717529 38 -52 rrcurveto
          42.6666564941 -58.6666717529 60.6666717529 -29.3333282471 78.6666717529 0 rrcurveto
          endchar
        </CharString>
        <CharString name="H">
          107 399 302 rmoveto
          -32 -302 118 0 68 640 -118 0 -27 -249 -219 0 27 249 -119 0 -68 -640 119 0 32 302 rlineto
          endchar
        </CharString>
        <CharString name="I">
          -230 97 641 rmoveto
          -68 -641 119 0 68 641 rlineto
          endchar
        </CharString>
        <CharString name="Iacute">
          -260 72 642 rmoveto
          -68 -642 129 0 68 642 rlineto
          -187 104 rmoveto
          -84 callsubr
          endchar
        </CharString>
        <CharString name="Icircumflex">
          -260 63 642 rmoveto
          -85 callsubr
          -197 39 rmoveto
          -86 callsubr
          endchar
        </CharString>
        <CharString name="Idieresis">
          -260 72 642 rmoveto
          -85 callsubr
          -17 106 rmoveto
          -2 -18.6666870117 3.66667175293 -16 9.33332824707 -13.3333129883 11.3333282471 -16 17 -8 22.6666717529 0 22 0 18.3333435059 8 14.6666564941 16 13.3333435059 14 7.66665649414 16 2 18 1.33334350586 17.3333129883 -4.33334350586 15.6666870117 -10 14 -11.3333435059 16.6666870117 -16.6666564941 8.33331298828 -22 0 rrcurveto
          -22.6666717529 0 -18.6666564941 -8.33331298828 -14.6666717529 -16.6666870117 -12.6666717529 -14 -7 -15.6666870117 -1.33332824707 -17.3333129883 rrcurveto
          -209 hmoveto
          -2 -18.6666870117 3.66667175293 -16 9.33332824707 -13.3333129883 10.6666717529 -16 17 -8 23.3333282471 0 22 0 18.3333435059 8 14.6666564941 16 12.6666564941 14 7.33334350586 16 2 18 1.33334350586 17.3333129883 -4 15.6666870117 -9.33334350586 14 -12 16.6666870117 -16.6666564941 8.33331298828 -21.3333435059 0 rrcurveto
          -22.6666717529 0 -18.6666564941 -8.33331298828 -14.6666717529 -16.6666870117 -12.6666717529 -13.3333129883 -7 -15.6666870117 -1.33332824707 -18 rrcurveto
          endchar
        </CharString>
        <CharString name="Igrave">
          -260 71 642 rmoveto
          -85 callsubr
          26 44 rmoveto
          -88 callsubr
          endchar
        </CharString>
        <CharString name="J">
          -228 -30 -187 rmoveto
          114 0 65.6666717529 84.6666564941 17.3333282471 169.333343506 rrcurveto
          60 573 -120 0 -60 -580 rlineto
          -10.6666717529 -100.666671753 -25 -50.3333282471 -39.3333282471 0 -20.6666717529 0 -17.3333282471 5 -14 10 -10 7.33334350586 -12.3333435059 13.3333282471 -14.6666564941 19.3333282471 rrcurveto
          -68 -75 rlineto
          28.6666717529 -28.6666717529 21.3333282471 -18.6666564941 14 -8.66667175293 24 -13.3333282471 30.3333435059 -6.66667175293 36.6666564941 0 rrcurveto
          endchar
        </CharString>
        <CharString name="K">
          67 209 255 rmoveto
          48 -96 52 -92.6666564941 56 -89.3333435059 rrcurveto
          144 31 -123 161 rlineto
          -50 67.3333282471 -35 53.6666717529 -20 40 rrcurveto
          238 290 -99 53 -235 -322 30 290 -119 0 -67 -641 119 0 21 206 rlineto
          endchar
        </CharString>
        <CharString name="L">
          26 97 641 rmoveto
          -68 -641 375 0 9 85 -258 0 59 556 rlineto
          endchar
        </CharString>
        <CharString name="Lslash">
          26 63 367 rmoveto
          -54 -20 -12 -113 54 20 -27 -254 380 0 11 105 -262 0 21 194 64 24 12 114 -64 -24 24 228 -118 0 rlineto
          endchar
        </CharString>
        <CharString name="M">
          318 599 427 rmoveto
          -45 -427 131 0 68 642 -142 0 -228 -472 -124 472 -152 0 -68 -642 106 0 46 431 107 -432 104 0 rlineto
          endchar
        </CharString>
        <CharString name="N">
          107 176 401 rmoveto
          89.3333435059 -157.333328247 71 -138.666671753 52.6666564941 -120 rrcurveto
          99 30 65 625 -102 0 -42 -401 -215 405 -96 0 -68 -644 103 0 rlineto
          endchar
        </CharString>
        <CharString name="Ntilde">
          95 182 395 rmoveto
          101.333343506 -178.666671753 71.3333129883 -136.666671753 41.3333435059 -94.6666564941 rrcurveto
          89 30 65 625 -112 0 -40 -381 -207 385 -96 0 -68 -645 113 2 rlineto
          191 688 rmoveto
          29.3333435059 -20 24.3333129883 -10 19.3333435059 0 10 0 14 3.33331298828 18 6.66668701172 20.6666564941 8 16 9.33331298828 11.3333435059 10.6666870117 rrcurveto
          -29 76 rlineto
          -27.3333435059 -20.6666870117 -18 -10.3333129883 -8.66665649414 0 -6.66665649414 0 -15.3333435059 9 -24 18 -24 18 -22 8.66668701172 -20 -0.666687011719 -44 -1.33331298828 -37 -17.3333740234 -30 -33.3333129883 rrcurveto
          31 -78 rlineto
          30 31.3333129883 23.6666564941 15.6666870117 17.3333435059 0 5.33334350586 0 13.6666564941 -7.66668701172 22 -15.3333129883 rrcurveto
          endchar
        </CharString>
        <CharString name="O">
          169 33 322 rmoveto
          -2 -18.6666564941 -1 -18.3333435059 0 -18 0 -89.3333282471 24 -70.0000152588 48 -50.6666564941 45.3333282471 -48.6666717529 60.6666717529 -24.3333282471 76 0 85.3333435059 0 72.3333129883 29 59.3333435059 58 64 61.3333282471 37.6666870117 83.6666717529 11.3333129883 106 1.33331298828 15.3333435059 0.666687011719 14.6666564941 0 14 rrcurveto
          0 82.6666564941 -23.1666870117 67.3333435059 -46.3333129883 52 -46.3333435059 52 -61.8333129883 26 -77.3333435059 0 -86 0 -73.8333282471 -30.6666870117 -61.6666717529 -61.3333129883 -61.6666564941 -61.3333435059 -35.5000152588 -77.3333129883 -9.33332824707 -93.3333435059 rrcurveto
          122 -46 rmoveto
          0 64.6666564941 16 60.6666870117 32 56.6666564941 38 66.6666870117 49 33.3333129883 60 0 43.3333435059 0 34.6666564941 -20.3333129883 26 -40.6666870117 24 -38 12 -48.3333435059 0 -58.6666564941 0 -63.3333435059 -16.6666564941 -59.6666564941 -33.3333435059 -56 -38.6666564941 -66 -48.6666870117 -33 -58.6666564941 0 rrcurveto
          -42 0 -34 20 -26 40 -24.6666717529 38 -12.3333282471 47.3333282471 0 56.6666717529 rrcurveto
          endchar
        </CharString>
        <CharString name="OE">
          553 567 157 rmoveto
          -16 -157 379 0 11 107 -287 0 19 184 278 0 11 99 -278 0 15 144 287 0 11 105 -379 0 -14 -129 rlineto
          -52 98 -75.6666564941 49 -99.3333435059 0 -88.6666564941 0 -75.3333435059 -29.5 -62 -59 -62 -59 -36 -76.1666564941 -10 -93.3333435059 -2 -18.6666564941 -1 -18 0 -17.3333435059 0 -90.6666717529 24.6666564941 -70.9999847412 49.3333435059 -51.3333435059 47.3333282471 -50.6666717529 62.3333435059 -25.3333282471 77.3333282471 0 rrcurveto
          102 0 88.6666564941 53.3333282471 75.3333435059 106.666671753 rrcurveto
          -407 142 rmoveto
          0 64 17.6666717529 57.6666564941 35.3333282471 51.3333435059 40 57.3333129883 50.6666564941 28.6666870117 61.3333435059 0 47.3333435059 0 37.6666564941 -18.1666870117 28 -36.3333129883 28 -36.3333435059 14 -46.5 0 -56.6666564941 0 -62.6666564941 -18.6666564941 -58.3333435059 -37.3333435059 -54 -41.3333435059 -60.6666717529 -50.6666564941 -30.3333282471 -60 0 rrcurveto
          -44 0 -36.3333282471 19.3333435059 -28.6666717529 38.6666564941 -28.6666717529 38.6666717529 -14.3333282471 47.6666564941 0 56.6666717529 rrcurveto
          endchar
        </CharString>
        <CharString name="Oacute">
          169 28 322 rmoveto
          -2 -18.6666564941 -1 -18.3333435059 0 -18 0 -89.3333282471 24 -70.0000152588 48 -50.6666564941 45.3333282471 -48.6666717529 60.6666717529 -24.3333282471 76 0 85.3333435059 0 72.6666564941 29 60 58 63.3333129883 61.3333282471 37.3333740234 83.6666717529 11.3333129883 106 1.33331298828 15.3333435059 0.666687011719 15 0 14.6666564941 rrcurveto
          0 82 -23 67 -46 52 -46 52 -62 26 -78 0 -86 0 -73.6666717529 -30.6666870117 -61.3333282471 -61.3333129883 -61.3333435059 -61.3333435059 -35.6666564941 -77.3333129883 -10 -93.3333435059 rrcurveto
          112 -41 rmoveto
          0 62.6666564941 18 58.3333435059 36 54 40 61.3333129883 50 30.6666870117 60 0 45.3333435059 0 36.6666564941 -19.3333129883 28 -38.6666870117 28 -38.6666564941 14 -48 0 -57.3333435059 0 -62 -18.6666564941 -57.6666717529 -37.3333435059 -53.3333282471 -40.6666564941 -59.3333435059 -50 -29.6666564941 -59.3333435059 0 rrcurveto
          -43.3333282471 0 -35.8333435059 18.8333435059 -28.3333282471 37.6666564941 -28.3333282471 37.6666717529 -14.1666717529 46.8333282471 0 56 rrcurveto
          84 465 rmoveto
          56 -72 223 83 -54 78 rlineto
          endchar
        </CharString>
        <CharString name="Ocircumflex">
          169 26 322 rmoveto
          -83 callsubr
          113 -41 rmoveto
          -82 callsubr
          81 380 rmoveto
          147 88 133 -87 10 97 -131 106 -149 -106 rlineto
          endchar
        </CharString>
        <CharString name="Odieresis">
          173 29 322 rmoveto
          -2 -18.6666564941 -1 -18.3333435059 0 -18 0 -89.3333282471 23.3333282471 -69.5000152588 46.6666717529 -49.6666564941 46.6666717529 -49.6666717529 61.3333282471 -24.8333282471 76 0 84.6666564941 0 72.3333435059 29 60 58 64 61.3333282471 37.6666870117 83.6666717529 11.3333129883 106 1.33331298828 15.3333435059 0.666687011719 15 0 14.6666564941 rrcurveto
          0 82 -23.1666870117 67 -46.3333129883 52 -46.3333435059 52 -61.8333129883 26 -77.3333435059 0 -86 0 -73.8333282471 -30.6666870117 -61.6666717529 -61.3333129883 -61.6666564941 -61.3333435059 -35.5000152588 -77.3333129883 -9.33332824707 -93.3333435059 rrcurveto
          112 -41 rmoveto
          0 62.6666564941 17.6666717529 58.3333435059 35.3333282471 54 40.6666717529 61.3333129883 49.9999847412 30.6666870117 59.3333435059 0 45.3333435059 0 36.6666564941 -19.3333129883 28 -38.6666870117 28 -38.6666564941 14 -48 0 -57.3333435059 0 -62 -18.3333435059 -57.6666717529 -36.6666564941 -53.3333282471 -40.6666564941 -59.3333435059 -50 -29.6666564941 -59.3333435059 0 rrcurveto
          -43.3333282471 0 -35.8333435059 18.8333435059 -28.3333282471 37.6666564941 -28.3333282471 37.6666717529 -14.1666717529 46.8333282471 0 56 rrcurveto
          264 467 rmoveto
          -2 -18.6666870117 4 -16 10 -13.3333129883 10.6666564941 -16 17 -8 23.3333435059 0 21.3333435059 0 18.3333129883 8 15.3333435059 16 13.3333129883 14 7.33337402344 16 1.33331298828 18 2 17.3333129883 -4 15.6666870117 -10 14 -12 16.6666870117 -16.6666564941 8.33331298828 -21.3333435059 0 rrcurveto
          -22.6666564941 0 -18.6666870117 -8.33331298828 -14.6666564941 -16.6666870117 -12.6666564941 -13.3333129883 -7.33334350586 -15.6666870117 -2 -18 rrcurveto
          -210 hmoveto
          -2 -18.6666870117 4 -16 10 -13.3333129883 11.3333282471 -16 17 -8 22.6666717529 0 22 0 18.3333435059 8 14.6666564941 16 12.6666564941 14 7.33334350586 16 2 18 2 17.3333129883 -4 15.6666870117 -10 14 -11.3333435059 16.6666870117 -16.6666564941 8.33331298828 -22 0 rrcurveto
          -22.6666717529 0 -18.6666564941 -8.33331298828 -14.6666717529 -16.6666870117 -12.6666717529 -13.3333129883 -7.33332824707 -15.6666870117 -2 -18 rrcurveto
          endchar
        </CharString>
        <CharString name="Ograve">
          169 27 322 rmoveto
          -1.33332824707 -18.6666564941 -0.66667175293 -18.3333435059 0 -18 0 -89.3333282471 23.3333282471 -69.5000152588 46.6666717529 -49.6666564941 46.6666717529 -49.6666717529 61.3333282471 -24.8333282471 76 0 84.6666564941 0 72.3333435059 29 60 58 64 61.3333282471 37.3333129883 83.6666717529 10.6666870117 106 2 15.3333435059 1 15 0 14.6666564941 rrcurveto
          0 82 -23.1666870117 67 -46.3333129883 52 -46.3333435059 52 -61.8333129883 26 -77.3333435059 0 -86 0 -73.8333282471 -30.6666870117 -61.6666717529 -61.3333129883 -61.6666564941 -61.3333435059 -35.8333435059 -77.3333129883 -10 -93.3333435059 rrcurveto
          113 -41 rmoveto
          0 62.6666564941 17.6666717529 58.3333435059 35.3333282471 54 40.6666717529 61.3333129883 49.9999847412 30.6666870117 59.3333435059 0 45.3333435059 0 36.6666564941 -19.3333129883 28 -38.6666870117 28 -38.6666564941 14 -48 0 -57.3333435059 0 -62 -18.3333435059 -57.6666717529 -36.6666564941 -53.3333282471 -40.6666564941 -59.3333435059 -50.3333435059 -29.6666564941 -60 0 rrcurveto
          -43.3333282471 0 -35.6666717529 18.8333435059 -28 37.6666564941 -28 37.6666717529 -14 46.8333282471 0 56 rrcurveto
          297 405 rmoveto
          -88 callsubr
          endchar
        </CharString>
        <CharString name="Omega">
          171 394 99 rmoveto
          3 26 rlineto
          46.6666564941 10.6666717529 43 29.3333282471 39.3333435059 48 37.3333129883 46.6666564941 21.3333740234 48 5.33331298828 49.3333435059 2 17.3333435059 1 16.3333129883 0 15.3333435059 0 154 -80.6666870117 77 -161.333312988 0 -90.6666564941 0 -74.0000152588 -27.5 -57.3333282471 -55 -57.3333435059 -55 -28.6666564941 -72.8333435059 0 -90.6666564941 rrcurveto
          0 -46.6666564941 13.3333282471 -44.0000152588 26.6666717529 -41.3333282471 26.6666564941 -41.3333282471 34.0000152588 -26.3333435059 41.3333282471 -11.3333282471 rrcurveto
          -3 -26 -144 0 -10 -99 229 0 21 203 rlineto
          -44.6666717529 0 -33 17 -21.3333282471 34 -18 27.3333435059 -7 31 4 34.6666564941 6.66667175293 63.3333435059 19.5 49.1666564941 32.3333282471 35 32.3333282471 35 41.5000152588 17.5 50.6666564941 0 89.3333435059 -0.666687011719 44.6666564941 -52.6666564941 0 -104.666656494 0 -13.3333435059 -0.666656494141 -14 -1.33334350586 -14.6666564941 rrcurveto
          -3.33334350586 -32 -15 -31 -26.6666564941 -30 -31.3333435059 -34 -35 -17 -38.6666564941 0 rrcurveto
          -21 -203 230 0 10 99 rlineto
          endchar
        </CharString>
        <CharString name="Oslash">
          169 34 322 rmoveto
          -2 -18.6666564941 -1 -18.3333435059 0 -18 0 -117.333328247 39.3333435059 -82.6666717529 78.6666564941 -48 rrcurveto
          -24 -59 105 -34 24 60 rlineto
          13.3333435059 -1.33332824707 10.3333129883 -0.66667175293 7.33334350586 0 84.6666564941 0 72.3333435059 29 60 58 64 61.3333282471 37.6666870117 83.6666717529 11.3333129883 106 1.33331298828 15.3333435059 0.666687011719 15 0 14.6666564941 0 108.666656494 -37.3333129883 79.0000305176 -74.6666870117 49.3333129883 rrcurveto
          20 49 -105 34 -18 -44 rlineto
          -12.6666564941 2 -13.3333435059 1 -14 0 -86 0 -73.8333282471 -30.6666870117 -61.6666717529 -61.3333129883 -61.6666564941 -61.3333435059 -35.5000152588 -77.3333129883 -9.33332824707 -93.3333435059 rrcurveto
          261 -238 rmoveto
          164 406 rlineto
          28 -38 14 -48 0 -58 0 -62 -18.3333435059 -57.6666717529 -36.6666564941 -53.3333282471 -40.6666564941 -59.3333435059 -50 -29.6666564941 -59.3333435059 0 rrcurveto
          -150 197 rmoveto
          0 63.3333435059 17.6666717529 58.6666564941 35.3333282471 54 40 60.6666870117 50 30.3333129883 60 0 6 0 4.66665649414 -0.333312988281 3.33334350586 -0.666687011719 rrcurveto
          -168 -415 rlineto
          -32.6666717529 39.3333282471 -16.3333282471 49.6666717529 0 60 rrcurveto
          endchar
        </CharString>
        <CharString name="Otilde">
          173 29 322 rmoveto
          -83 callsubr
          113 -41 rmoveto
          -82 callsubr
          190 418 rmoveto
          29.3333435059 -20 24.3333129883 -10 19.3333435059 0 10 0 14.5 3.66668701172 19 7.33331298828 19 7.33331298828 15.5 9 12 10.6666870117 rrcurveto
          -29 76 rlineto
          -27.3333435059 -20.6666870117 -18 -10.3333129883 -8.66665649414 0 -7.33334350586 0 -15.5 9 -23.6666564941 18 -23.6666564941 18 -22.1666870117 8.66668701172 -20.6666564941 -0.666687011719 -44 -1.33331298828 -36.6666717529 -17.3333740234 -29.3333282471 -33.3333129883 rrcurveto
          30 -78 rlineto
          30.6666717529 31.3333129883 23.6666717529 15.6666870117 16.6666564941 0 6 0 14 -7.66668701172 22 -15.3333129883 rrcurveto
          endchar
        </CharString>
        <CharString name="P">
          0 172 259 rmoveto
          26.6666717529 -1.33334350586 17 -0.666656494141 7.33332824707 0 59.3333435059 0 54 21 48.6666564941 42 51.3333435059 44 25.6666564941 51 0 58 0 50 -16.8333435059 41.1666870117 -33.6666564941 32.3333129883 -33.6666564941 32.3333129883 -42.1666870117 15.8333740234 -50.6666564941 -0.666687011719 rrcurveto
          -188 -3 -68 -641 116 0 rlineto
          60 569 rmoveto
          4.66667175293 0 7.33332824707 0.5 10 1 10 1 7.33332824707 0.166687011719 4.66667175293 -0.666687011719 64.6666564941 -6 32.3333435059 -34 0 -62 0 -6.66665649414 -0.333343505859 -7 -0.666656494141 -7.33334350586 -3.33334350586 -32 -14.6666564941 -28.1666564941 -26 -24.3333435059 -26 -24.3333435059 -29.6666717529 -12.1666564941 -33.3333282471 0 rrcurveto
          -32 hlineto
          endchar
        </CharString>
        <CharString name="Q">
          183 438 41 rmoveto
          117 -119 84 84 -116 116 rlineto
          66 57.3333282471 33 82.3333282471 0 107.333343506 0 82 -23.3333129883 66.6666870117 -46.6666870117 51.3333129883 -46.6666564941 51.3333129883 -62.3333435059 25.6666870117 -78 0 -86 0 -74 -30.6666870117 -62 -61.3333129883 -62 -61.3333435059 -36 -77.6666564941 -10 -94 -2 -18.6666564941 -1 -18 0 -17.3333435059 rrcurveto
          0 -90 23.6666717529 -70.1666564941 47.3333282471 -50.3333435059 47.3333282471 -50.3333282471 61.6666717529 -25.1666717529 76 0 44 0 50 20 56 40 rrcurveto
          -280 235 rmoveto
          0 64.6666564941 16.3333282471 60.6666870117 32.6666717529 56.6666564941 38 66 49 33 60 0 44 0 35 -20 26 -40 23.3333435059 -37.3333435059 11.6666564941 -47.3333129883 0 -57.3333435059 0 -13.3333435059 -0.666656494141 -13.3333129883 -1.33334350586 -13.3333435059 -6.66665649414 -62.6666717529 -12 -43.3333282471 -17.3333435059 -24 rrcurveto
          -63 62 -87 -83 70 -63 rlineto
          -26 -19.3333435059 -27 -9.66665649414 -28 0 -41.3333282471 0 -33.6666717529 20.3333435059 -26 40.6666564941 -24 38.6666717529 -12 47.6666564941 0 56.6666717529 rrcurveto
          endchar
        </CharString>
        <CharString name="R">
          47 195 263 rmoveto
          36 -71.3333282471 24.6666717529 -47.6666717529 13.3333282471 -24 29.3333435059 -50.6666564941 30.6666564941 -43.6666717529 32 -36.6666717529 rrcurveto
          149 27 rlineto
          -89.3333435059 100 -67 86.6666717529 -44.6666564941 73.3333282471 36.6666564941 11.3333435059 31.6666870117 20.6666564941 26.6666564941 30 30 34 17.6666564941 40 5.33334350586 46 1.33334350586 10.6666564941 0.666656494141 10.3333435059 0 10 0 102.666687012 -56.3333435059 51.6666259766 -112.666656494 0.666687011719 -23.3333435059 0 -29.6666564941 -0.333312988281 -36 -0.666687011719 rrcurveto
          -50.6666717529 -1.33331298828 -34.6666717529 -0.666687011719 -18.6666564941 0 rrcurveto
          -67 -641 116 0 27 263 rlineto
          33 306 rmoveto
          54 2 rlineto
          37.3333435059 1.33331298828 25.3333129883 -13.6666259766 13.3333435059 -28.6666870117 8.66665649414 -19.3333435059 3 -23.6666564941 -2.66665649414 -28 -8.66665649414 -84 -41 -42 -73.3333435059 0 rrcurveto
          -41 hlineto
          endchar
        </CharString>
        <CharString name="S">
          -21 -2 82 rmoveto
          -105 callsubr
          endchar
        </CharString>
        <CharString name="Scaron">
          17 -2 82 rmoveto
          -105 callsubr
          413 716 rmoveto
          -93 callsubr
          endchar
        </CharString>
        <CharString name="T">
          61 298 hmoveto
          59 558 172 0 9 81 -473 0 -9 -81 182 0 -59 -558 rlineto
          endchar
        </CharString>
        <CharString name="Thorn">
          68 162 180 rmoveto
          49 -31.5 rlineto
          16.6666717529 -10.3333282471 17 -5.16667175293 17.3333282471 0 64 0 52.6666564941 20.6666717529 41.3333435059 41.3333282471 48 47.3333282471 28.6666564941 70.6666717529 9.33334350586 94 0.666656494141 12 0.333343505859 12 0 12 0 64.6666564941 -15 53.6666564941 -30 42.6666870117 -34.6666564941 48.6666870117 -48.3333435059 24.3333129883 -62 0 rrcurveto
          -25.3333435059 0 -36.3333282471 -19.3333129883 -47.3333282471 -38.6666870117 rrcurveto
          8 81 -114 0 -84 -808 114 0 rlineto
          64 618 rmoveto
          26.6666717529 44 31 22 35.3333282471 0 34.6666564941 0 26 -15 17.3333435059 -30 15.3333435059 -26 7.66665649414 -34 0 -42 0 -48 -9 -43 -18 -38 -22.6666564941 -49.3333282471 -32 -24.6666717529 -41.3333435059 0 -18.6666717529 0 -18.3333282471 5.33332824707 -18 10.6666717529 rrcurveto
          -18 10.6666717529 -13.3333282471 12.6666717529 -8.66667175293 14.6666564941 rrcurveto
          endchar
        </CharString>
        <CharString name="U">
          136 263 -17 rmoveto
          64.6666564941 0 57.6666870117 19.3333282471 50.6666564941 38.6666717529 60.6666564941 46 34.6666564941 64.6666717529 8.66668701172 83.3333282471 rrcurveto
          43 405 -119 0 -43 -405 rlineto
          -5.33334350586 -52.6666717529 -18 -41.6666564941 -30.6666564941 -30.6666717529 -25.3333435059 -26 -27.3333129883 -13 -29.3333435059 0 -27.3333435059 0 -24.6666564941 10.6666564941 -22 21.3333435059 -25.3333282471 26 -12.6666717529 35.6666717529 0 45.3333282471 0 8 0.33332824707 8.33332824707 0.66667175293 8.66667175293 rrcurveto
          43 405 -119 0 -43 -405 rlineto
          -1.33332824707 -12.6666717529 -0.66667175293 -12.6666564941 0 -12.6666717529 0 -70.6666564941 22.3333435059 -54.6666870117 44.6666564941 -38.6666564941 38 -33.3333282471 47.6666717529 -16.6666717529 57.3333282471 0 rrcurveto
          endchar
        </CharString>
        <CharString name="Uacute">
          96 238 -17 rmoveto
          62.6666564941 0 54.3333435059 19.3333282471 46 38.6666717529 53.3333435059 45.3333435059 31.3333129883 64.6666564941 9.33334350586 84 rrcurveto
          42 405 -119 0 -42 -405 rlineto
          -6 -52.6666717529 -16 -40 -26 -27.3333282471 -22 -22.6666564941 -25.6666564941 -11.3333435059 -29.3333435059 0 -56 0 -28 39 0 78 0 12 0.66667175293 12.3333282471 1.33332824707 12.6666717529 rrcurveto
          42 405 -119 0 -42 -405 rlineto
          -2 -15.3333282471 -1 -14.6666717529 0 -14 0 -69.3333435059 19.3333435059 -53 38.6666564941 -36.6666564941 33.3333282471 -32.6666717529 44.3333435059 -16.3333282471 55.3333282471 0 rrcurveto
          -56 763 rmoveto
          56 -72 223 83 -54 78 rlineto
          endchar
        </CharString>
        <CharString name="Ucircumflex">
          96 237 -17 rmoveto
          -81 callsubr
          -66 688 rmoveto
          -86 callsubr
          endchar
        </CharString>
        <CharString name="Udieresis">
          46 239 -17 rmoveto
          62 0 54 19.3333282471 46 38.6666717529 54 45.3333435059 31.6666564941 64.6666564941 9.33334350586 84 rrcurveto
          42 405 -119 0 -42 -405 rlineto
          -6 -52.6666717529 -16 -40 -26 -27.3333282471 -22.6666564941 -22.6666564941 -26 -11.3333435059 -29.3333435059 0 -56 0 -28 39 0 78 0 12 1 12.3333282471 2 12.6666717529 rrcurveto
          42 405 -119 0 -42 -405 rlineto
          -2 -15.3333282471 -1 -14.6666717529 0 -14 0 -69.3333435059 19 -53 38 -36.6666564941 34 -32.6666717529 44.6666717529 -16.3333282471 55.3333282471 0 rrcurveto
          113 765 rmoveto
          -1.33334350586 -18.6666870117 4 -16 9.33334350586 -13.3333129883 11.3333435059 -16 17 -8 22.6666564941 0 22 0 18.3333435059 8 14.6666564941 16 13.3333435059 14 7.33331298828 16 1.33334350586 18 2 17.3333129883 -4 15.6666870117 -10 14 -11.3333435059 16.6666870117 -16.6666564941 8.33331298828 -22 0 rrcurveto
          -22.6666564941 0 -18.6666870117 -8.33331298828 -14.6666564941 -16.6666870117 -12.6666564941 -14 -7.33334350586 -15.6666870117 -2 -17.3333129883 rrcurveto
          -209 hmoveto
          -2 -18.6666870117 4 -16 10 -13.3333129883 10.6666717529 -16 17 -8 23.3333282471 0 21.3333282471 0 18 8 14.6666717529 16 13.3333435059 14 7.33331298828 16 1.33334350586 18 2 17.3333129883 -3.66665649414 15.6666870117 -9.33334350586 14 -12 16.6666870117 -16.6666717529 8.33331298828 -21.3333282471 0 rrcurveto
          -22.6666717529 0 -18.6666564941 -8.33331298828 -14.6666717529 -16.6666870117 -12.6666717529 -13.3333129883 -7.33332824707 -15.6666870117 -2 -18 rrcurveto
          endchar
        </CharString>
        <CharString name="Ugrave">
          96 238 -17 rmoveto
          -81 callsubr
          157 703 rmoveto
          -88 callsubr
          endchar
        </CharString>
        <CharString name="V">
          67 192 -10 rmoveto
          87 0 287 635 -100 33 -194 -471 -105 470 -127 -31 rlineto
          endchar
        </CharString>
        <CharString name="W">
          314 495 -6 rmoveto
          78 0 241 627 -97 28 -150 -440 -65 427 -103 0 -155 -428 -66 440 -135 -26 113 -628 88 0 171 402 rlineto
          endchar
        </CharString>
        <CharString name="X">
          77 267 244 rmoveto
          119 -269 129 35 -180 319 207 291 -89 44 -160 -257 -104 255 -120 -41 146 -304 -221 -307 107 -40 rlineto
          endchar
        </CharString>
        <CharString name="Y">
          28 276 hmoveto
          28 271 218 350 -89 33 -165 -283 -100 283 -126 -33 144 -350 -28 -271 rlineto
          endchar
        </CharString>
        <CharString name="Yacute">
          28 275 hmoveto
          28 271 207 350 -103 33 -150 -279 -94 279 -113 -33 134 -350 -28 -271 rlineto
          13 696 rmoveto
          54 -72 223 83 -54 78 rlineto
          endchar
        </CharString>
        <CharString name="Ydieresis">
          7 272 hmoveto
          29 271 207 350 -103 33 -150 -279 -94 279 -113 -33 134 -350 -29 -271 rlineto
          189 758 rmoveto
          -2 -18.6666870117 3.66665649414 -16 9.33334350586 -13.3333129883 11.3333435059 -16 17 -8 22.6666564941 0 22 0 18.6666564941 8 15.3333435059 16 12.6666564941 14 7.33334350586 16 2 18 2 17.3333129883 -4 15.6666870117 -10 14 -12 16.6666870117 -16.6666564941 8.33331298828 -21.3333435059 0 rrcurveto
          -23.3333435059 0 -19 -8.33331298828 -14.6666564941 -16.6666870117 -12 -13.3333129883 -7 -15.6666870117 -2 -18 rrcurveto
          -210 hmoveto
          -2 -18.6666870117 4 -16 10 -13.3333129883 11.3333282471 -16 16.6666717529 -8 22 0 22.6666717529 0 18.6666564941 8 14.6666717529 16 12.6666564941 14 7.33334350586 16 2 18 2 17.3333129883 -4 15.6666870117 -10 14 -11.3333282471 16.6666870117 -16.6666717529 8.33331298828 -22 0 rrcurveto
          -23.3333282471 0 -19 -8.33331298828 -14.6666717529 -16.6666870117 -12 -13.3333129883 -7 -15.6666870117 -2 -18 rrcurveto
          endchar
        </CharString>
        <CharString name="Z">
          69 455 99 rmoveto
          -284 0 348 456 -14 84 -403 0 -10 -91 274 2 -357 -476 18 -74 417 0 rlineto
          endchar
        </CharString>
        <CharString name="Zcaron">
          69 448 99 rmoveto
          -274 0 326 459 -2 81 -392 0 -10 -91 263 2 -327 -464 0 -86 406 0 rlineto
          73 865 rmoveto
          -91 callsubr
          endchar
        </CharString>
        <CharString name="a">
          16 296 223 rmoveto
          -104 callsubr
          -7 -169 rmoveto
          -103 callsubr
          endchar
        </CharString>
        <CharString name="aacute">
          16 155 626 rmoveto
          -84 callsubr
          -83 -492 rmoveto
          -104 callsubr
          -7 -169 rmoveto
          -103 callsubr
          endchar
        </CharString>
        <CharString name="acircumflex">
          16 133 521 rmoveto
          -86 callsubr
          154 -386 rmoveto
          -104 callsubr
          -7 -169 rmoveto
          -103 callsubr
          endchar
        </CharString>
        <CharString name="acute">
          -146 46 626 rmoveto
          26 -72 222 83 -24 78 rlineto
          endchar
        </CharString>
        <CharString name="adieresis">
          16 313 598 rmoveto
          -1.33334350586 -18.6666870117 4 -16 9.33334350586 -13.3333129883 10.6666564941 -16 17 -8 23.3333435059 0 22 0 18.3333435059 8 14.6666564941 16 13.3333435059 14 7.33331298828 16 1.33334350586 18 2 17.3333129883 -4 15.6666870117 -10 14 -12 16.6666870117 -16.6666564941 8.33331298828 -21.3333435059 0 rrcurveto
          -22.6666564941 0 -18.6666870117 -8.33331298828 -14.6666564941 -16.6666870117 -12.6666564941 -13.3333129883 -7.33334350586 -15.6666870117 -2 -18 rrcurveto
          -210 hmoveto
          -1.33334350586 -18.6666870117 4 -16 9.33334350586 -13.3333129883 11.3333435059 -16 16.9999847412 -8 22.6666717529 0 22 0 18.3333282471 8 14.6666717529 16 13.3333282471 14 7.33334350586 16 1.33332824707 18 2 17.3333129883 -4 15.6666870117 -10 14 -11.3333282471 16.6666870117 -16.6666717529 8.33331298828 -22 0 rrcurveto
          -22.6666717529 0 -18.6666564941 -8.33331298828 -14.6666717529 -16.6666870117 -12.6666564941 -13.3333129883 -7.33334350586 -15.6666870117 -2 -18 rrcurveto
          193 -375 rmoveto
          -104 callsubr
          -7 -169 rmoveto
          -103 callsubr
          endchar
        </CharString>
        <CharString name="ae">
          300 560 429 rmoveto
          43.3333129883 21.6666870117 -26 -52 hvcurveto
          0 -8 -0.666687011719 -8.33334350586 -1.33331298828 -8.66665649414 rrcurveto
          -1 -188 vlineto
          14.6666564941 38 14.3333435059 25.6666564941 14 13.3333435059 18.6666564941 18 27.3333435059 9 36 0 rrcurveto
          -306 -430 rmoveto
          25.3333435059 8.66667175293 31.6666564941 19.6666564941 38 30.6666717529 36 -46.6666717529 56 -23.3333282471 76 0 69.3333129883 0 61 29 52.6666870117 58 rrcurveto
          -47 71 rlineto
          -44.6666870117 -52 -40.3333129883 -26 -36 0 -72.6666564941 0 -36.3333435059 44.6666564941 0 89.3333435059 0 12 0.666656494141 12.3333282471 1.33334350586 12.6666717529 rrcurveto
          300 0 7 65 rlineto
          0.666687011719 10 0.333312988281 10 0 10 0 53.3333435059 -14.6666870117 42.1666564941 -29.3333129883 31 -29.3333129883 31 -38.3333740234 15.5 -47.3333129883 0 -66.6666564941 0 -56.6666870117 -20.3333435059 -46.6666564941 -40.6666564941 -28.6666564941 44 -44.3333435059 22 -60 0 -21.3333282471 0 -30.6666717529 -8.33334350586 -40 -16.6666564941 rrcurveto
          -42.6666717529 -18.6666564941 -36.3333282471 -21.6666870117 -30 -24.6666564941 rrcurveto
          53 -81 rlineto
          60.6666717529 45.3333435059 45.6666564941 22.6666564941 30.6666717529 0 16.6666564941 0 13.8333435059 -5 11 -10 11 -10 4.83334350586 -12 -1.33334350586 -14 rrcurveto
          -5 -39 rlineto
          -32.6666564941 -4.66665649414 -29.6666717529 -5.33334350586 -26.6666717529 -6 -62.6666717529 -14.6666564941 -42.9999847412 -15.3333435059 -23.3333435059 -16 -36.6666717529 -25.3333282471 -21.3333282471 -40.3333435059 -6 -55.3333282471 -0.66667175293 -6.66667175293 -0.33332824707 -6.66667175293 0 -6.66665649414 0 -41.3333435059 13.3333282471 -32.6666564941 26.6666717529 -24 24.6666564941 -22.6666717529 31.3333435059 -11.3333282471 38 0 rrcurveto
          34 0 30.6666717529 5 27.3333282471 10 rrcurveto
          -8 206 rmoveto
          54 9 -7 -74 rlineto
          -2 -19.3333435059 -15 -15.6666564941 -28 -12 -21.3333282471 -8.66665649414 -21.6666717529 -4.33334350586 -22 0 -36 0 -16 18 4 36 3.33332824707 26 13.6666717529 18.3333282471 24 10.6666717529 10 4 23.3333282471 5.33332824707 36.6666717529 6.66667175293 rrcurveto
          endchar
        </CharString>
        <CharString name="agrave">
          16 403 626 rmoveto
          -71 -72 -205 83 70 78 rlineto
          99 -492 rmoveto
          -104 callsubr
          -7 -169 rmoveto
          -103 callsubr
          endchar
        </CharString>
        <CharString name="ampersand">
          80 116 186 rmoveto
          6 52 16.6666717529 35.3333435059 27.3333282471 18.6666564941 18 -46.6666717529 41 -57.3333282471 64 -68 -31.3333435059 -30 -29.3333282471 -15 -27.3333282471 0 -30.6666717529 0 -23 12.6666564941 -15.3333282471 25.3333435059 -13.3333435059 21.3333282471 -5.33331298828 24.3333435059 2.66665649414 27.3333282471 rrcurveto
          235 -126 rmoveto
          36 -32 28.6666564941 -20 21.3333435059 -8 rrcurveto
          73 87 rlineto
          -45.3333435059 26 -29 19.3333282471 -12.6666564941 12.6666717529 16 38 9.66665649414 36 3.33334350586 34 2 14.6666564941 0 25.6666870117 -2 36.6666564941 rrcurveto
          -90 -16 rlineto
          3.33334350586 -26 0.333312988281 -24 -2.66665649414 -22 -0.666656494141 -9.33332824707 -2.33334350586 -9.66667175293 -4 -10 -26 34 -29 43.6666564941 -32 53.3333435059 19.3333435059 5.33334350586 26.6666564941 2.66665649414 34 0 rrcurveto
          -8 80 rlineto
          -45.3333435059 -1.33334350586 -37 -6 -28.6666564941 -10.6666564941 -9.33332824707 31.3333435059 -3.66667175293 25 2 18.6666564941 4.66667175293 42 16 21 27.3333282471 0 42 0 32 -15.3333129883 22 -30.6666870117 rrcurveto
          63 62 rlineto
          -21.3333435059 28.6666870117 -21.3333129883 19.6666259766 -21.3333435059 10.6666870117 -18 8.66668701172 -23 4.33331298828 -28 0 -46 0 -41 -15.6666870117 -36 -31.3333129883 -36 -31.3333129883 -20.3333435059 -39.3333740234 -4.66665649414 -47.3333129883 -4 -38 7 -37.3333435059 18 -36.6666564941 -36 -22.6666564941 -28.6666564941 -29.6666870117 -21.3333435059 -36.6666564941 rrcurveto
          -23.3333282471 -38 -11.6666717529 -39.3333282471 0 -40.6666717529 0 -47.3333435059 15.3333282471 -38.6666564941 30.6666717529 -30 33.3333435059 -32.6666717529 46.9999847412 -16.3333282471 60.6666717529 0 29.3333282471 0 29.6666717529 6.83332824707 30 13.6666717529 30 13.6666717529 22 16.1666564941 14 18.6666717529 rrcurveto
          endchar
        </CharString>
        <CharString name="apple">
          74 302 453 rmoveto
          36 -33 29 33 36 28 -36 34 -29 -34 -36 hlineto
          -145 -294 rmoveto
          35 -34 30 34 35 28 -35 33 -30 -33 -35 hlineto
          65 61 rmoveto
          -23 18 23 vlineto
          1 15 rmoveto
          -10 14 10 vlineto
          1 18 rmoveto
          -13 45 13 vlineto
          -64 48 rmoveto
          -41 15 41 vlineto
          83 35 rmoveto
          23 -17 -23 vlineto
          -1 -15 rmoveto
          10 -14 -10 vlineto
          -2 -18 rmoveto
          13 -45 -13 vlineto
          64 -48 rmoveto
          42 -14 -42 vlineto
          endchar
        </CharString>
        <CharString name="approxequal">
          61 267 285 rmoveto
          20.6666564941 -18.6666564941 19.6666870117 -9.33334350586 18.6666564941 0 30 0 32.6666564941 16.6666564941 35.3333435059 33.3333435059 rrcurveto
          -28 95 -24 -24 rlineto
          -16 -16 -9.66665649414 -8 -3.33334350586 0 -4 0 -11.8333435059 7.16665649414 -19.6666564941 14.3333435059 -19.6666564941 14.3333435059 -20.8333435059 7.16665649414 -22 0 -33.3333282471 0 -36 -20.3333435059 -38.6666717529 -40.6666564941 rrcurveto
          27 -98 rlineto
          23.3333282471 30.6666564941 14 17.6666870117 4.66667175293 4.66665649414 10 10 9 5 8 0 6.66667175293 0 11.3333282471 -7 16 -14 rrcurveto
          -19 -178 rmoveto
          22 -18.6666564941 19.6666564941 -9.33334350586 17.3333435059 0 30 0 32.6666564941 16.6666564941 35.3333435059 33.3333435059 rrcurveto
          -28 95 -24 -24 rlineto
          -16 -15.3333282471 -9.66665649414 -7.66667175293 -3.33334350586 0 -4 0 -11.8333435059 7 -19.6666564941 14 -19.6666564941 14 -20.5000152588 7 -21.3333282471 0 -34 0 -36.3333282471 -20.3333282471 -38.6666717529 -40.6666717529 rrcurveto
          27 -97 rlineto
          23.3333282471 29.3333435059 14.3333435059 17.3333129883 5.33332824707 5.33334350586 9.33332824707 10 8.66667175293 5 8 0 6 0 11.3333282471 -7 16.6666717529 -14 rrcurveto
          endchar
        </CharString>
        <CharString name="aring">
          16 261 566 rmoveto
          27.3333435059 0 23 8.16668701172 18.6666564941 16.3333129883 18.6666564941 16.3333129883 10.6666870117 20.8333740234 2.66665649414 25.3333129883 2.66665649414 24.6666870117 -6.33331298828 20.5 -15.3333435059 16.3333129883 -15.3333435059 16.3333129883 -21 8.16668701172 -26.6666564941 0 -26.6666717529 0 -22.5 -8.16668701172 -18.3333282471 -16.3333129883 -18.3333282471 -16.3333129883 -10.5 -20.5 -2.66667175293 -24.6666870117 rrcurveto
          -2.66667175293 -25.3333129883 6 -20.8333740234 14.6666717529 -16.3333129883 14.6666717529 -16.3333129883 20.6666564941 -8.16668701172 26.6666717529 0 rrcurveto
          14 130 rmoveto
          22 0 9.66665649414 -14.3333129883 -2.66665649414 -28.6666870117 -3.33334350586 -29.3333129883 -12.6666564941 -14.6666870117 -22 0 -21.3333282471 0 -9 14.6666870117 3.33332824707 29.3333129883 2.66667175293 28.6666870117 12 14.3333129883 21.3333282471 0 rrcurveto
          21 -473 rmoveto
          -104 callsubr
          -7 -169 rmoveto
          -103 callsubr
          endchar
        </CharString>
        <CharString name="asciicircum">
          61 152 443 rmoveto
          115 119 92 -119 68 72 -147 171 -180 -171 rlineto
          endchar
        </CharString>
        <CharString name="asciitilde">
          -80 206 403 rmoveto
          22 -16 19.6666717529 -8 17.3333282471 0 26 0 29.3333435059 12.6666564941 32.6666564941 25.3333435059 rrcurveto
          -16 87 rlineto
          -8 -7.33334350586 -7.66665649414 -7.66665649414 -7.33334350586 -8 -14.6666564941 -14 -11 -6.66665649414 -7.33334350586 0.666656494141 -3.33334350586 0 -11.6666564941 6 -20 12 -20 12 -21 6 -22 0 -34 0 -33.3333435059 -14.6666564941 -32.6666564941 -29.3333435059 rrcurveto
          19 -93 rlineto
          23.3333435059 26 14.6666564941 15.6666564941 6 5.33334350586 9.33332824707 8.66665649414 9 4.33334350586 8.66667175293 0 6.66667175293 0 11 -5.66665649414 15.3333282471 -11.3333435059 rrcurveto
          endchar
        </CharString>
        <CharString name="asterisk">
          -200 162 500 rmoveto
          37 -38 49 70 -55 38 61 37 -33 71 -45 -38 9 52 -75 2 -4 -56 -40 39 -47 -70 55 -38 -64 -37 35 -70 46 38 rlineto
          -8 -54 75 0 rlineto
          endchar
        </CharString>
        <CharString name="at">
          535 626 470 rmoveto
          -42 34 rlineto
          -16.6666870117 10.6666870117 -18.3333129883 5.33331298828 -20 0 -82.6666564941 0 -68.6666870117 -36.3333435059 -54.6666564941 -72.6666564941 -49.3333435059 -64.6666564941 -24.6666564941 -70.6666870117 0 -76.6666564941 0 -146 58.3333435059 -73 116.666656494 0 56.6666564941 0 51.0000305176 32 45.3333129883 64 21.3333129883 -64.6666717529 30.6666870117 -32.3333282471 40 0 rrcurveto
          72 0 64.8333129883 30.1666717529 57.6666870117 60.3333282471 57.6666870117 60.3333282471 28.8333129883 66.5 0 72.6666717529 0 128 -39.8333129883 103.5 -79.6666870117 79 -79.6666870117 79 -105.833312988 39.5 -132 0 -132.666656494 0 -113.166687012 -45 -93.6666564941 -90 -93.6666564941 -90 -46.8333435059 -108.333343506 0 -126.666656494 rrcurveto
          0 -136 38 -112.666671753 76 -89.3333282471 81.3333282471 -94.6666717529 108.666671753 -47.3333282471 136 0 96 0 74 12.3333282471 52 24.6666717529 34.6666870117 16 50.6666259766 38.3333282471 66.6666870117 60.6666717529 rrcurveto
          -60 69 rlineto
          -54.6666870117 -52.6666564941 -48 -35.6666870117 -41.3333129883 -18.6666564941 -44 -19.3333282471 -56.6666870117 -9.66667175293 -69.3333129883 0 -96 0 -78.3333435059 40.6666564941 -60.6666564941 81.3333435059 -57.3333282471 75.3333282471 -28.6666717529 91 0 106.666671753 0 100.666656494 34.6666717529 88.6666870117 69.3333282471 76.6666564941 71.3333435059 79.3333129883 85.6666564941 39.6666870117 100 0 rrcurveto
          100 0 81.3333129883 -33.5 62.6666870117 -67 62.6666870117 -67 31.3333129883 -84.5 0 -102 0 -48.6666717529 -15 -46.3333282471 -30 -44 -30 -44 -29 -22 -28 0 -26 0 -15 5.66665649414 -4 11.3333435059 rrcurveto
          -8 48 33 191 rlineto
          12 72 8.33331298828 63.3333435059 4.66668701172 54.6666564941 rrcurveto
          -90 hlineto
          -108 -74 rmoveto
          13.3333129883 0 16.3333740234 -5.33334350586 19.3333129883 -10.6666564941 19.3333129883 -10.6666564941 14 -11 8.66668701172 -11.3333435059 rrcurveto
          -34 -188 rlineto
          -4.66668701172 -27.3333282471 -16.8333129883 -28.3333435059 -29 -29.3333282471 -29 -29.3333435059 -24.5 -14.6666564941 -20 0 -37.3333435059 0 -25 16.3333435059 -12.6666564941 32.6666564941 -8 19.3333282471 -4 31 0 42.6666717529 0 78 20 59.3333435059 40 40.6666564941 29.3333435059 30.6666564941 31.3333129883 15.3333435059 33.3333435059 0 rrcurveto
          endchar
        </CharString>
        <CharString name="atilde">
          16 253 579 rmoveto
          28 -20 24.3333435059 -10 20.6666564941 0 9.33334350586 0 13.6666564941 3.33331298828 18 6.66668701172 20.6666564941 8 16.3333435059 9.33331298828 12 10.6666870117 rrcurveto
          -30 76 rlineto
          -27.3333435059 -20.6666870117 -18 -10.3333129883 -8.66665649414 0 -6.66665649414 0 -15.5 9 -24.3333435059 18 -24.3333435059 18 -22.1666564941 8.66668701172 -20 -0.666687011719 -44 -1.33331298828 -37 -17.3333740234 -30 -33.3333129883 rrcurveto
          32 -78 rlineto
          30.6666717529 31.3333129883 23.6666564941 15.6666870117 16.6666717529 0 6.66667175293 0 14 -7.66668701172 21.3333282471 -15.3333129883 rrcurveto
          43 -356 rmoveto
          -104 callsubr
          -7 -169 rmoveto
          -103 callsubr
          endchar
        </CharString>
        <CharString name="b">
          40 132 46 rmoveto
          52 -37.3333282471 37.6666717529 -18.6666717529 23.3333282471 0 130 0 75.6666564941 98.3333435059 21.3333435059 196.666656494 1.33334350586 11.3333435059 0.666656494141 11.6666564941 0 12 0 54 -11.6666564941 45.3333435059 -23.3333435059 36.6666564941 -26.6666564941 41.3333435059 -37 20.6666564941 -47.3333435059 0 -20.6666564941 0 -25.3333435059 -8 -30 -16 rrcurveto
          -32 -17.3333435059 -23.6666717529 -20 -15.3333282471 -22.6666564941 rrcurveto
          28 266 -108 0 -73 -701 91 0 rlineto
          52 336 rmoveto
          37.3333282471 62.6666564941 37.3333435059 31.3333435059 37.3333282471 0 50 0 25 -38 0 -76 0 -14 -1 -14.6666564941 -2 -15.3333435059 -6 -56 -8.33334350586 -41.3333282471 -10.6666564941 -26.6666717529 -18 -44.6666564941 -28 -22.3333435059 -38 0 -16 0 -17.8333282471 5 -19.6666717529 10 rrcurveto
          -19.6666717529 10 -14.5 11 -9.33332824707 12 rrcurveto
          endchar
        </CharString>
        <CharString name="backslash">
          -90 50 683 rmoveto
          189 -856 111 24 -189 856 rlineto
          endchar
        </CharString>
        <CharString name="bar">
          -246 113 686 rmoveto
          -96 -906 128 0 96 906 rlineto
          endchar
        </CharString>
        <CharString name="braceleft">
          61 375 725 rmoveto
          8.66665649414 0 20.6666870117 -6 32.6666564941 -12 rrcurveto
          32 112 rlineto
          -39.3333435059 10 -28.3333129883 5 -17.3333435059 0 -105.333343506 0 -59.9999847412 -71 -14.6666717529 -142 -1.33332824707 -12.6666870117 -1.33334350586 -21 -1.33332824707 -29.3333129883 -1.33332824707 -29.3333129883 -1.66667175293 -22.6666870117 -2 -16 -2.66667175293 -25.3333435059 -9 -23.3333129883 -15.3333282471 -21.3333435059 -6.66667175293 -8.66665649414 -16.6666564941 -18.3333435059 -26.6666717529 -28 rrcurveto
          -7 -55 rlineto
          39.3333282471 -38.6666564941 17 -44.3333435059 -5.33332824707 -50 -1.33332824707 -15.3333282471 -2.83334350586 -20.8333435059 -4.33332824707 -26.3333282471 -4.33332824707 -26.3333435059 -2.5 -17.8333129883 -0.66667175293 -9.33334350586 -4.66667175293 -45.3333282471 -2.33332824707 -33.6666717529 0 -22 0 -100 39.6666717529 -52.3333282471 79.3333282471 -4.66667175293 36.6666564941 -2 34.6666870117 4.33332824707 32.6666564941 10.6666717529 rrcurveto
          -17 119 rlineto
          -20 -16.6666564941 -24.3333435059 -8.33334350586 -28.6666564941 0 -12.6666564941 0 -7.33334350586 5 -2 10 -1.33332824707 6.66665649414 1 21.6666717529 3.33332824707 36.6666717529 2 14 4.16665649414 25.8333282471 6.33334350586 37.6666717529 6.33334350586 37.6666564941 3.83331298828 26.1666717529 1.33334350586 14.6666717529 0.666656494141 8 0.333343505859 8 0 8 rrcurveto
          0 64.6666717529 -21.3333435059 53.9999847412 -42.6666564941 43.3333435059 rrcurveto
          1 7 rlineto
          54 48.6666564941 29.6666564941 49.3333435059 5.33334350586 50 0.666656494141 9.33334350586 1 19.3333435059 1.33334350586 29.3333129883 1.33334350586 29.3333129883 1.66665649414 23 2 16.6666870117 5.33334350586 48 6.5 30.5 7.66665649414 13 7.66665649414 13 14.5 6.5 21.3333435059 0 rrcurveto
          endchar
        </CharString>
        <CharString name="braceright">
          61 342 61 rmoveto
          4 53.5 rlineto
          2 26.3333282471 1.66665649414 20.8333435059 1.33334350586 15.3333282471 5.33334350586 50 26.3333129883 44.3333435059 47.3333435059 38.6666564941 rrcurveto
          5 55 rlineto
          -21.3333435059 28 -13 18.3333435059 -4.66665649414 8.66665649414 -10.6666564941 21.3333435059 -4 23.3333129883 2.66665649414 25.3333435059 2 16 3.33334350586 22.6666870117 4.66665649414 29.3333129883 4.66665649414 29.3333129883 3 21 1.33334350586 12.6666870117 1.33334350586 16.6666870117 0.666656494141 15.6666259766 0 14.6666870117 0 110.666687012 -46 55.3333129883 -92 0 rrcurveto
          -17.3333282471 0 -29 -5 -40.6666717529 -10 rrcurveto
          8 -112 rlineto
          35.3333282471 12 22 6 8.66667175293 0 16 0 11.1666564941 -3.33331298828 6.33334350586 -6.66668701172 6.33334350586 -6.66668701172 3.16665649414 -14 0 -21.3333129883 0 -24.6666870117 -3 -31 -6 -37.3333129883 -8 -52.6666870117 -4.33334350586 -30.9999694824 -0.666656494141 -9.33334350586 -5.33334350586 -50 19 -49.3333435059 43.3333435059 -48.6666564941 rrcurveto
          -1 -7 rlineto
          -23.3333435059 -19.3333435059 -20.6666564941 -24.6666564941 -18 -30 -22 -36.6666717529 -13 -37.3333282471 -4 -38 -1.33332824707 -14.6666717529 -1.5 -26.1666717529 -1.66667175293 -37.6666564941 -1.66667175293 -37.6666717529 -1.83332824707 -25.8333282471 -2 -14 rrcurveto
          -4 -39 rlineto
          -2 -16 -2.83332824707 -10.8333435059 -3.66667175293 -5.66665649414 -3.66667175293 -5.66665649414 -7.5 -2.83334350586 -11.3333282471 0 -28.6666717529 0 -22.6666564941 8.33334350586 -16.6666717529 16.6666564941 rrcurveto
          -42 -119 rlineto
          30 -10.6666717529 34 -4.33332824707 38 2 61.3333282471 3.33332824707 43.3333282471 30 25.3333435059 56.6666717529 14.6666564941 33.3333435059 11.6666870117 55.9999847412 8.66665649414 78.6666717529 rrcurveto
          endchar
        </CharString>
        <CharString name="bracketleft">
          -250 117 740 rmoveto
          -90 -854 163 0 11 105 -65 0 70 662 58 0 9 87 rlineto
          endchar
        </CharString>
        <CharString name="bracketright">
          -209 16 -9 rmoveto
          -11 -105 160 0 90 854 -152 0 -9 -87 57 0 -70 -662 rlineto
          endchar
        </CharString>
        <CharString name="breve">
          -130 31 642 rmoveto
          18 -69.3333129883 44.6666564941 -34.6666870117 71.3333435059 0 67.3333282471 0 49.3333282471 34.6666870117 31.3333435059 69.3333129883 rrcurveto
          -74 10 rlineto
          -18 -32 -22.6666717529 -16 -27.3333282471 0 -30 0 -21 15.6666870117 -12 31.3333129883 rrcurveto
          endchar
        </CharString>
        <CharString name="brokenbar">
          -293 54 278 rmoveto
          -296 77 296 vlineto
          -77 378 rmoveto
          -296 77 296 vlineto
          endchar
        </CharString>
        <CharString name="bullet">
          -193 129 190 rmoveto
          25.3333282471 0 22.5 9.66667175293 19.6666717529 19.3333282471 19.6666717529 19.3333282471 11.5 24.0000152588 3.33332824707 28.6666564941 3.33332824707 28.6666564941 -6.33332824707 23.8333435059 -16 19 -16 19 -20.3333282471 9.5 -24.6666717529 0 -25.3333435059 0 -22.6666564941 -9.5 -20 -19 -20 -19 -11.6666717529 -23.8333435059 -3.33332824707 -28.6666564941 rrcurveto
          -3.33332824707 -29.3333435059 6.33332824707 -24.1666564941 16 -19 16 -19 20.6666564941 -9.5 25.3333435059 0 rrcurveto
          endchar
        </CharString>
        <CharString name="c">
          4 38 242 rmoveto
          -0.66667175293 -8 -0.33332824707 -9 0 -10 0 -56 12.6666717529 -47.6666564941 25.3333282471 -39.3333435059 35.3333435059 -56 56.9999847412 -28 78.6666717529 0 68 0 61 28 54 56 rrcurveto
          -38 59 rlineto
          -52 -42.6666564941 -45.6666564941 -21.3333435059 -39.3333435059 0 -30.6666717529 0 -24.5 12.6666564941 -18.3333282471 25.3333435059 -18.3333282471 25.3333282471 -9.16667175293 33.6666717529 0 42 0 48.6666717529 10.3333282471 46.9999847412 20.6666717529 45.3333435059 25.3333282471 56 33.6666717529 28 42 0 42 0 41 -17.6666564941 40 -35.3333435059 rrcurveto
          40 69 rlineto
          -58.6666564941 42.6666564941 -48.6666870117 21.3333435059 -38.6666564941 0 -61.3333282471 0.666656494141 -54.6666717529 -20.6666564941 -48 -42 -57.3333435059 -48.6666564941 -33.3333282471 -69 -9.33332824707 -89.3333435059 rrcurveto
          endchar
        </CharString>
        <CharString name="caron">
          -138 326 725 rmoveto
          -93 callsubr
          endchar
        </CharString>
        <CharString name="ccedilla">
          8 363 -132 rmoveto
          2 23.3333435059 -5.66665649414 20 -13.3333435059 16.6666564941 -15.3333435059 19.3333282471 -21.6666564941 9.66667175293 -28 0 -10.6666564941 0 -8.33334350586 -1.33332824707 -6 -2.66667175293 rrcurveto
          6 35 4 0 rlineto
          64 2.66667175293 58 28 52 53.3333282471 rrcurveto
          -39 59 rlineto
          -52 -42.6666564941 -45.3333435059 -21.3333435059 -38.6666564941 0 -30.6666717529 0 -24.5 12.6666564941 -18.3333282471 25.3333435059 -18.3333282471 25.3333282471 -9.16667175293 33.6666717529 0 42 0 48.6666717529 10.3333282471 46.9999847412 20.6666717529 45.3333435059 25.3333282471 56 33.6666717529 28 42 0 42 0 40.6666564941 -17.6666564941 39.3333435059 -35.3333435059 rrcurveto
          41 69 rlineto
          -58.6666564941 42.6666564941 -48.6666870117 21.3333435059 -38.6666564941 0 -62 0.666656494141 -55 -20.6666564941 -48 -42 -56.6666564941 -48.6666564941 -33.0000152588 -69 -9.33332824707 -89.3333435059 -0.66667175293 -8 -0.33332824707 -9 0 -10 0 -49.3333282471 9.66667175293 -43.0000152588 19.3333282471 -36.6666564941 28 -52 44 -31.3333282471 60 -10.6666717529 rrcurveto
          -4 0 -13 -82 45 -21 rlineto
          14 10 12 5 10 0 22.6666564941 0 9.66668701172 -13 -3.33334350586 -26 -2 -22.6666717529 -13 -11.3333282471 -24 0 -14.6666717529 0 -15.6666564941 10.6666717529 -16.6666717529 21.3333282471 rrcurveto
          -40 -34 rlineto
          11.3333282471 -32 27 -16 42.6666717529 0 30.6666564941 0 24.6666870117 8.66667175293 18.6666564941 17.3333282471 18.6666564941 17.3333282471 10.6666870117 20.3333435059 2.66665649414 23.3333282471 rrcurveto
          -101 120 rmoveto
          -56 4 -14 -82 45 -21 rlineto
          14 10 12 5 10 0 22.6666564941 0 9.66668701172 -13 -3.33334350586 -26 -2 -22.6666717529 -13 -11.3333282471 -24 0 -14.6666717529 0 -15.6666564941 10.6666717529 -16.6666717529 21.3333282471 rrcurveto
          -40 -34 rlineto
          11.3333282471 -32 27 -16 42.6666717529 0 30.6666564941 0 24.6666870117 8.66667175293 18.6666564941 17.3333282471 18.6666564941 17.3333282471 10.6666870117 20.3333435059 2.66665649414 23.3333282471 2 23.3333435059 -5.66665649414 20 -13.3333435059 16.6666564941 -15.3333435059 19.3333282471 -21.6666564941 9.66667175293 -28 0 -10.6666564941 0 -8.33334350586 -1.33332824707 -6 -2.66667175293 rrcurveto
          endchar
        </CharString>
        <CharString name="cedilla">
          -270 5 -176 rmoveto
          14 -42 30.6666717529 -21 47.3333282471 0 30 0 24.3333282471 13 18.6666717529 26 14.6666717529 20.6666717529 8.66665649414 23.3333282471 2.66667175293 26 2 24 -5.33332824707 21 -12.6666717529 18 -14.6666717529 20.6666717529 -21.3333282471 10.3333282471 -28 0 rrcurveto
          -3 0 7 41 -80 -1 -18 -109 55 -17 rlineto
          6 10.6666564941 12.6666564941 5.33334350586 19.3333435059 0 4 0 4.16665649414 -3.83334350586 4.33334350586 -7.66665649414 4.33332824707 -7.66665649414 1.5 -8.16667175293 -1.33332824707 -8.66667175293 -0.66667175293 -6 -3.49998474121 -8.16667175293 -6.33334350586 -10.3333282471 -6.33334350586 -10.3333282471 -5.83331298828 -5.16667175293 -5.33334350586 0 -19.3333435059 0 -18.3333129883 11.6666717529 -17.3333435059 23.3333282471 rrcurveto
          endchar
        </CharString>
        <CharString name="cent">
          4 37 242 rmoveto
          -1.33332824707 -10.6666717529 -0.66667175293 -11.3333282471 0 -12 0 -48.6666717529 9 -41.9999847412 18 -35.3333435059 24 -49.3333282471 39.6666564941 -31 55.3333435059 -12.6666717529 rrcurveto
          -9 -78 118 0 9 79 rlineto
          44 12 43.6666564941 26.3333282471 43.3333435059 40.6666717529 rrcurveto
          -51 71 rlineto
          -31.3333435059 -27.3333435059 -23.3333129883 -18 -15.3333435059 -8.66665649414 -21.3333435059 -12.6666564941 -20.6666564941 -6.33334350586 -20 0 -26 0 -22.3333282471 13.1666564941 -18.6666717529 26.3333435059 -18.6666717529 26.3333282471 -9.33332824707 34.1666717529 0 42 0 46.6666717529 11.3333282471 46.9999847412 22.6666717529 47.3333435059 27.3333282471 57.3333435059 34 28.6666564941 40.6666717529 0 rrcurveto
          19.3333435059 0 17.6666564941 -5.33334350586 16 -10.6666564941 8.66665649414 -5.33334350586 20 -16.3333129883 31.3333435059 -27.3333435059 rrcurveto
          57 76 rlineto
          -36 31.3333435059 -35 19.6666564941 -34 8 rrcurveto
          9 84 -118 0 -9 -85 rlineto
          -51.3333282471 -12.6666564941 -42.3333435059 -26.6666870117 -33.3333282471 -40.6666564941 -39.3333435059 -46.6666564941 -23.6666564941 -61 -8 -75.3333435059 rrcurveto
          endchar
        </CharString>
        <CharString name="circumflex">
          -138 25 521 rmoveto
          -86 callsubr
          endchar
        </CharString>
        <CharString name="colon">
          -231 54 420 rmoveto
          -2.66667175293 -24 6.5 -20.5 15.6666717529 -17 15.6666564941 -17 19.5 -8.5 23.3333435059 0 23.3333282471 0 21.1666717529 8.5 19 17 19 17 10.8333282471 20.5 2.66667175293 24 2.66667175293 24 -6.33334350586 20.3333435059 -15.3333282471 16.6666564941 -15.3333282471 16.6666564941 -19.6666717529 8.33334350586 -24 0 rrcurveto
          -23.3333435059 0 -21.1666564941 -8.33334350586 -19 -16.6666564941 -19 -16.6666564941 -10.8333282471 -20.3333435059 -2.66667175293 -24 rrcurveto
          -36 -343 rmoveto
          -2.66667175293 -24 6.5 -20.3333282471 15.6666717529 -16.6666717529 15.6666717529 -16.6666717529 19.4999847412 -8.33332824707 23.3333435059 0 23.3333435059 0 21.1666564941 8.33332824707 19 16.6666717529 19 16.6666717529 10.8333282471 20.3333282471 2.66667175293 24 2.66667175293 24 -6.33334350586 20.5 -15.3333282471 17 -15.3333282471 17 -19.6666717529 8.5 -24 0 rrcurveto
          -23.3333435059 0 -21.1666564941 -8.5 -19 -17 -19 -17 -10.8333282471 -20.5 -2.66667175293 -24 rrcurveto
          endchar
        </CharString>
        <CharString name="comma">
          -221 97 -107 rmoveto
          -107 callsubr
          endchar
        </CharString>
        <CharString name="copyright">
          321 396 102 rmoveto
          38 0 42.3333435059 12.3333435059 46.6666564941 24.6666564941 rrcurveto
          -25 42 rlineto
          -32.6666564941 -18.6666717529 -34 -9.33332824707 -35.3333435059 0 -34 0 -28.6666564941 14.8333282471 -23.3333435059 29.6666717529 -23.3333435059 29.6666717529 -11.6666564941 37.4999847412 0 45.3333435059 0 40.6666564941 9 36.3333435059 18 32 23.3333435059 40.6666564941 33 20.3333435059 42.6666564941 0 23.3333435059 0 31.3333129883 -12 39.3333435059 -24 rrcurveto
          24 51 rlineto
          -40.6666564941 23.3333129883 -40.3333435059 11.6666870117 -40 0 -58 -0.666687011719 -45.6666564941 -22.6666564941 -33.3333435059 -44.6666564941 -29.3333282471 -39.3333435059 -14.6666717529 -48 0 -56.6666564941 0 -60 14.3333282471 -49.6666717529 28.6666717529 -39.3333282471 32.6666564941 -44.6666564941 45.3333435059 -22.3333435059 58 0 rrcurveto
          -264 214 rmoveto
          0 73.3333435059 26 62.6666564941 52 52 52 52 62.6666564941 26 73.3333435059 0 73.3333435059 0 62.6666564941 -26 52 -52 52 -52 26 -62.6666564941 0 -73.3333435059 0 -73.3333282471 -26 -62.6666717529 -52 -52 -52 -52 -62.6666564941 -26 -73.3333435059 0 rrcurveto
          -73.3333435059 0 -62.6666564941 26 -52 52 -52 52 -26 62.6666717529 0 73.3333282471 rrcurveto
          -65 hmoveto
          -92 callsubr
          endchar
        </CharString>
        <CharString name="currency">
          14 247 349 rmoveto
          162 0 9 88 -162 0 11 98 178 0 11 105 -295 0 -22 -203 -91 0 -9 -87 91 0 -5 -46 -91 0 -8 -78 91 0 rlineto
          -24 -226 292 0 12 110 -175 -1 12 117 162 0 8 78 -162 0 rlineto
          endchar
        </CharString>
        <CharString name="d">
          36 320 -1 rmoveto
          92 0 73 698 -108 0 -24 -235 rlineto
          -29.3333435059 24.6666564941 -19.3333129883 14.6666870117 -9.33334350586 4.66665649414 -17.3333435059 8 -25.6666564941 4 -34 0 -58 0 -48.3333435059 -39 -38.6666564941 -78 -32 -64.6666564941 -16 -65.3333435059 0 -66 0 -60.6666717529 12 -49.9999847412 24 -39.3333435059 28.6666564941 -45.3333282471 41.3333435059 -22.6666717529 54 0 rrcurveto
          15.3333282471 0 22.3333435059 8 29.3333282471 16 rrcurveto
          65 38 rlineto
          -71 380 rmoveto
          21.3333435059 0 19 -10 16.6666564941 -20 6 -6.66665649414 12.3333435059 -19 18.6666564941 -31.3333435059 rrcurveto
          -23 -215 rlineto
          -46 -34.6666564941 -33 -17.3333435059 -20 0 -49.3333282471 0 -24.6666717529 45 0 90 0 16 0.66667175293 16.3333282471 1.33332824707 16.6666717529 12 113.333343506 33.3333282471 56.6666564941 54.6666717529 0 rrcurveto
          endchar
        </CharString>
        <CharString name="dagger">
          -254 135 534 rmoveto
          57 66 -57 55 -64 -55 -48 -66 48 -201 64 hlineto
          endchar
        </CharString>
        <CharString name="daggerdbl">
          -254 141 383 rmoveto
          62 59 -62 80 62 58 -62 75 -77 -75 -60 -58 60 -80 -60 hlineto
          -59 60 -138 77 vlineto
          endchar
        </CharString>
        <CharString name="degree">
          -202 278 582 rmoveto
          4 38.6666870117 -9.83334350586 33 -23.6666564941 27.3333129883 -23.6666717529 27.3333129883 -31.8333282471 13.6666870117 -40 0 -40.6666564941 0 -35.5 -13.6666870117 -30.3333435059 -27.3333129883 -30.3333282471 -27.3333129883 -17.1666717529 -33 -4 -38.6666870117 -4 -38.6666870117 10.3333282471 -32.9999694824 24.6666717529 -27.3333435059 24.6666717529 -27.3333435059 32.3333282471 -13.6666564941 40 0 rrcurveto
          40 0 34.8333282471 13.6666564941 29.6666717529 27.3333435059 29.6666564941 27.3333435059 16.8333435059 32.9999694824 4 38.6666870117 rrcurveto
          -210 hmoveto
          2 20 8.33334350586 16.6666870117 14.6666564941 13.3333129883 14.6666564941 13.3333129883 17.3333435059 6.66668701172 20 0 20 0 15.5 -6.66668701172 11 -13.3333129883 11 -13.3333129883 4.5 -16.6666870117 -2 -20 -2 -20 -8 -16.6666870117 -14 -13.3333129883 -14 -13.3333129883 -16.6666717529 -6.66668701172 -19.3333282471 0 rrcurveto
          -20.6666564941 0 -16.1666870117 6.66668701172 -11.6666564941 13.3333129883 -11.6666564941 13.3333129883 -4.83334350586 16.6666870117 2 20 rrcurveto
          endchar
        </CharString>
        <CharString name="dieresis">
          -169 185 628 rmoveto
          -78 callsubr
          -210 hmoveto
          -2 -18.6666870117 4 -16 10 -13.3333129883 11.3333282471 -16 16.6666717529 -8 22 0 22.6666717529 0 18.6666717529 8 14.6666564941 16 12.6666564941 14 7.33334350586 16 2 18 2 17.3333129883 -4 15.6666870117 -10 14 -11.3333435059 16.6666870117 -16.6666564941 8.33331298828 -22 0 rrcurveto
          -22.6666717529 0 -18.6666564941 -8.33331298828 -14.6666717529 -16.6666870117 -12.6666717529 -14 -7.33332824707 -15.6666870117 -2 -17.3333129883 rrcurveto
          endchar
        </CharString>
        <CharString name="divide">
          21 190 480 rmoveto
          0 -21.3333435059 7 -18.3333129883 14 -15.3333435059 14 -15.3333435059 17 -7.66665649414 20 0 20.6666564941 0 17.3333435059 7.66665649414 14 15.3333435059 14 15.3333435059 7 18.3333129883 0 21.3333435059 0 22 -7 18.6666870117 -14 15.3333129883 -14 15.3333129883 -17.3333435059 7.66668701172 -20.6666564941 0 rrcurveto
          -20 0 -17 -7.66668701172 -14 -15.3333129883 -14 -15.3333129883 -7 -18.6666870117 0 -22 rrcurveto
          -138 -120 rmoveto
          -100 404 100 vlineto
          -266 -218 rmoveto
          0 -22 7 -18.6666564941 14 -15.3333435059 14 -15.3333435059 17 -7.66665649414 20 0 20.6666564941 0 17.3333435059 7.66665649414 14 15.3333435059 14 15.3333435059 7 18.6666564941 0 22 0 21.3333282471 -7 18.3333435059 -14 15.3333282471 -14 15.3333282471 -17.3333435059 7.66667175293 -20.6666564941 0 rrcurveto
          -20 0 -17 -7.66667175293 -14 -15.3333282471 -14 -15.3333282471 -7 -18.3333435059 0 -21.3333282471 rrcurveto
          endchar
        </CharString>
        <CharString name="dollar">
          61 286 -100 rmoveto
          10 93 rlineto
          89.3333435059 26 49.3333129883 60.6666564941 9.33334350586 95.3333435059 1.33334350586 10.6666717529 0.666656494141 10 0 9.33332824707 0 57.3333435059 -19.6666564941 42.6666564941 -39.3333435059 28 -12.6666564941 8.66665649414 -36 15.3333435059 -59.3333435059 22 -38 14 -17.6666717529 19 2.66667175293 24 2.66667175293 24.6666564941 7.83332824707 19.1666870117 13 13.6666564941 rrcurveto
          13 13.6666564941 15.8333435059 6.83334350586 18.6666564941 0 30.6666564941 0 33.6666870117 -18 36.6666564941 -36 rrcurveto
          70 77 rlineto
          -38.6666564941 35.3333129883 -36 22.3333740234 -33.3333435059 9.33331298828 rrcurveto
          10 86 -117 0 -10 -89 rlineto
          -35.3333282471 -12 -29.6666717529 -19.6666870117 -24 -27.3333129883 -25.3333282471 -29.3333129883 -15.0000152588 -33.6666870117 -4.66665649414 -38 -0.666656494141 -10 -0.333343505859 -9.66665649414 0 -9.33334350586 0 -52.6666564941 20 -40.3333435059 40 -28 4 -2.66665649414 36.6666717529 -16.6666870117 69.3333282471 -30.6666564941 38 -16.6666717529 17.6666564941 -22.3333282471 -2.66665649414 -28 rrcurveto
          -2.66665649414 -26 -10 -21.5 -17.3333435059 -17 -17.3333435059 -17 -19.6666564941 -8.5 -22 0 -44 0 -39.6666717529 25 -35.3333282471 50 rrcurveto
          -74 -79 rlineto
          28.6666564941 -48.6666717529 43.3333435059 -30 58 -11.3333282471 rrcurveto
          -10 -90 rlineto
          endchar
        </CharString>
        <CharString name="dotaccent">
          -238 55 576 rmoveto
          -2 -18.6666870117 5.33332824707 -16 12.6666717529 -13.3333129883 12.6666564941 -13.3333129883 16.6666870117 -6.66668701172 20.6666564941 0 20 0 17.8333282471 6.66668701172 15.6666717529 13.3333129883 15.6666717529 13.3333129883 8.83332824707 16 2 18.6666870117 2 18.6666870117 -5.5 16 -13 13.3333129883 -13 13.3333129883 -16.5 6.66668701172 -20 0 rrcurveto
          -20.6666564941 0 -18 -6.5 -15.3333435059 -13 -15.3333435059 -13 -8.66665649414 -16.1666870117 -2 -19.3333129883 rrcurveto
          endchar
        </CharString>
        <CharString name="dotlessi">
          -242 89 495 rmoveto
          -100 callsubr
          endchar
        </CharString>
        <CharString name="e">
          16 256 68 rmoveto
          -102 callsubr
          97 255 rmoveto
          -101 callsubr
          endchar
        </CharString>
        <CharString name="eacute">
          22 155 626 rmoveto
          25 -72 223 83 -24 78 rlineto
          -123 -647 rmoveto
          -102 callsubr
          97 255 rmoveto
          -101 callsubr
          endchar
        </CharString>
        <CharString name="ecircumflex">
          22 155 561 rmoveto
          -86 callsubr
          92 -581 rmoveto
          -102 callsubr
          97 255 rmoveto
          -101 callsubr
          endchar
        </CharString>
        <CharString name="edieresis">
          22 285 628 rmoveto
          -80 callsubr
          -210 hmoveto
          -79 callsubr
          181 -560 rmoveto
          -102 callsubr
          97 255 rmoveto
          -101 callsubr
          endchar
        </CharString>
        <CharString name="egrave">
          22 433 626 rmoveto
          -51 -72 -205 83 50 78 rlineto
          29 -647 rmoveto
          -102 callsubr
          97 255 rmoveto
          -101 callsubr
          endchar
        </CharString>
        <CharString name="eight">
          125 179 rmoveto
          5.33332824707 50 42 44 78.6666717529 38 68.6666564941 -28.6666564941 31.3333435059 -44.0000152588 -6 -59.3333282471 -4 -34.6666717529 -13.8333435059 -28.8333282471 -23.6666564941 -23 -23.6666564941 -23 -27.5000152588 -11.5 -31.3333282471 0 -26.6666717529 0 -22.6666564941 9 -18.6666717529 18 -23.3333282471 22 -9.33332824707 31.3333282471 4.66665649414 40.6666717529 rrcurveto
          67 318 rmoveto
          5.33332824707 27.3333129883 12.3333435059 21.6666870117 19.3333282471 16 17.3333282471 14 19.0000152588 7 20.6666564941 0 22.6666564941 0 18.6666870117 -8.66668701172 14.6666564941 -17.3333129883 14.6666564941 -17.3333129883 6 -20.6666870117 -2.66665649414 -24 -4 -39.3333435059 -33.3333435059 -31.3333129883 -62.6666564941 -23.3333435059 -42 18.6666564941 -22.6666717529 32 -3.33332824707 45.3333435059 rrcurveto
          -171 -320 rmoveto
          -0.66667175293 -10 -0.33332824707 -9.33332824707 0 -8.66667175293 0 -58 19.3333282471 -44.6666717529 38.6666717529 -31.3333282471 34.6666564941 -28.6666717529 46.0000152588 -14.3333282471 57.3333282471 0 70 0 57.3333435059 20 44.6666564941 40 47.3333435059 42 23.6666564941 55.3333282471 0 68.6666717529 0 62 -39.3333435059 53.3333435059 -78.6666564941 44.6666564941 rrcurveto
          75.3333435059 48 37.6666564941 54.6666564941 0 61.3333435059 0 44.6666870117 -16.6666564941 34.3333129883 -33.3333435059 24 -29.3333435059 22 -36.6666564941 11 -44 0 -51.3333282471 0 -44.3333435059 -12.3333129883 -37.3333282471 -24.6666870117 -44 -29.3333129883 -25 -42.3333740234 -6 -55.3333129883 -5.33334350586 -48.6666564941 30 -47.3333435059 65.3333435059 -46 rrcurveto
          -95.3333435059 -46 -51.6666564941 -58.3333282471 -8 -70.6666717529 rrcurveto
          endchar
        </CharString>
        <CharString name="ellipsis">
          425 603 53 rmoveto
          -2.66668701172 -27.3333282471 6.33337402344 -21.6666717529 15.3333129883 -16 15.3333129883 -16 19.6666870117 -8 24 0 23.3333129883 0 21 8 18.6666870117 16 18.6666870117 16 10.6666259766 21.6666717529 2.66668701172 27.3333282471 2.66668701172 28 -6.16668701172 21.8333435059 -15 15.6666564941 -15 15.6666717529 -19.5 7.83332824707 -24 0 rrcurveto
          -23.3333129883 0 -20.6666870117 -7.33332824707 -18 -14.6666717529 -20 -16.6666564941 -11.3333129883 -22.3333435059 -2.66668701172 -28 rrcurveto
          -239 hmoveto
          -2.66665649414 -27.3333282471 6.33331298828 -21.6666717529 15.3333435059 -16 15.3333435059 -16 19.6666564941 -8 24 0 23.3333435059 0 21 8 18.6666564941 16 18.6666870117 16 10.6666259766 21.6666717529 2.66668701172 27.3333282471 2.66668701172 28 -6.16668701172 21.8333435059 -15 15.6666564941 -15 15.6666717529 -19.5 7.83332824707 -24 0 rrcurveto
          -23.3333435059 0 -20.6666564941 -7.33332824707 -18 -14.6666717529 -20 -16.6666564941 -11.3333435059 -22.3333435059 -2.66665649414 -28 rrcurveto
          -239 hmoveto
          -2.66665649414 -27.3333282471 6.33332824707 -21.6666717529 15.3333282471 -16 15.3333282471 -16 19.6666717529 -8 24 0 23.3333282471 0 21 8 18.6666717529 16 18.6666564941 16 10.6666870117 21.6666717529 2.66665649414 27.3333282471 2.66665649414 28 -6.16665649414 21.8333435059 -15 15.6666564941 -15 15.6666717529 -19.5 7.83332824707 -24 0 rrcurveto
          -23.3333282471 0 -20.6666717529 -7.33332824707 -18 -14.6666717529 -20 -16.6666564941 -11.3333435059 -22.3333435059 -2.66665649414 -28 rrcurveto
          endchar
        </CharString>
        <CharString name="emdash">
          525 27 363 rmoveto
          -71 946 71 vlineto
          endchar
        </CharString>
        <CharString name="endash">
          34 363 rmoveto
          -71 432 71 vlineto
          endchar
        </CharString>
        <CharString name="equal">
          -34 89 352 rmoveto
          -98 321 98 vlineto
          -321 -129 rmoveto
          -98 321 98 vlineto
          endchar
        </CharString>
        <CharString name="eth">
          104 290 448 rmoveto
          37.3333435059 0 40 -34.3333435059 42.6666564941 -68.6666564941 0 0.666656494141 -3.66665649414 -32.3333129883 -7.33334350586 -65.3333435059 -6 -53.3333282471 -14.6666564941 -44 -23.3333435059 -34.6666717529 -26.6666564941 -40 -34.6666870117 -20 -42.6666564941 0 -31.3333282471 0 -26.3333435059 18 -21.3333282471 36 -20 33.3333282471 -10 38.6666717529 0 44 rrcurveto
          0 50.6666564941 12 47.3333435059 24 44 28 53.3333435059 37.3333282471 26.6666564941 46.6666717529 0 rrcurveto
          28 171 rmoveto
          -88 0 -7 -73 140 0 24 -31 rlineto
          12.6666564941 -19.3333435059 5.66668701172 -17 -1.33334350586 -14.6666564941 -52 38 -34.6666564941 19 -17.3333435059 0 -85.3333282471 0 -68 -29.6666564941 -50.6666717529 -59.3333435059 -48.6666717529 -56.6666564941 -24.3333282471 -71.6666870117 0 -86.6666564941 0 -63.3333282471 16.3333282471 -53.3333282471 32.6666717529 -43.3333435059 36.6666564941 -49.3333282471 50.3333435059 -24.6666717529 64 0 rrcurveto
          172.666656494 0 98 98.6666564941 23.3333435059 197.333343506 1.33331298828 13.3333435059 0.666687011719 16 0 18.6666564941 0 86 -10.3333435059 73 -20.6666564941 60 rrcurveto
          75 0 7 73 -134 0 rlineto
          -22.6666564941 39.3333129883 -28.6666870117 39 -34.6666564941 38.6666870117 rrcurveto
          -81 -53 rlineto
          25.3333435059 -29.3333129883 16.3333129883 -21.3333740234 7.33334350586 -13.3333129883 rrcurveto
          endchar
        </CharString>
        <CharString name="exclam">
          -240 40 172 rmoveto
          125 0 54 514 -125 0 rlineto
          -87 -642 rmoveto
          -2 -21.3333282471 5.66667175293 -18.1666717529 13.3333282471 -15 13.3333282471 -15 17 -7.5 20.6666717529 0 22 0 19.5 7.33332824707 17 14.6666717529 17 14.6666717529 9.5 18.3333282471 2 22 2.66667175293 21.3333435059 -5.66667175293 18.3333129883 -14 15.3333435059 -14 15.3333435059 -17.6666564941 7.66665649414 -21.3333435059 0 rrcurveto
          -22 0 -19 -7.66665649414 -16 -15.3333435059 -16 -15.3333435059 -9.33332824707 -18.3333129883 -2.66667175293 -21.3333435059 rrcurveto
          endchar
        </CharString>
        <CharString name="exclamdown">
          -240 192 501 rmoveto
          -124 0 -64 -604 124 0 rlineto
          99 752 rmoveto
          2.66667175293 21.3333129883 -5.5 18.1666870117 -13.6666717529 15 -13.6666717529 15 -17.5 7.5 -21.3333282471 0 -21.3333282471 0 -19.0000152588 -7.5 -16.6666564941 -15 -16.6666564941 -15 -9.66668701172 -18.1666870117 -2.66665649414 -21.3333129883 -2 -21.3333129883 5.83334350586 -18.3333740234 13.6666564941 -15.3333129883 13.6666564941 -15.3333129883 17.1666870117 -7.66668701172 20.6666564941 0 rrcurveto
          22 0 19.3333282471 7.66668701172 16.6666717529 15.3333129883 16.6666717529 15.3333129883 9.33332824707 18.3333740234 2 21.3333129883 rrcurveto
          endchar
        </CharString>
        <CharString name="f">
          -151 264 657 rmoveto
          20.6666564941 -0.666687011719 22 -11.3333129883 23.3333435059 -22 rrcurveto
          55 67 rlineto
          -26.6666564941 26 -14.6666870117 14 -2.66665649414 2 -15.3333435059 9.33331298828 -23 4.66668701172 -30.6666564941 0 -96.6666717529 0 -54.9999847412 -65 -13.3333435059 -130 rrcurveto
          -6 -53 -70 0 -9 -90 70 0 -43 -408 105 0 43 408 124 0 9 90 -124 0 10 96 rlineto
          8.66667175293 42.6666870117 16 21 23.3333282471 -0.666687011719 rrcurveto
          endchar
        </CharString>
        <CharString name="fi">
          9 277 657 rmoveto
          20.6666564941 -0.666687011719 26.6666870117 -12 32.6666564941 -23.3333129883 rrcurveto
          64 73 rlineto
          -37.3333435059 25.3333129883 -20 13.6666870117 -2.66665649414 2 -18.6666564941 8.66668701172 -25 4.33331298828 -31.3333435059 0 -58.6666717529 0 -45.6666564941 -24.6666870117 -32.6666717529 -49.3333129883 -23.3333435059 -35.3333129883 -14 -40.6666870117 -4.66665649414 -46 rrcurveto
          -6 -54 -70 0 -9 -90 70 0 -43 -408 105 0 43 408 128 0 -43 -408 111 0 52 498 -238 0 rlineto
          8 106.666687012 23.3333282471 53 38.6666717529 -0.666687011719 rrcurveto
          endchar
        </CharString>
        <CharString name="five">
          -1 64 rmoveto
          30 -58.6666717529 61 -29.3333282471 92 0 76 0 65 24.1666717529 54 48.3333282471 54 48.3333435059 27 61.4999847412 0 74.6666717529 0 57.3333435059 -17.3333435059 46.3333129883 -34.6666564941 35.3333435059 -33.3333435059 33.3333435059 -42.3333129883 16.6666564941 -51.3333435059 0 -28 0 -28.3333282471 -8.66665649414 -28.6666717529 -17.3333435059 rrcurveto
          -23.3333282471 -14 -19 -16.3333435059 -14.6666717529 -18.6666564941 rrcurveto
          19 186 290 0 12 111 -370 0 -39 -370 80 -20 rlineto
          14.6666717529 18.6666564941 20 16.3333435059 25.3333282471 14 22.6666717529 13.3333435059 18 6.66665649414 13.3333282471 0 68.6666564941 0 34.3333435059 -32 0 -64 0 -6 -0.333343505859 -6.66667175293 -0.666656494141 -7.33332824707 -3.33334350586 -32 -15 -31.3333282471 -26.6666564941 -30.6666717529 -30.6666564941 -34.6666564941 -34.0000152588 -17.3333435059 -37.3333282471 0 rrcurveto
          -59.3333282471 0 -47.6666717529 25.6666564941 -36 51.3333435059 rrcurveto
          endchar
        </CharString>
        <CharString name="fl">
          54 385 640 rmoveto
          -40.6666564941 52 -40 26 -39.3333435059 0 -92.6666717529 0 -53.3333282471 -65.3333129883 -14 -130.666687012 rrcurveto
          -2 -24 -70 0 -10 -90 70 0 -43 -408 105 0 43 408 89 0 10 90 -89 0 6 61 rlineto
          4.66667175293 46 20.6666564941 23 36.6666717529 0 42.6666564941 0 34 -15.3333129883 25.3333435059 -30.6666870117 rrcurveto
          -61 -581 110 0 74 698 -110 0 rlineto
          endchar
        </CharString>
        <CharString name="florin">
          -114 267 606 rmoveto
          19.3333435059 0 28 -12 36.6666564941 -24 rrcurveto
          59 84 rlineto
          -38 26.6666870117 -20.6666564941 14.3333129883 -3.33334350586 2 -19.3333435059 9.33331298828 -25 4.66668701172 -30.6666564941 0 -99.3333282471 -1.33331298828 -56.6666717529 -71 -14 -140.666687012 rrcurveto
          -70 -1 -10 -101 72 1 -47 -520 108 1 46 521 123 0 9 100 -126 0 rlineto
          6 71.3333129883 19.6666717529 35.6666870117 33.3333282471 0 rrcurveto
          endchar
        </CharString>
        <CharString name="four">
          127 230 rmoveto
          173 234 -25 -234 rlineto
          85 -230 rmoveto
          15 141 87 0 9 89 -87 0 44 421 -94 0 -329 -434 -8 -76 269 0 -15 -141 rlineto
          endchar
        </CharString>
        <CharString name="fraction">
          62 32 126 rmoveto
          97 -66 412 468 -97 66 rlineto
          endchar
        </CharString>
        <CharString name="g">
          36 447 323 rmoveto
          1.33334350586 13.3333435059 -2.66668701172 23 -6.66665649414 32.6666564941 rrcurveto
          99 0 12 113 -137 -59 rlineto
          -26.6666564941 38.6666564941 -44.6666870117 19.3333435059 -62.6666564941 0 -54 0 -47.3333282471 -18.3333435059 -40.6666717529 -36.6666564941 -40.6666564941 -36.6666564941 -22.6666870117 -43 -4.66665649414 -49.3333435059 -6.66667175293 -58.6666564941 21.0000152588 -50.0000152588 48.6666564941 -41.3333282471 -2.66667175293 -3.33332824707 -17.9999847412 -16.3333435059 -33.3333435059 -29.3333282471 -26 -22 -13.6666717529 -17.6666564941 -1.33332824707 -13.3333435059 rrcurveto
          -2 -19.3333282471 5.66667175293 -16.6666717529 13.3333282471 -14 14.6666564941 -16 20.3333435059 -8 26 0 -63.3333282471 -38 -33.3333435059 -37 -3.33332824707 -36 -4 -38.6666717529 12.1666717529 -30 28.3333282471 -21.3333282471 28.3333435059 -21.3333282471 39.1666564941 -10.6666717529 50 0 54 0 54.3333435059 13 54.6666564941 26 rrcurveto
          71.3333435059 34 39 46.6666564941 6.66665649414 59.3333435059 0.666656494141 8.66667175293 0.333343505859 8.33332824707 0 8 0 48.6666717529 -19.6666564941 30.6666564941 -39.3333435059 12.6666717529 -18 6 -42.3333435059 3 -66.6666564941 0 -43.3333282471 0 -24 0.333343505859 -4.66667175293 0.666656494141 -30 4 -14 12.3333435059 2 20.6666564941 rrcurveto
          12.6666717529 17.3333435059 12.3333282471 13.9999847412 12 10.6666717529 19.3333282471 -6 18.3333435059 -3 17.3333282471 0 53.3333435059 0 46.1666564941 17.6666717529 39 35.3333282471 39 35.3333282471 22.1666564941 44.3333282471 5.33334350586 53.3333435059 rrcurveto
          -269 -3 rmoveto
          2.66667175293 26 9 23.6666564941 15.3333282471 21.3333435059 18 24.6666564941 21.3333282471 12.3333435059 24.6666717529 0 24 0 19.3333435059 -11.5 14.6666564941 -23 14.6666564941 -23 6 -22.8333435059 -2.66665649414 -22.6666564941 -3.33334350586 -30 -10.6666564941 -26.1666564941 -18 -22.3333435059 -18 -22.3333282471 -21 -11.1666717529 -24 0 rrcurveto
          -25.3333282471 0 -19.6666717529 12.3333282471 -14 24.6666717529 -11.3333282471 21.3333435059 -4.33334350586 23.3333129883 2.66667175293 25.3333435059 rrcurveto
          -4 -336 rmoveto
          94 hlineto
          30 0 20 -2.33332824707 10 -4.66667175293 14 -6.66667175293 5.66665649414 -13.3333282471 -2.66665649414 -20 -2 -24 -16.3333435059 -23.3333435059 -30.6666564941 -22.6666564941 -30.6666564941 -22.6666717529 -31.6666717529 -11.3333282471 -32.6666717529 0 -52 0 -26 18.6666717529 0 37.3333282471 0 5.33334350586 0.333343505859 6 0.666656494141 6.66665649414 rrcurveto
          2 16 7.16667175293 16.3333282471 12.3333282471 16.6666717529 12.3333282471 16.6666717529 9.5 9.33332824707 6.66667175293 2 rrcurveto
          endchar
        </CharString>
        <CharString name="germandbls">
          74 148 61 rmoveto
          25.3333282471 -34.6666717529 21.3333435059 -21.6666564941 17.3333282471 -8.66667175293 14.6666717529 -7.33332824707 26.3333282471 -3.66667175293 38 0 46 0 42.1666564941 16.5 38.3333435059 33 38.3333435059 33 21.8333129883 40.1666564941 5.33334350586 47.3333435059 3.33334350586 38 -4.66668701172 31.3333282471 -12.6666564941 24.6666717529 -18 35.3333435059 -34.3333435059 26 -50.6666564941 16.6666564941 rrcurveto
          -30.6666564941 10 -17.3333435059 6 -4 2 -14 7.33334350586 -6.33334350586 9.66665649414 1.33334350586 12 3.33334350586 32.6666564941 16.6666564941 16.3333435059 30 0 16.6666564941 0 27 -7.33334350586 37.3333435059 -14.6666564941 27.3333435059 39.3333435059 16 42 4.66665649414 44.6666564941 0.666656494141 9.33331298828 0.333343505859 9 0 8.66668701172 rrcurveto
          0 50 -14.8333435059 39.3333129883 -29.6666564941 28.6666870117 -29.6666564941 28.6666870117 -42.1666870117 14.3333129883 -54.6666564941 0 -69.3333282471 0 -56 -21.3333129883 -42.6666717529 -42.6666870117 -38.6666564941 -38.6666870117 -22.6666870117 -50.3333129883 -6.66665649414 -62 rrcurveto
          -53 -501 110 0 53 501 rlineto
          3.33332824707 32.6666870117 12.6666717529 27.3333129883 22 22 22 22 24.3333435059 11 26.6666564941 0 26 0 23 -4.83331298828 20 -9.66668701172 20 -9.66668701172 9 -12.5 -2 -15.3333129883 0 -9.33331298828 -0.333343505859 -9.33337402344 -0.666656494141 -9.33331298828 -0.666656494141 -13.3333129883 -1.66668701172 -9 -2.66665649414 -4.66668701172 rrcurveto
          -14.6666564941 6 -14.6666870117 3 -14.6666564941 0 -37.3333435059 0 -34.3333129883 -17.6666564941 -31.3333435059 -35.3333435059 -26.6666717529 -30 -14.6666564941 -28.3333435059 -2.66667175293 -26.6666564941 -0.66667175293 -7.33334350586 -0.33332824707 -7.33331298828 0 -7.33334350586 0 -68 32.3333282471 -45 64.6666717529 -22 30.6666564941 -10.6666717529 19 -7.33332824707 7.33334350586 -4 rrcurveto
          21.3333435059 -12.6666717529 9.66665649414 -17 -2 -21.3333282471 -2 -16.6666717529 -6 -14.3333282471 -10 -12 -12.6666564941 -15.3333435059 -15.3333435059 -7.66665649414 -18 0 -22.6666564941 0 -15.6666870117 1.66665649414 -8.66665649414 3.33334350586 -18.6666717529 7.33334350586 -17.6666564941 17.3333129883 -16.6666717529 27.3333435059 rrcurveto
          endchar
        </CharString>
        <CharString name="grave">
          -146 323 626 rmoveto
          -70 -72 -206 83 70 78 rlineto
          endchar
        </CharString>
        <CharString name="greater">
          -110 -14 46 rmoveto
          121 -4 236 247 -236 240 -123 -4 203 -240 rlineto
          endchar
        </CharString>
        <CharString name="greaterequal">
          -225 3 116 rmoveto
          101 -5 146 171 -146 166 -101 -4 123 -165 rlineto
          -105 -202 rmoveto
          -73 221 73 vlineto
          endchar
        </CharString>
        <CharString name="guillemotleft">
          -85 419 126 rmoveto
          -131 160 131 161 -107 4 -156 -162 156 -167 rlineto
          -51 4 rmoveto
          -130 160 130 161 -107 4 -155 -162 155 -167 rlineto
          endchar
        </CharString>
        <CharString name="guillemotright">
          -82 141 126 rmoveto
          109 -4 154 167 -154 162 -109 -4 132 -161 rlineto
          -290 -160 rmoveto
          109 -4 154 167 -154 162 -108 -4 131 -161 rlineto
          endchar
        </CharString>
        <CharString name="guilsinglleft">
          -156 297 126 rmoveto
          -124 160 124 161 -102 4 -146 -162 146 -167 rlineto
          endchar
        </CharString>
        <CharString name="guilsinglright">
          -158 30 126 rmoveto
          101 -4 146 167 -146 162 -101 -4 123 -161 rlineto
          endchar
        </CharString>
        <CharString name="h">
          37 340 326 rmoveto
          -35 -326 107 0 36 339 rlineto
          0.666656494141 6.66665649414 0.333343505859 6.66668701172 0 6.66665649414 0 44.6666564941 -15 37 -30 29.3333435059 -27.3333435059 27.3333435059 -31.6666564941 13.6666564941 -36 0 -44 0 -44.3333282471 -35 -44.6666717529 -70 rrcurveto
          31 290 -107 0 -74 -696 107 0 34 319 rlineto
          1.33332824707 10.6666564941 12.6666717529 18 24 25.3333435059 29.3333282471 31.3333435059 29.6666717529 15.6666564941 30 0 31.3333435059 0 15.6666564941 -23 0 -46 0 -8 -0.333343505859 -8.33334350586 -0.666656494141 -8.66665649414 rrcurveto
          endchar
        </CharString>
        <CharString name="hungarumlaut">
          -113 170 561 rmoveto
          100 0 123 114 -101 0 rlineto
          -280 -114 rmoveto
          101 0 122 114 -100 0 rlineto
          endchar
        </CharString>
        <CharString name="hyphen">
          -95 55 360 rmoveto
          -10 -93 280 0 10 93 rlineto
          endchar
        </CharString>
        <CharString name="i">
          -242 74 657 rmoveto
          -2.66665649414 -21.3333129883 5.33331298828 -17.8333740234 13.3333435059 -14.3333129883 13.3333435059 -14.3333129883 16.6666564941 -7.16668701172 20 0 20 0 17.8333282471 7.16668701172 15.6666717529 14.3333129883 15.6666717529 14.3333129883 9.16665649414 17.8333740234 2.66667175293 21.3333129883 2 21.3333129883 -5.5 17.6666870117 -13 14 -13 14 -16.5 7 -20 0 rrcurveto
          -20 0 -18 -7 -16 -14 -16 -14 -9 -17.6666870117 -2 -21.3333129883 rrcurveto
          3 -162 rmoveto
          -100 callsubr
          endchar
        </CharString>
        <CharString name="iacute">
          -241 18 626 rmoveto
          35 -72 222 83 -33 78 rlineto
          -165 -220 rmoveto
          -100 callsubr
          endchar
        </CharString>
        <CharString name="icircumflex">
          -265 89 495 rmoveto
          -100 callsubr
          -231 26 rmoveto
          -86 callsubr
          endchar
        </CharString>
        <CharString name="idieresis">
          -268 78 495 rmoveto
          -100 callsubr
          -30 133 rmoveto
          -78 callsubr
          -210 hmoveto
          -2 -18.6666870117 4 -16 10 -13.3333129883 11.3333282471 -16 16.6666717529 -8 22 0 22.6666717529 0 18.6666564941 8 14.6666717529 16 12.6666564941 14 7.33334350586 16 2 18 2 17.3333129883 -4 15.6666870117 -10 14 -11.3333282471 16.6666870117 -16.6666717529 8.33331298828 -22 0 rrcurveto
          -22.6666717529 0 -18.6666564941 -8.33331298828 -14.6666717529 -16.6666870117 -12.6666717529 -14 -7.33332824707 -15.6666870117 -2 -17.3333129883 rrcurveto
          endchar
        </CharString>
        <CharString name="igrave">
          -226 89 495 rmoveto
          -100 callsubr
          67 131 rmoveto
          -70 -72 -206 83 70 78 rlineto
          endchar
        </CharString>
        <CharString name="infinity">
          61 258 304 rmoveto
          26 -26.6666564941 34.3333435059 -13.3333435059 42.6666564941 0 41.3333435059 0 36.8333129883 13.1666564941 32.3333435059 26.3333435059 32.3333435059 26.3333435059 18.1666564941 31.5 4 36.6666564941 4 36.6666564941 -11.5 31.3333435059 -27 26 -27 26 -34.1666564941 13 -41.3333435059 0 -42 0 -37 -13 -32 -26 rrcurveto
          -27.3333282471 26 -34.3333435059 13 -41.3333282471 0 -42 0 -37.1666564941 -13 -32.3333435059 -26 -32.3333282471 -26 -18.1666717529 -31.3333435059 -4 -36.6666564941 -4 -37.3333435059 11.5 -31.6666564941 27 -26 27 -26 34.5 -13 42 0 41.3333282471 0 37 13.3333435059 32.6666717529 26.6666564941 rrcurveto
          54 95 rmoveto
          1.33334350586 14.6666564941 7.33331298828 12.8333435059 13.3333435059 11 13.3333435059 11 15.6666564941 5.5 18 0 17.3333435059 0 14.1666564941 -5.5 11 -11 11 -11 4.83334350586 -12.8333435059 -1.33334350586 -14.6666564941 -1.33334350586 -15.3333435059 -7.33331298828 -13.1666564941 -13.3333435059 -11 -13.3333435059 -11 -15.6666564941 -5.5 -18 0 rrcurveto
          -18 0 -14.3333435059 5.5 -10.6666564941 11 -10.6666564941 11 -4.66668701172 13.1666564941 1.33334350586 15.3333435059 rrcurveto
          -215 hmoveto
          1.33334350586 14.6666564941 7.5 12.8333435059 13.6666564941 11 13.6666717529 11 15.8333282471 5.5 18 0 17.3333282471 0 14.1666717529 -5.5 11 -11 11 -11 4.83332824707 -12.8333435059 -1.33332824707 -14.6666564941 -2 -17.3333435059 -7.66667175293 -13.5 -13.3333282471 -9.66665649414 -13.3333282471 -9.66665649414 -15.3333435059 -4.83334350586 -17.3333282471 0 rrcurveto
          -17.3333282471 0 -14.0000152588 4.33334350586 -10.6666564941 8.66665649414 -12.6666564941 10.6666564941 -5.33334350586 14 2 17.3333435059 rrcurveto
          endchar
        </CharString>
        <CharString name="integral">
          -172 257 595 rmoveto
          10.6666564941 0 15.3333435059 -9.33331298828 20 -18.6666870117 rrcurveto
          63 110 rlineto
          -37.3333435059 24 -31.3333129883 12 -25.3333435059 0 -58 0 -45.6666717529 -19.6666870117 -33.3333282471 -39.3333129883 -27.3333435059 -33.3333129883 -16.3333129883 -43.3333740234 -5.33334350586 -53.3333129883 -1.33334350586 -15.3333435059 -0.666656494141 -16.3333129883 0 -17.3333435059 0 -48.6666564941 8 -67.3333435059 16 -86 19.3333435059 -104.666671753 8.33332824707 -64.6666717529 -2.66667175293 -24.6666564941 rrcurveto
          -7.33334350586 -68.6666717529 -17 -34.3333282471 -26.6666564941 0 -16 0 -23 9.33332824707 -30 18.6666717529 rrcurveto
          -37 -120 rlineto
          46 -16 30 -8 14 0 58.6666564941 0 45.3333435059 22.3333435059 32 44.6666564941 25.3333282471 34.6666717529 15.6666717529 45.3333282471 6 56 1.33332824707 16 0.66667175293 17.3333435059 0 18.6666564941 0 48 -7.66667175293 67.6666717529 -15.3333282471 87.3333282471 -16 94 -8 60.6666564941 0 27.3333435059 rrcurveto
          63.3333129883 17.6666717529 31.6666870117 35.3333282471 vhcurveto
          endchar
        </CharString>
        <CharString name="j">
          -242 236 658 rmoveto
          2.66667175293 21.3333129883 -5.33334350586 17.6666870117 -13.3333282471 14 -13.3333282471 14 -16.6666717529 7 -20 0 -20 0 -18 -7 -16 -14 -16 -14 -9.33334350586 -17.6666870117 -2.66665649414 -21.3333129883 -2 -21.3333129883 5.5 -17.6666870117 13 -14 13 -14 16.8333282471 -7 20.6666717529 0 rrcurveto
          20 0 18 7 16 14 16 14 9 17.6666870117 2 21.3333129883 rrcurveto
          -162 -829 rmoveto
          37.3333435059 24.6666717529 21.3333282471 38.6666717529 5.33332824707 52.6666564941 rrcurveto
          58 550 -108 0 -53 -508 rlineto
          -3.33332824707 -30.6666717529 -2 -17 -0.66667175293 -3.33332824707 -8.66667175293 -28.6666564941 -33.3333282471 -22.6666870117 -58 -16.6666564941 rrcurveto
          29 -91 rlineto
          52 18 38.6666717529 17.3333282471 25.3333282471 16.6666717529 rrcurveto
          endchar
        </CharString>
        <CharString name="k">
          1 188 222 rmoveto
          153 -253 102 62 -191 244 205 196 -88 65 -204 -247 43 408 -107 0 -73 -698 107 0 19 179 rlineto
          endchar
        </CharString>
        <CharString name="l">
          -241 101 698 rmoveto
          -74 -698 106 0 74 698 rlineto
          endchar
        </CharString>
        <CharString name="less">
          -109 359 46 rmoveto
          -201 239 201 240 -123 4 -236 -240 237 -247 rlineto
          endchar
        </CharString>
        <CharString name="lessequal">
          -225 261 116 rmoveto
          -124 163 124 165 -102 4 -146 -166 146 -171 rlineto
          -138 -34 rmoveto
          -73 221 73 vlineto
          endchar
        </CharString>
        <CharString name="logicalnot">
          138 443 225 rmoveto
          -197 115 315 -470 -118 vlineto
          endchar
        </CharString>
        <CharString name="lozenge">
          101 12 333 rmoveto
          263 -255 262 255 -262 256 rlineto
          -116 -257 rmoveto
          119 116 118 -116 -118 -115 rlineto
          endchar
        </CharString>
        <CharString name="lslash">
          -193 145 hmoveto
          36 348 70 37 11 115 -69 -36 19 178 -109 0 -25 -240 -57 -30 -13 -116 57 31 -30 -287 rlineto
          endchar
        </CharString>
        <CharString name="m">
          301 610 339 rmoveto
          -36 -339 112 0 36 344 rlineto
          4.66668701172 42.6666564941 -8.66668701172 37.6666870117 -22 32.6666564941 -25.3333129883 36.6666564941 -35.3333740234 18.3333435059 -45.3333129883 0 -44 0 -50.6666564941 -33.3333435059 -57.3333435059 -66.6666564941 -7.33334350586 24.6666564941 -14.6666564941 22 -22 19.3333435059 -22 19.3333435059 -23 9.66665649414 -24 0 -43.3333435059 0 -46.3333282471 -33.3333435059 -49.3333282471 -66.6666564941 rrcurveto
          9 89 -107 0 -52 -496 107 0 32 306 rlineto
          2 17.3333435059 14.5 22.6666564941 27 28 27 28 23.5 14 20 0 14.6666564941 0 12.5 -9.16665649414 10.3333435059 -18.3333435059 10.3333435059 -18.3333435059 3.83331298828 -21.5 -2.66665649414 -24.6666564941 rrcurveto
          -34 -324 112 0 31 297 rlineto
          3.33334350586 32 17.6666564941 29.6666564941 32 27.3333435059 26.6666870117 22.6666564941 21.3333129883 11.3333435059 16 0 31.3333129883 0 15.6666870117 -20 0 -40 0 -6.66665649414 -0.333312988281 -7 -0.666687011719 -7.33334350586 rrcurveto
          endchar
        </CharString>
        <CharString name="macron">
          -69 108 659 rmoveto
          -6 -65 234 0 6 65 rlineto
          endchar
        </CharString>
        <CharString name="minus">
          23 52 348 rmoveto
          -63 394 63 vlineto
          endchar
        </CharString>
        <CharString name="mu">
          33 335 29 rmoveto
          9.33334350586 -42 25 -33.6666717529 40.6666564941 -25.3333282471 rrcurveto
          91 65 rlineto
          -13.3333435059 16.6666717529 -12.6666564941 12.6666564941 -12 8.66667175293 -17.3333435059 12 -6 28.6666564941 5.33334350586 45.3333435059 rrcurveto
          39 370 -110 0 -36 -338 rlineto
          -1.33334350586 -15.3333282471 -10 -16.8333282471 -18.6666564941 -18.3333435059 -18.6666564941 -18.3333435059 -18.6666870117 -9.16665649414 -18.6666564941 0 -59.3333282471 0 -27 24.3333435059 5.33332824707 48.6666564941 rrcurveto
          36 342 -103 0 -72 -682 103 0 20 186 rlineto
          21.3333282471 -14.6666717529 23.6666717529 -7.33332824707 26 0 31.3333435059 0 33 17 34.6666564941 34 rrcurveto
          endchar
        </CharString>
        <CharString name="n">
          37 349 320 rmoveto
          -99 callsubr
          endchar
        </CharString>
        <CharString name="nine">
          -2 56 rmoveto
          51.3333282471 -54.6666717529 65.3333282471 -27.3333282471 79.3333435059 0 96.6666564941 0 75.3333435059 47 54 94 37.3333435059 66 24 82.6666564941 10.6666564941 99.3333435059 2 17.3333435059 1 16.6666564941 0 16 0 80.6666564941 -22 62.0000305176 -44 43.3333129883 -38 38 -47.3333435059 19 -56.6666564941 0 rrcurveto
          -70.6666717529 0 -59.6666564941 -24.5 -48.6666717529 -49 -48.6666717529 -49 -24.3333282471 -59.5 0 -70 0 -55.3333435059 18 -44.8333129883 36 -34.3333435059 36 -34.3333282471 43.3333282471 -17.1666717529 50.6666717529 0 48.6666564941 0 51 28 53.3333435059 56 -6.66665649414 -61.3333282471 -15 -51.6666717529 -23.3333435059 -42 rrcurveto
          -30 -54 -38.3333435059 -27 -46.6666564941 0 -31.3333282471 0 -25.8333435059 4.83334350586 -20.3333282471 9.66665649414 -20.3333435059 9.66665649414 -22.8333129883 17.5 -25.3333435059 25.3333435059 rrcurveto
          78 299 rmoveto
          4.66667175293 40.6666564941 14.6666564941 33.5 24.6666717529 26.3333435059 24.6666717529 26.3333129883 30 13.1666870117 35.3333282471 0 34.6666564941 0 26.6666870117 -13 18.6666564941 -26 15.3333435059 -22.6666564941 7.66665649414 -28.6666870117 0 -34.6666564941 0 -42 -12.6666564941 -35.6666564941 -25.3333435059 -29.3333435059 -25.3333435059 -29.3333435059 -33.3333129883 -14.6666564941 -41.3333435059 0 rrcurveto
          -31.3333282471 0 -25.3333435059 14.6666564941 -19.3333282471 29.3333435059 -18.6666717529 27.3333435059 -7.66665649414 30.6666564941 3.33332824707 34 rrcurveto
          endchar
        </CharString>
        <CharString name="nonbreakingspace">
          -202 endchar
        </CharString>
        <CharString name="nonmarkingreturn">
          -202 endchar
        </CharString>
        <CharString name="notequal">
          -34 92 12 rmoveto
          88 -32 48 145 161 0 0 98 -129 0 15 43 114 0 0 98 -82 0 48 143 -89 32 -58 -175 -157 0 0 -98 125 0 rlineto
          -15 -43 -110 0 0 -98 78 0 rlineto
          endchar
        </CharString>
        <CharString name="ntilde">
          11 273 579 rmoveto
          28 -20 24.3333435059 -10 20.6666564941 0 10 0 14.5 3.66668701172 19 7.33331298828 19 7.33331298828 15.5 9 12 10.6666870117 rrcurveto
          -30 76 rlineto
          -27.3333435059 -20.6666870117 -18 -10.3333129883 -8.66665649414 0 -6.66665649414 0 -15.3333435059 9 -24 18 -24 18 -22.3333435059 8.66668701172 -20.6666564941 -0.666687011719 -44 -1.33331298828 -36.6666717529 -17.3333740234 -29.3333282471 -33.3333129883 rrcurveto
          31 -78 rlineto
          30.6666717529 31.3333129883 23.6666564941 15.6666870117 16.6666717529 0 6.66667175293 0 14 -7.66668701172 21.3333282471 -15.3333129883 rrcurveto
          76 -259 rmoveto
          -99 callsubr
          endchar
        </CharString>
        <CharString name="numbersign">
          61 377 529 rmoveto
          73 8 9 83 -73 -7 8 69 -89 -11 -7 -68 -38 -3 8 67 -89 -9 -7 -68 -93 -10 -8 -83 92 10 -4 -35 -93 -10 rlineto
          -9 -83 93 10 -10 -88 89 10 10 87 37 4 -11 -88 89 10 10 87 72 8 9 83 -72 -7 rlineto
          -125 -13 rmoveto
          4 34 36 4 -4 -35 rlineto
          endchar
        </CharString>
        <CharString name="o">
          71 39 252 rmoveto
          -98 callsubr
          114 -37 rmoveto
          -97 callsubr
          endchar
        </CharString>
        <CharString name="oacute">
          68 197 626 rmoveto
          -84 callsubr
          -382 -463 rmoveto
          -98 callsubr
          114 -37 rmoveto
          -97 callsubr
          endchar
        </CharString>
        <CharString name="ocircumflex">
          68 163 521 rmoveto
          -86 callsubr
          -133 -357 rmoveto
          -98 callsubr
          114 -37 rmoveto
          -97 callsubr
          endchar
        </CharString>
        <CharString name="odieresis">
          68 315 628 rmoveto
          -80 callsubr
          -210 hmoveto
          -2 -18.6666870117 4 -16 10 -13.3333129883 11.3333282471 -16 16.6666717529 -8 22 0 22.6666717529 0 18.6666564941 8 14.6666717529 16 12.6666717529 14 7.33332824707 16 2 18 2 17.3333129883 -4 15.6666870117 -10 14 -11.3333282471 16.6666870117 -16.6666717529 8.33331298828 -22 0 rrcurveto
          -22.6666717529 0 -18.6666564941 -8.33331298828 -14.6666717529 -16.6666870117 -12.6666564941 -14 -7.33334350586 -15.6666870117 -2 -17.3333129883 rrcurveto
          -66 -376 rmoveto
          -98 callsubr
          114 -37 rmoveto
          -97 callsubr
          endchar
        </CharString>
        <CharString name="oe">
          558 207 217 rmoveto
          0 52 11.6666717529 45.3333435059 23.3333282471 38.6666564941 28 46.6666564941 38.3333435059 23.3333435059 48.6666564941 0 32.6666564941 0 25 -14 17.3333435059 -28 16 -24.6666564941 8 -33 0 -41.3333435059 0 -50.6666717529 -11.3333435059 -45 -22.6666564941 -39.3333282471 -26.6666564941 -47.3333435059 -36.6666870117 -23.6666564941 -46.6666564941 0 rrcurveto
          -34.6666564941 0 -26.6666717529 14 -18.6666717529 28 -16.6666717529 25.3333282471 -8.33332824707 33 0 40.6666717529 rrcurveto
          510 -149 rmoveto
          -61.3333129883 -30.6666870117 42 84 hvcurveto
          0 7.33332824707 1 14.6666717529 2 22 rrcurveto
          295 0 8 75 rlineto
          0.666687011719 10 0.333312988281 9.66665649414 0 9.33334350586 0 52.6666564941 -15.6666870117 41.3333435059 -31.3333129883 30 -29.3333129883 27.3333435059 -38.3333740234 13.6666564941 -47.3333129883 0 -90.6666870117 0 -70.6666259766 -39 -50.6666870117 -78 -18 40.6666564941 -28.3333435059 31 -38.6666564941 21.3333435059 -34 19.3333435059 -36.6666564941 9.66665649414 -39.3333435059 0 rrcurveto
          -62 0 -56.3333282471 -20 -50.6666717529 -40 -60.6666717529 -48 -34.9999847412 -66.6666564941 -9.33334350586 -85.3333435059 -1.33334350586 -11.3333282471 -0.666656494141 -11.6666717529 0 -12 0 -59.3333282471 13.3333435059 -49.0000152588 26.6666564941 -38.6666564941 36.6666717529 -54 60 -27 83.3333282471 0 92.6666564941 0 72 40 51.3333435059 80 rrcurveto
          14 -38 17.6666870117 -28 21.3333129883 -18 30 -24.6666717529 41.6666870117 -12.3333282471 53.3333129883 0 72.6666870117 0 68 26.6666717529 63.3333129883 53.3333282471 rrcurveto
          -54 80 rlineto
          -42.6666870117 -53.3333435059 -44.6666259766 -26.6666564941 -46.6666870117 0 rrcurveto
          111 255 rmoveto
          -178 hlineto
          12 70.6666564941 35 35.3333435059 58 0 26.6666870117 0 19.6666259766 -12 12.6666870117 -24 10.6666870117 -20 4.66662597656 -23.3333435059 -1.33331298828 -26.6666564941 rrcurveto
          endchar
        </CharString>
        <CharString name="ograve">
          68 409 556 rmoveto
          -88 callsubr
          -170 -394 rmoveto
          -98 callsubr
          114 -37 rmoveto
          -97 callsubr
          endchar
        </CharString>
        <CharString name="one">
          440 100 rmoveto
          -121 0 56 537 -232 0 -10 -103 124 0 -46 -434 -133 0 -10 -100 362 0 rlineto
          endchar
        </CharString>
        <CharString name="oslash">
          71 447 549 rmoveto
          -104 34 -29 -71 -11 0 rlineto
          -59.3333282471 0 -54.3333435059 -20 -49.3333282471 -40 -58.6666564941 -48 -33.6666717529 -66.6666564941 -8.66667175293 -85.3333435059 -1.33332824707 -12 -0.66667175293 -12.3333282471 0 -12.6666717529 0 -89.3333435059 27 -63.3333282471 54 -37.3333282471 rrcurveto
          -26 -65 103 -34 26 64 rlineto
          5.33332824707 -0.66667175293 8.66667175293 -0.33332824707 12 0 82.6666564941 0 66 34 49.3333435059 68 35.3333435059 48.6666717529 20.6666564941 53.6666564941 6 58.6666717529 1.33334350586 13.3333435059 0.666656494141 13 0 12.6666564941 0 85.3333435059 -30.3333435059 62.3333129883 -60.6666564941 39.3333435059 rrcurveto
          -136 -46 rmoveto
          -118 -293 rlineto
          -10.6666717529 31.3333282471 -3.33332824707 35.6666717529 4 40 4.66667175293 46.6666564941 13 40 21.3333282471 33.3333435059 23.3333282471 38.6666564941 29.6666717529 22 36 5.33334350586 rrcurveto
          109 -181 rmoveto
          -5.33334350586 -49.3333282471 -14.3333129883 -42 -23.3333435059 -34.6666717529 -26 -38 -32 -19.3333435059 -38 -0.666656494141 rrcurveto
          125 308 rlineto
          14 -34.6666564941 4.66665649414 -41.3333435059 -4.66665649414 -48 rrcurveto
          endchar
        </CharString>
        <CharString name="otilde">
          68 304 579 rmoveto
          29.3333435059 -20 24.3333129883 -10 19.3333435059 0 10 0 14 3.33331298828 18 6.66668701172 20.6666564941 8 16 9.33331298828 11.3333435059 10.6666870117 rrcurveto
          -29 76 rlineto
          -27.3333435059 -20.6666870117 -18 -10.3333129883 -8.66665649414 0 -6.66665649414 0 -15.3333435059 9 -24 18 -24 18 -22 8.66668701172 -20 -0.666687011719 -44 -1.33331298828 -37 -17.3333740234 -30 -33.3333129883 rrcurveto
          31 -78 rlineto
          30 31.3333129883 23.6666717529 15.6666870117 17.3333282471 0 5.33334350586 0 13.6666564941 -7.66668701172 22 -15.3333129883 rrcurveto
          -265 -327 rmoveto
          -98 callsubr
          114 -37 rmoveto
          -97 callsubr
          endchar
        </CharString>
        <CharString name="p">
          42 156 28 rmoveto
          44.6666717529 -34 32.3333282471 -17 20 0 138.666656494 0 79.3333435059 94.6666564941 20 189.333343506 2 19.3333435059 1 18.3333129883 0 17.3333435059 0 130.666656494 -50.3333435059 65.6666564941 -100.666656494 0.666687011719 -27.3333435059 0 -28.3333129883 -10 -29.3333435059 -20 -29.3333282471 -20 -20.3333435059 -23 -11.3333282471 -26 rrcurveto
          9 82 -107 0 -73 -693 107 0 rlineto
          53 507 rmoveto
          8.66667175293 20 16.3333282471 22.6666564941 24 25.3333435059 26.6666564941 28.6666564941 21.3333435059 14.3333435059 16 0 52 0 26 -38 0 -76 0 -16 -1.33334350586 -19.6666564941 -2.66665649414 -23.3333435059 -4 -45.3333282471 -10.6666564941 -39.3333435059 -17.3333435059 -33.3333282471 -20.6666564941 -41.3333435059 -25.6666870117 -20.6666564941 -30.6666564941 0 rrcurveto
          -28 0 -33 15.3333435059 -38 30.6666564941 rrcurveto
          endchar
        </CharString>
        <CharString name="paragraph">
          32 338 hmoveto
          99 642 -99 hlineto
          -127 -642 rmoveto
          99 642 -101 hlineto
          -53.3333282471 0 -39.3333282471 -11.6666870117 -25.3333435059 -23.3333129883 -27.3333282471 -25.3333129883 -13.6666717529 -41.3333740234 0 -57.3333129883 -0.66667175293 -110.666656494 53.6666717529 -55.3333435059 108 0 rrcurveto
          endchar
        </CharString>
        <CharString name="parenleft">
          -157 211 789 rmoveto
          -113.333343506 -178.666687012 -56.6666564941 -187.666656494 0 -196.666656494 0 -125.333343506 24 -122.999984741 48 -120.666671753 rrcurveto
          88 43 rlineto
          -21.3333282471 90.6666717529 -12.6666717529 56 -4 21.3333282471 -11.3333282471 59.3333435059 -5.66667175293 55.6666564941 0 52 0 28.6666564941 1.66667175293 29.3333435059 3.33332824707 30 12.6666717529 118 45.3333282471 140.333312988 78 162.666687012 rrcurveto
          endchar
        </CharString>
        <CharString name="parenright">
          -159 29 -100 rmoveto
          79 -43 rlineto
          111.333328247 184 55.6666717529 192 0 200 0 127.333312988 -23 118.333374023 -46 109.333312988 rrcurveto
          -86 -43 rlineto
          34.6666717529 -125.333312988 17.3333282471 -110.666687012 0 -96 0 -31.3333435059 -1.66667175293 -31.3333129883 -3.33332824707 -31.3333435059 -8 -71.3333282471 -17 -71.6666717529 -26 -72 -10 -27.3333435059 -29 -67.9999847412 -48 -108.666671753 rrcurveto
          endchar
        </CharString>
        <CharString name="partialdiff">
          77 295 508 rmoveto
          -83.3333282471 0 -65.6666717529 -29.6666564941 -48 -59.3333435059 -44.6666717529 -54.6666564941 -22.3333282471 -70.3333435059 0 -86 0 -61.3333282471 16.6666717529 -51.6666717529 33.3333282471 -42 36.6666564941 -46.6666717529 50.6666717529 -23.3333282471 64.6666717529 0 160 0 91 105 22 210 4 37.3333435059 2 34.3333129883 0 31.3333435059 rrcurveto
          0 117.333312988 -28.6666564941 81.3333740234 -57.3333435059 45.3333129883 -36.6666564941 29.3333129883 -54 14.6666870117 -71.3333435059 0 -51.3333282471 0 -53 -8 -54.6666717529 -16 rrcurveto
          19 -113 rlineto
          52 22.6666870117 49 11.3333129883 46 0 40.6666564941 0 30.6666870117 -8.33331298828 20.6666564941 -16.6666870117 8.66665649414 -6.66668701172 9.16668701172 -15.5 9.66665649414 -24.3333129883 9.66665649414 -24.3333435059 6.5 -20.8333129883 3.33334350586 -17.3333435059 -31.3333435059 37.3333435059 -38.3333129883 18.6666564941 -45.3333435059 0 rrcurveto
          -11 -92 rmoveto
          47.3333435059 0 39.3333129883 -24.6666564941 31.3333435059 -49.3333435059 0.666656494141 -24.6666564941 -1 -25.3333435059 -2.66665649414 -26 -12.6666564941 -120 -48.3333435059 -60 -84 0 -32 0 -25.1666717529 12.8333435059 -18.3333282471 25.6666564941 -18.3333282471 25.6666717529 -9.16667175293 33.1666564941 0 40.6666717529 0 8.66667175293 0.33332824707 9 0.66667175293 9.33332824707 rrcurveto
          5.33332824707 53.3333435059 14.5 40.8333129883 23.6666717529 28.3333435059 23.6666717529 28.3333435059 29.5 14.1666564941 35.3333282471 0 rrcurveto
          endchar
        </CharString>
        <CharString name="percent">
          61 178 650 rmoveto
          -39.3333282471 0 -32.3333282471 -16 -25.3333435059 -32 -24 -29.3333129883 -12 -35 0 -40.6666870117 0 -36 9.66667175293 -27.6666564941 19.3333282471 -19.3333435059 19.3333435059 -19.3333435059 25.6666564941 -9.66665649414 32 0 34.6666717529 0 29.5 11.6666564941 24.3333282471 23.3333435059 24.3333435059 23.3333435059 14.5 32.6666564941 4.66665649414 42 rrcurveto
          4 38 -8 31.5 -20 25 -20 25 -27 12.5 -34 0 rrcurveto
          -210 -696 rmoveto
          102 -36 432 678 -95 38 rlineto
          -153 -503 rmoveto
          -0.66667175293 -8 -0.33332824707 -7.66665649414 0 -7.33334350586 0 -36.6666564941 9.83334350586 -28.1666717529 19.6666564941 -19.6666717529 19.6666564941 -19.6666717529 26.1666870117 -9.83332824707 32.6666564941 0 35.3333435059 0 29.8333129883 11.8333282471 24.3333435059 23.6666717529 24.3333435059 23.6666717529 14.5 33.8333282471 4.66665649414 44 4 38 -8 31.8333282471 -20 25.6666717529 rrcurveto
          -20 25.6666717529 -27 12.8333282471 -34 0 -34.6666564941 0 -30.1666870117 -12.8333282471 -25.6666564941 -25.6666717529 -25.6666564941 -25.6666717529 -14.8333435059 -31.8333282471 -4 -38 rrcurveto
          -115 384 rmoveto
          3.33332824707 29.3333129883 9.66667175293 14.6666870117 16 0 16.6666717529 0 6.66665649414 -14.6666870117 -3.33332824707 -29.3333129883 -2.66667175293 -27.3333435059 -9.33332824707 -13.6666564941 -16 0 -16.6666717529 0 -7 13.6666564941 2.66667175293 27.3333435059 rrcurveto
          210 -388 rmoveto
          3.33334350586 30 9.66665649414 15 16 0 16.6666564941 0 6.66668701172 -15 -3.33334350586 -30 -2.66665649414 -28 -9.33334350586 -14 -16 0 -16.6666564941 0 -7 14 2.66665649414 28 rrcurveto
          endchar
        </CharString>
        <CharString name="period">
          -231 36 77 rmoveto
          -2.66667175293 -24 6.5 -20.3333282471 15.6666717529 -16.6666717529 15.6666564941 -16.6666717529 19.5 -8.33332824707 23.3333435059 0 23.3333282471 0 21.1666717529 8.33332824707 19 16.6666717529 19 16.6666717529 10.8333282471 20.3333282471 2.66667175293 24 2.66667175293 24 -6.33334350586 20.5 -15.3333282471 17 -15.3333282471 17 -19.6666717529 8.5 -24 0 rrcurveto
          -23.3333435059 0 -21.1666564941 -8.5 -19 -17 -19 -17 -10.8333282471 -20.5 -2.66667175293 -24 rrcurveto
          endchar
        </CharString>
        <CharString name="periodcentered">
          -239 41 413 rmoveto
          -2.66667175293 -26.6666564941 6 -23.1666870117 14.6666717529 -19.6666564941 14.6666564941 -19.6666564941 19.6666870117 -9.83334350586 24.6666564941 0 24 0 21.3333282471 9.83334350586 18.6666717529 19.6666564941 18.6666717529 19.6666564941 10.6666564941 23.1666870117 2.66667175293 26.6666564941 2.66667175293 27.3333435059 -5.83334350586 23.3333129883 -14.3333282471 19.3333435059 -14.3333282471 19.3333435059 -19.5 9.66665649414 -24.6666717529 0 rrcurveto
          -24 0 -21.5 -9.83334350586 -19 -19.6666564941 -19 -19.6666564941 -10.8333282471 -23.1666870117 -2.66667175293 -26.6666564941 rrcurveto
          endchar
        </CharString>
        <CharString name="perthousand">
          411 717 256 rmoveto
          -40 0 -32.8333129883 -15.3333282471 -25.6666870117 -30.6666717529 -25.6666870117 -30.6666717529 -12.8333129883 -35.6666564941 0 -40.6666717529 0 -36 10 -27.8333282471 20 -19.6666717529 20 -19.6666717529 26.3333129883 -9.83332824707 32.6666870117 0 36 0 30.3333129883 11.5 24.6666870117 23 24.6666870117 23 14.6666259766 33.1666564941 4.66668701172 43.3333435059 rrcurveto
          4 37.3333282471 -8.16668701172 31.3333435059 -20.3333129883 25.3333282471 -20.3333129883 25.3333282471 -27.5 12.6666717529 -34.6666870117 0 rrcurveto
          -536 394 rmoveto
          -40 0 -32.6666564941 -15.1666870117 -25.3333435059 -30.3333129883 -25.3333282471 -30.3333129883 -12.6666717529 -35.8333740234 0 -41.3333129883 0 -35.3333435059 10 -27.5 20 -19.6666564941 20 -19.6666564941 26.3333435059 -9.83334350586 32.6666564941 0 35.3333282471 0 30.3333435059 11.6666564941 25.3333282471 23.3333435059 25.3333435059 23.3333435059 15 32.6666564941 4.66665649414 42 rrcurveto
          4 38 -8.16665649414 31.5 -20.3333435059 25 -20.3333282471 25 -28.1666717529 12.5 -36 0 rrcurveto
          272 -394 rmoveto
          -40.6666564941 0 -33.1666870117 -15.3333282471 -25.6666564941 -30.6666717529 -25.6666564941 -30.6666717529 -12.8333435059 -35.6666564941 0 -40.6666717529 0 -36 10 -27.8333282471 20 -19.6666717529 20 -19.6666717529 26.6666564941 -9.83332824707 33.3333435059 0 36 0 30.3333435059 11.5 24.6666564941 23 24.6666870117 23 14.6666259766 33.1666564941 4.66668701172 43.3333435059 rrcurveto
          4 37.3333282471 -8.16668701172 31.3333435059 -20.3333129883 25.3333282471 -20.3333129883 25.3333282471 -27.5000305176 12.6666717529 -34.6666564941 0 rrcurveto
          -465 -302 rmoveto
          105 -36 444 678 -98 38 rlineto
          239 -513 rmoveto
          2.66668701172 29.3333282471 9.33331298828 14.6666717529 16 0 8.66668701172 0 6 -5.16667175293 3.33331298828 -10.3333282471 3.33331298828 -10.3333282471 1.33337402344 -9.5 -0.666687011719 -8.66667175293 -3.33331298828 -28 -10 -14 -16.6666870117 0 -16.6666870117 0 -6.66662597656 14 3.33331298828 28 rrcurveto
          -536 394 rmoveto
          3.33332824707 29.3333129883 9.66667175293 14.6666870117 16 0 17.3333282471 0 7 -14.6666870117 -3.33332824707 -29.3333129883 -2.66667175293 -27.3333435059 -9.66665649414 -13.6666564941 -16.6666717529 0 -16.6666717529 0 -7 13.6666564941 2.66667175293 27.3333435059 rrcurveto
          272 -394 rmoveto
          2.66665649414 29.3333282471 9.33334350586 14.6666717529 16 0 8.66665649414 0 6 -5.16667175293 3.33334350586 -10.3333282471 3.33334350586 -10.3333282471 1.33331298828 -9.5 -0.666656494141 -8.66667175293 -3.33334350586 -28 -10 -14 -16.6666564941 0 -16.6666564941 0 -6.66668701172 14 3.33334350586 28 rrcurveto
          endchar
        </CharString>
        <CharString name="pi">
          43 362 410 rmoveto
          -43 -410 116 0 54 508 -393 0 -11 -98 37 0 -43 -410 116 0 43 410 rlineto
          endchar
        </CharString>
        <CharString name="plus">
          23 295 96 rmoveto
          170 151 94 -151 161 -92 -161 -151 -94 151 -170 vlineto
          endchar
        </CharString>
        <CharString name="plusminus">
          26 295 89 rmoveto
          171 151 95 -151 162 -93 -162 -150 -95 150 -171 vlineto
          -137 -40 rmoveto
          -87 376 87 vlineto
          endchar
        </CharString>
        <CharString name="product">
          120 354 hmoveto
          123 0 68 642 -388 0 -68 -642 123 0 56 529 142 0 rlineto
          endchar
        </CharString>
        <CharString name="q">
          36 369 450 rmoveto
          -26 22.6666564941 -19.3333435059 14.3333435059 -12.6666564941 6 -20 10 -25.3333435059 5 -30.6666564941 0 -49.3333282471 0 -43.6666717529 -30.6666564941 -38 -61.3333435059 -32 -52 -19 -54.6666564941 -6 -57.3333435059 -2 -18.6666717529 -1 -18.3333282471 0 -18 0 -65.3333282471 12 -52.0000152588 24 -38.6666564941 rrcurveto
          26.6666564941 -42.6666717529 37.6666717529 -21.3333282471 48.6666717529 0 21.3333282471 0 44.3333282471 22 67.3333435059 44 rrcurveto
          -25 -240 107 0 73 693 -107 0 rlineto
          -101 -74 rmoveto
          17.3333435059 0 17.3333129883 -9 17.3333435059 -18 17.3333435059 -18 10.6666564941 -18 4 -18 rrcurveto
          -21 -203 rlineto
          -2.66665649414 -2 -18.3333435059 -15 -34 -28 -21.3333435059 -18.6666564941 -15.6666564941 -9.33334350586 -10 0 -22.6666717529 0 -18.3333282471 14 -14 28 -13.3333282471 26 -6.66667175293 33.3333282471 0 40.6666717529 0 51.3333435059 7.33332824707 44.6666564941 14.6666717529 38 20 53.3333435059 30.6666717529 27 41.3333282471 0.666656494141 rrcurveto
          endchar
        </CharString>
        <CharString name="question">
          71 154 60 rmoveto
          -2.66667175293 -20.6666717529 5.33334350586 -17.3333282471 13.3333282471 -14 13.3333282471 -14 17.3333435059 -7 21.3333282471 0 22 0 19.3333435059 7 16.6666564941 14 16.6666564941 14 9.66668701172 17.3333282471 2.66665649414 20.6666717529 2 20.6666564941 -6 17.5 -14 14.3333435059 -14 14.3333435059 -18 7.16665649414 -22 0 rrcurveto
          -20.6666717529 0 -18.5 -7.33334350586 -16.3333282471 -14.6666564941 -16.3333282471 -14.6666564941 -9.16667175293 -17.3333435059 -2 -20 rrcurveto
          230 296 rmoveto
          33.3333435059 23.3333435059 24 21.3333129883 14.6666564941 19.3333435059 18 24.6666564941 11 29.6666870117 4 34.6666564941 0.666656494141 8 0.333343505859 8 0 8 0 48 -14.6666564941 37.6666870117 -29.3333435059 27.3333129883 -32.6666564941 30 -46.3333435059 15 -60 0 -53.3333282471 0 -43.1666717529 -11.5 -33 -23 rrcurveto
          -33 -23 -31.1666564941 -39.1666870117 -29.3333435059 -55.3333129883 rrcurveto
          90 -39 rlineto
          31.3333282471 70 42.3333435059 35 53.3333282471 0 21.3333435059 0 17.6666564941 -9.83331298828 14 -19.6666870117 14 -19.6666870117 5.66665649414 -22.1666259766 -2.66665649414 -24.6666870117 -3.33334350586 -28 -18.6666564941 -26.6666564941 -34 -25.3333435059 -45.3333435059 -34 -29.3333282471 -25.6666564941 -13.3333282471 -17.3333435059 -17.3333282471 -21.3333435059 -10.3333435059 -28 -3.33332824707 -34.6666564941 rrcurveto
          -2.66667175293 -14 -2.33332824707 -13.6666717529 -2 -13.3333282471 -3.33332824707 -20 -1 -16.3333282471 1.33332824707 -12.6666717529 rrcurveto
          98 hlineto
          4 38.6666717529 4.33334350586 24.3333282471 4.66665649414 10 19.3333435059 43.3333435059 29 35 38.6666564941 26.6666564941 rrcurveto
          endchar
        </CharString>
        <CharString name="questiondown">
          -16 171 333 rmoveto
          -14 -40 -22 -30.6666564941 -30 -21.3333435059 -54.6666717529 -38.6666717529 -31 -53.3333282471 -7.33332824707 -68 -4.66667175293 -46.6666717529 11.3333435059 -41.3333282471 27.3333282471 -36 30.6666564941 -40 43.3333435059 -20 56 0 47.3333282471 0 41.0000152588 13.3333435059 34.6666564941 26.6666564941 32 25.3333282471 30 40.6666717529 28 56 rrcurveto
          -90 50 rlineto
          -29.3333435059 -70 -38.6666564941 -35 -48 0 -20.6666717529 0 -16.5 6.66667175293 -12.3333282471 13.3333282471 -12.3333435059 13.3333282471 -4.83331298828 18.6666717529 2.66665649414 24 2 17.3333435059 10 17.6666564941 18 18 0.66667175293 0 16 13.3333282471 31.3333282471 26.6666717529 68 57.3333282471 34 92.6666717529 0 128 rrcurveto
          0 12.6666564941 -0.333343505859 12.6666870117 -0.666656494141 12.6666564941 rrcurveto
          -107 hlineto
          -0.66667175293 -66 -6.66665649414 -52 -12.6666717529 -38 rrcurveto
          158 275 rmoveto
          2 20.6666870117 -5 17.3333129883 -12 14 -12 14 -16 7 -20 0 -19.3333282471 0 -17.3333435059 -7.16668701172 -15.3333282471 -14.3333129883 -15.3333282471 -14.3333129883 -8.66667175293 -17.1666870117 -2 -20 -2.66667175293 -20.6666870117 5 -17.5 12.6666717529 -14.3333129883 12.6666717529 -14.3333129883 16 -7.16668701172 19.3333282471 0 rrcurveto
          19.3333435059 0 17.1666564941 7.16668701172 15 14.3333129883 15 14.3333129883 8.83334350586 17.5 2.66665649414 20.6666870117 rrcurveto
          endchar
        </CharString>
        <CharString name="quotedbl">
          -146 202 645 rmoveto
          95 0 -63 -220 -34 0 rlineto
          -139 220 rmoveto
          94 0 -63 -220 -33 0 rlineto
          endchar
        </CharString>
        <CharString name="quotedblbase">
          -58 107 -117 rmoveto
          -107 callsubr
          265 -13 rmoveto
          18 22.6666564941 18.6666564941 31.0000152588 19.3333435059 39.3333282471 20 42 11.3333435059 33 2.66665649414 24 rrcurveto
          -105 hlineto
          -8 -50.6666717529 -4.66665649414 -28.6666564941 -1.33334350586 -6.66667175293 -8 -34.6666717529 -12 -30.9999847412 -16 -27.3333435059 rrcurveto
          endchar
        </CharString>
        <CharString name="quotedblleft">
          -46 331 675 rmoveto
          -19.3333435059 -23.3333129883 -18.6666564941 -29.3333740234 -18 -35.3333129883 -19.3333282471 -38.6666870117 -11.3333435059 -31.3333129883 -3.33332824707 -24 rrcurveto
          105 hlineto
          8.66665649414 50.6666870117 5 28.6666259766 1.33334350586 6.66668701172 8 34.6666870117 11.6666564941 31 15.3333435059 27.3333129883 rrcurveto
          -265 3 rmoveto
          -19.3333435059 -23.3333129883 -18.6666564941 -29.3333740234 -18 -35.3333129883 -19.3333282471 -38.6666870117 -11.3333435059 -31.3333129883 -3.33332824707 -24 rrcurveto
          105 hlineto
          8.66667175293 50.6666870117 5 28.6666259766 1.33332824707 6.66668701172 8 34.6666870117 11.6666717529 31 15.3333282471 27.3333129883 rrcurveto
          endchar
        </CharString>
        <CharString name="quotedblright">
          -46 107 483 rmoveto
          18 22.6666564941 18.6666717529 31.0000305176 19.3333282471 39.3333129883 20 42 11.3333282471 33 2.66667175293 24 rrcurveto
          -105 hlineto
          -8 -50.6666870117 -4.66665649414 -28.6666259766 -1.33334350586 -6.66668701172 -8 -34.6666870117 -12 -31 -16 -27.3333129883 rrcurveto
          265 -13 rmoveto
          18 22.6666564941 18.6666564941 31.0000305176 19.3333435059 39.3333129883 20 42 11.3333435059 33 2.66665649414 24 rrcurveto
          -105 hlineto
          -8 -50.6666870117 -4.66665649414 -28.6666259766 -1.33334350586 -6.66668701172 -8 -34.6666870117 -12 -31 -16 -27.3333129883 rrcurveto
          endchar
        </CharString>
        <CharString name="quoteleft">
          -337 81 675 rmoveto
          -19.3333282471 -23.3333129883 -18.6666717529 -29.3333740234 -18 -35.3333129883 -19.3333282471 -38.6666870117 -11.3333435059 -31.3333129883 -3.33332824707 -24 rrcurveto
          105 hlineto
          8.66665649414 50.6666870117 5 28.6666259766 1.33334350586 6.66668701172 8 34.6666870117 11.6666717529 31 15.3333282471 27.3333129883 rrcurveto
          endchar
        </CharString>
        <CharString name="quoteright">
          -337 57 493 rmoveto
          18 22.6666870117 18.6666564941 31 19.3333435059 39.3333129883 20 42 11.3333282471 33 2.66667175293 24 rrcurveto
          -105 hlineto
          -8 -50.6666870117 -4.66667175293 -28.6666259766 -1.33332824707 -6.66668701172 -8 -34.6666870117 -12 -31 -16 -27.3333129883 rrcurveto
          endchar
        </CharString>
        <CharString name="quotesinglbase">
          -261 57 -107 rmoveto
          -106 callsubr
          endchar
        </CharString>
        <CharString name="quotesingle">
          -281 62 646 rmoveto
          94 0 -60 -233 -29 0 rlineto
          endchar
        </CharString>
        <CharString name="r">
          -137 264 384 rmoveto
          16.6666564941 0.666656494141 9.66668701172 0 2.66665649414 -0.666656494141 6 -1.33334350586 8.66665649414 -4 11.3333435059 -6.66665649414 rrcurveto
          25 124 rlineto
          -16 6.66665649414 -20.3333435059 3.33334350586 -24.6666564941 0 -16 0 -18 -10.6666564941 -20 -21.3333435059 -17.3333282471 -18.6666564941 -14 -19.6666870117 -10.6666717529 -20.6666564941 rrcurveto
          9 81 -107 0 -53 -496 107 0 33 312 rlineto
          1.33332824707 10 9.33334350586 13.6666564941 17.3333282471 17.3333435059 20.6666717529 20 20 10.3333435059 19.3333282471 0.666656494141 rrcurveto
          endchar
        </CharString>
        <CharString name="radical">
          28 135 -10 rmoveto
          96 0 132 649 -106 0 -79 -415 -26 140 -101 -56 rlineto
          endchar
        </CharString>
        <CharString name="registered">
          321 133 316 rmoveto
          0 73.3333435059 25.8333282471 62.6666564941 51.6666717529 52 51.6666564941 52 62.5 26 73.3333435059 0 73.3333435059 0 62.6666564941 -26 52 -52 52 -52 26 -62.6666564941 0 -73.3333435059 0 -73.3333282471 -26 -62.6666717529 -52 -52 -52 -52 -62.6666564941 -26 -73.3333435059 0 rrcurveto
          -73.3333435059 0 -62.6666564941 26 -52 52 -52 52 -26 62.6666717529 0 73.3333282471 rrcurveto
          -65 hmoveto
          -92 callsubr
          424 -208 rmoveto
          71 13 rlineto
          -40.6666870117 39.3333282471 -28.3333129883 30 -16 20.6666717529 rrcurveto
          -69 93 rlineto
          64.6666564941 12 32.6666870117 36.3333435059 0.666656494141 60.6666564941 0.666656494141 74.6666564941 -37 37.6666564941 -74.6666564941 0.666687011719 -21.3333435059 0 -43 -0.666687011719 -64.6666564941 -1.33331298828 rrcurveto
          -410 57 185 vlineto
          29 1 rlineto
          24 -39.3333435059 21 -32.6666564941 18 -26 28 -40 25.3333435059 -31.3333282471 22.6666564941 -22.6666717529 rrcurveto
          -112 379 rmoveto
          50 0.666656494141 25 -22.3333129883 0 -45.3333435059 0 -26.6666564941 -5.66665649414 -19.3333435059 -11.3333435059 -12 -14 -13.3333435059 -24 -6.66665649414 -34 0 rrcurveto
          -42 144 hlineto
          endchar
        </CharString>
        <CharString name="ring">
          -170 163 576 rmoveto
          26.6666717529 0 22.6666564941 8.16668701172 18.6666717529 16.3333129883 18.6666717529 16.3333129883 10.6666717529 20.8333740234 2.66665649414 25.3333129883 2.66665649414 24.6666870117 -6.33331298828 20.5 -15.3333435059 16.3333129883 -15.3333282471 16.3333129883 -21 8.16668701172 -26.6666717529 0 -26.6666717529 0 -22.6666564941 -8.16668701172 -18.6666717529 -16.3333129883 -18.6666564941 -16.3333129883 -10.6666870117 -20.5 -2.66665649414 -24.6666870117 rrcurveto
          -2.66665649414 -25.3333129883 6.33331298828 -20.8333740234 15.3333435059 -16.3333129883 15.3333435059 -16.3333129883 20.9999847412 -8.16668701172 26.6666717529 0 rrcurveto
          14 130 rmoveto
          22 0 9.33332824707 -14.3333129883 -3.33332824707 -28.6666870117 -3.33332824707 -29.3333129883 -12.6666717529 -14.6666870117 -22 0 -22 0 -9.33332824707 14.6666870117 3.33332824707 29.3333129883 3.33332824707 28.6666870117 12.6666717529 14.3333129883 22 0 rrcurveto
          endchar
        </CharString>
        <CharString name="s">
          -38 27 66 rmoveto
          -96 callsubr
          endchar
        </CharString>
        <CharString name="scaron">
          -38 27 66 rmoveto
          -96 callsubr
          325 584 rmoveto
          -93 callsubr
          endchar
        </CharString>
        <CharString name="section">
          -83 28 -23 rmoveto
          37.3333435059 -42.6666564941 43 -21.3333435059 48.6666564941 0 37.3333282471 0 32.3333435059 11 27.3333282471 22 30.6666564941 24.6666717529 17.3333435059 34.6666564941 4 44.6666717529 3.33334350586 30.6666564941 -6 24.3333435059 -15.3333435059 18 19.3333435059 21.3333282471 11.6666564941 28 4 34.6666717529 5.33334350586 54.6666564941 -28.3333435059 37.6666870117 -62 20.6666564941 rrcurveto
          -43.3333282471 10 -21.3333435059 8.66665649414 0.66667175293 7.33334350586 2 14.6666564941 3.16667175293 9.5 4.33332824707 4.33334350586 4.33332824707 4.33334350586 9.16667175293 2.16665649414 14 0 16.6666717529 0 26.6666564941 -13.3333435059 36.6666717529 -26.6666564941 rrcurveto
          42 81 rlineto
          -41.3333435059 28.6666564941 -36.9999847412 14.6666870117 -32.6666717529 0.666656494141 -32 0.666656494141 -28.6666717529 -9.66665649414 -25.3333282471 -20 -29.3333435059 -23.3333435059 -16.6666564941 -32.3333129883 -4 -41.3333435059 -3.33334350586 -30.6666564941 7 -24.3333435059 17.3333435059 -18 -21.3333435059 -22.6666717529 -12.6666564941 -28 -4 -33.3333282471 -4.66665649414 -47.3333282471 18.6666564941 -32.0000152588 42 -16.6666564941 rrcurveto
          21.3333282471 -8 16.6666717529 -5.33334350586 12 -2.66665649414 16.6666717529 -4.66665649414 9.33332824707 -3.00001525879 2 -1.33332824707 9.33332824707 -4.66667175293 4 -8 -1.33332824707 -11.3333282471 -0.66667175293 -6.66667175293 -4.66665649414 -7.5 -8.66667175293 -8.33332824707 -8.66667175293 -8.33332824707 -10 -4.16667175293 -11.3333282471 0 -30.6666717529 0 -28.6666717529 17.6666717529 -26.6666564941 35.3333282471 rrcurveto
          73 133 rmoveto
          2.66667175293 24.6666717529 9.33332824707 13.6666564941 16 2.66667175293 18.6666717529 -5.33332824707 11 -3.66667175293 3.33332824707 -2 9.33332824707 -5.33332824707 4.33334350586 -8 -0.66667175293 -10.6666717529 -1.33332824707 -10.6666717529 -7.33334350586 -9.66665649414 -13.3333282471 -8.66667175293 rrcurveto
          -20 6 rlineto
          -22 6.66667175293 -10.6666717529 5.66665649414 0.66667175293 4.66667175293 rrcurveto
          endchar
        </CharString>
        <CharString name="semicolon">
          -221 91 418 rmoveto
          -6 -57.3333435059 20 -28.6666564941 46 0 44 0 25 28.6666564941 6 57.3333435059 6 57.3333435059 -19 28.6666564941 -44 0 -46 0 -26 -28.6666564941 -6 -57.3333435059 rrcurveto
          -16 -525 rmoveto
          -106 callsubr
          endchar
        </CharString>
        <CharString name="seven">
          155 -32 rmoveto
          328 575 11 101 -422 0 -12 -109 316 0 -327 -537 rlineto
          endchar
        </CharString>
        <CharString name="six">
          124 193 rmoveto
          4 41.3333282471 16.6666717529 33.0000152588 29.3333282471 24.6666564941 26.6666717529 22.6666564941 31.6666564941 11.3333435059 36.6666717529 0 30.6666564941 0 24.1666870117 -9.16665649414 17.6666564941 -18.3333435059 17.6666564941 -18.3333435059 8.83334350586 -26.1666564941 0 -34 0 -37.3333282471 -12.6666564941 -35.6666717529 -25.3333435059 -34 -28 -36.6666564941 -32 -18.3333435059 -36 0 rrcurveto
          -39.3333282471 0 -29.6666717529 14 -20 28 -18 24.6666564941 -7 31.0000152588 4 37.3333282471 rrcurveto
          -113 77 rmoveto
          -2 -18.6666717529 -1 -17.6666564941 0 -16.6666717529 0 -82 22 -61.6666564941 44 -41.3333435059 38 -36 50.3333282471 -18 62.6666717529 0 67.3333435059 0 57.3333129883 23.6666717529 47.3333435059 47.3333282471 45.3333435059 44.6666564941 26 54.6666717529 6.66665649414 64.6666717529 1.33334350586 10.6666717529 0.666656494141 10.3333282471 0 10 rrcurveto
          0 57.3333435059 -18 44.6666564941 -36 32 -32.6666564941 29.3333435059 -42.3333435059 14.6666564941 -52 0 -22 0 -25.6666717529 -5.66665649414 -29.3333282471 -11.3333435059 -41.3333282471 -16.6666564941 -29.6666717529 -23.3333435059 -18 -30 10.6666717529 64.6666564941 19 52 27.3333282471 39.3333435059 33.3333282471 48.6666870117 42.6666717529 24.3333129883 52 0 rrcurveto
          50 0 39.6666564941 -12 29.3333435059 -24 rrcurveto
          49 83 rlineto
          -58.6666564941 30 -52.3333435059 15 -46 0 -98 0 -76.3333282471 -39.6666870117 -54.6666717529 -79.3333129883 -45.3333282471 -66 -28.6666717529 -89 -12 -112 rrcurveto
          endchar
        </CharString>
        <CharString name="slash">
          -90 -58 -149 rmoveto
          119 -24 399 856 -118 24 rlineto
          endchar
        </CharString>
        <CharString name="space">
          -202 endchar
        </CharString>
        <CharString name="sterling">
          1 262 26 rmoveto
          14.6666564941 0 19 -4.33332824707 23.3333435059 -8.66667175293 38 -14 23.3333435059 -8.33332824707 8.66665649414 -2.66667175293 rrcurveto
          33 110 rlineto
          -50 14 -45.3333435059 7 -40.6666564941 0 -31.3333282471 0 -28.3333435059 -1.66665649414 -25.3333282471 -3.33334350586 23.3333282471 24 13.3333435059 27.3333282471 3.33332824707 30.6666717529 4 36 2 32.3333435059 0 28.6666564941 rrcurveto
          106 0 10 93 -126 0 rlineto
          -3.33332824707 41.3333435059 -1.33334350586 25.6666564941 0.66667175293 10 2.66667175293 26.6666564941 9.5 24.1666564941 16.3333282471 21.6666870117 16.3333435059 21.6666870117 18.5 10.8333129883 20.6666564941 0 9.33334350586 0 26.3333129883 -11.3333129883 43.3333435059 -22.6666870117 rrcurveto
          52 81 rlineto
          -44 27.3333129883 -42.3333435059 13.6666870117 -40.6666564941 0 -54 0 -44 -19 -34 -38 -31.3333282471 -34.6666870117 -18.3333435059 -44 -5.33332824707 -53.3333129883 -2 -18 0.33332824707 -27 2.66667175293 -36 rrcurveto
          -54 0 -10 -93 67 0 rlineto
          2.66667175293 -34 -1 -38 -4.66667175293 -42 -3.33332824707 -31.3333282471 -10.6666717529 -24.0000152588 -18 -16.6666564941 -7.33334350586 -6.66665649414 -11.3333129883 -5.33334350586 -15.3333435059 -4 -12.6666717529 -3.33334350586 -12.3333282471 -3 -12 -2.66665649414 rrcurveto
          5 -100 rlineto
          118.666671753 29.3333282471 75 14.6666717529 31.3333282471 0 rrcurveto
          endchar
        </CharString>
        <CharString name="summation">
          16 68 91 rmoveto
          -9 -91 356 0 11 110 -207 -1 206 240 -154 179 199 0 11 105 -344 0 -23 -97 169 -197 rlineto
          endchar
        </CharString>
        <CharString name="t">
          -124 76 154 rmoveto
          -1.33334350586 -14 -0.666656494141 -13 0 -12 0 -82 28.3333435059 -41 56.6666564941 0 36 0 27 2.66667175293 18 5.33332824707 12 3.33332824707 24 11 36 18.6666717529 rrcurveto
          -17 69 rlineto
          -12 -6.66665649414 -12 -6.33334350586 -12 -6 -6.66667175293 -2.66665649414 -13.6666564941 -1.33334350586 -20.6666717529 0 -24.6666717529 0 -10 21.3333435059 4.66667175293 42.6666564941 rrcurveto
          28 267 100 -1 9 83 -100 0 11 105 -113 0 -11 -105 -70 0 -9 -82 70 0 rlineto
          endchar
        </CharString>
        <CharString name="thorn">
          47 177 -4 rmoveto
          17.3333282471 -9.33332824707 22.3333435059 -4.66667175293 27.3333282471 0 66 0 54.6666564941 21.6666717529 43.3333435059 43.3333282471 48.6666564941 48.6666564941 29 72.0000152588 9.33334350586 95.3333282471 1.33334350586 12 0.666656494141 12 0 12 0 60.6666564941 -14.3333435059 49 -28.6666564941 37.3333435059 -32 41.3333435059 -45.3333435059 20.6666564941 -58.6666564941 0 rrcurveto
          -18.6666564941 0 -21.6666870117 -8.66665649414 -24.6666564941 -17.3333435059 -8 -5.33334350586 -20 -16.6666564941 -32 -28 rrcurveto
          26 253 -113 0 -92 -880 113 0 22 210 3 -2 rlineto
          12.6666717529 -9.33332824707 8.33332824707 -5.66667175293 4 -2 rrcurveto
          2 306 rmoveto
          15.3333282471 26.6666564941 17.3333435059 24 19.3333282471 21.3333435059 24.6666717529 26 21.3333282471 13 18 0 56.6666564941 0 28.3333435059 -41.6666564941 0 -83.3333435059 0 -48.6666717529 -9.33334350586 -45.3333282471 -18.6666564941 -42 -24 -52.6666564941 -32.6666564941 -26.3333435059 -41.3333435059 0 -15.3333282471 0 -17.5 4.16665649414 -19.6666717529 8.33334350586 rrcurveto
          -19.6666717529 8.33334350586 -14.1666564941 8.5 -8.66667175293 8.66665649414 rrcurveto
          endchar
        </CharString>
        <CharString name="three">
          87 145 rmoveto
          -59 -76 rlineto
          42.6666564941 -58.6666717529 67.0000152588 -29.3333282471 91.3333282471 0 59.3333435059 0 52 22.6666717529 44.6666564941 45.3333282471 38.6666564941 40 21.6666870117 41.6666717529 4.66665649414 43.3333282471 4 38 -9 35.6666717529 -22 33.3333282471 -18.6666564941 30 -25.3333435059 23.3333435059 -32 16.6666564941 32 16.6666564941 23.6666564941 16.3333435059 15.3333435059 16 rrcurveto
          23.3333435059 24 13.6666564941 29.6666564941 4 35.3333435059 5.33334350586 50.6666870117 -16.6666870117 42 -38.6666564941 33.3333129883 -34.6666564941 30 -41 15 -47.3333435059 0 -58 0 -57.3333282471 -32.3333129883 -56.6666717529 -64.6666870117 rrcurveto
          56 -57 rlineto
          22.6666717529 24.6666870117 16.6666564941 16 10.6666717529 7.33331298828 16.6666717529 12 19 6 21.3333282471 0 25.3333435059 0 20.8333129883 -9.16668701172 16.3333435059 -18.3333129883 16.3333435059 -18.3333129883 6.83331298828 -20.8333435059 -2.66665649414 -23.3333435059 -3.33334350586 -29.3333435059 -12.5 -24.6666564941 -21.6666564941 -20 -21.6666564941 -20 -24.8333435059 -10 -28 0 rrcurveto
          -62 0 -9 -86 62 0 rlineto
          36 0 27.3333435059 -11.3333435059 18.6666564941 -22.6666564941 16 -20 6.66665649414 -25 -2.66665649414 -30 -3.33334350586 -31.3333282471 -11 -26.0000152588 -18.6666564941 -20.6666564941 -22.6666564941 -24.6666564941 -30.3333435059 -12.3333435059 -38 0 -42.6666717529 0 -43.3333282471 25.6666564941 -44 51.3333435059 rrcurveto
          endchar
        </CharString>
        <CharString name="tilde">
          -100 186 579 rmoveto
          28 -20 24.3333282471 -10 20.6666717529 0 10 0 14.5 3.66668701172 19 7.33331298828 19 7.33331298828 15.5 9 12 10.6666870117 rrcurveto
          -30 76 rlineto
          -26.6666564941 -20.6666870117 -17.6666870117 -10.3333129883 -8.66665649414 0 -7.33334350586 0 -15.6666564941 9 -24 18 -24 18 -22 8.66668701172 -20 -0.666687011719 -43.3333435059 -1.33331298828 -37 -17.3333740234 -30.6666564941 -33.3333129883 rrcurveto
          31 -78 rlineto
          30.6666564941 31.3333129883 23.6666870117 15.6666870117 16.6666564941 0 6.66667175293 0 14 -7.66668701172 21.3333282471 -15.3333129883 rrcurveto
          endchar
        </CharString>
        <CharString name="trademark">
          166 174 315 rmoveto
          275 89 52 -248 -52 95 -275 vlineto
          445 199 rmoveto
          -199 64 329 -75 vlineto
          -89 -229 -89 229 -78 0 0 -329 60 0 0 201 77 -201 54 0 rlineto
          endchar
        </CharString>
        <CharString name="two">
          60 99 rmoveto
          -11 -99 396 0 12 111 -266 0 122 100 rlineto
          50.6666564941 44 38 40.6666564941 25.3333435059 37.3333435059 34 49.3333435059 17 48.6666564941 0 48 0 52.6666870117 -18 43 -36 33.3333129883 -36 33.3333129883 -46.6666564941 16.6666870117 -57.3333435059 0 -72.6666717529 0 -65 -43.6666870117 -57.3333282471 -87.3333129883 rrcurveto
          70 -50 rlineto
          39.3333282471 58.6666870117 39 29.3333129883 38.6666717529 0 29.3333435059 0 21.6666564941 -10.6666870117 14 -21.3333129883 14 -21.3333435059 5.33334350586 -26 -3.33334350586 -30.6666564941 -4.66665649414 -48.6666564941 -32.3333435059 -53.3333435059 -60 -58 rrcurveto
          endchar
        </CharString>
        <CharString name="u">
          36 324 hmoveto
          -95 callsubr
          endchar
        </CharString>
        <CharString name="uacute">
          7 155 626 rmoveto
          56 -72 222 83 -53 78 rlineto
          -56 -715 rmoveto
          -95 callsubr
          endchar
        </CharString>
        <CharString name="ucircumflex">
          7 143 521 rmoveto
          146 78 134 -77 9 87 -130 106 -150 -106 rlineto
          172 -609 rmoveto
          -95 callsubr
          endchar
        </CharString>
        <CharString name="udieresis">
          7 295 628 rmoveto
          -80 callsubr
          -210 hmoveto
          -79 callsubr
          239 -628 rmoveto
          -95 callsubr
          endchar
        </CharString>
        <CharString name="ugrave">
          7 377 556 rmoveto
          55 59 -201 96 -53 -65 rlineto
          146 -646 rmoveto
          -95 callsubr
          endchar
        </CharString>
        <CharString name="underscore">
          61 8 -50 rmoveto
          -6 -59 525 0 6 59 rlineto
          endchar
        </CharString>
        <CharString name="v">
          -11 169 -12 rmoveto
          76 0 227 486 -102 31 -147 -384 -72 384 -111 -31 rlineto
          endchar
        </CharString>
        <CharString name="w">
          260 452 -9 rmoveto
          85 0 206 484 -104 28 -127 -383 -66 373 -94 0 -140 -374 -53 384 -113 -28 99 -484 87 0 144 316 rlineto
          endchar
        </CharString>
        <CharString name="x">
          13 237 183 rmoveto
          123 -216 100 64 -151 220 181 211 -83 51 -150 -196 -104 197 -107 -60 131 -208 -193 -214 86 -63 rlineto
          endchar
        </CharString>
        <CharString name="y">
          5 77 -196 rmoveto
          -94 callsubr
          endchar
        </CharString>
        <CharString name="yacute">
          5 172.42578125 643 rmoveto
          26 -72 222 83 -24 78 rlineto
          -319.42578125 -928 rmoveto
          -94 callsubr
          endchar
        </CharString>
        <CharString name="ydieresis">
          -8 73 -196 rmoveto
          37.3333435059 0 34.3333282471 13 31.3333282471 26 26 21.3333282471 20.3333282471 26.3333282471 14.6666717529 31.3333435059 rrcurveto
          257 554 -97 25 -147 -364 -88 366 -109 -30 135 -425 -38 -87 rlineto
          -20.6666717529 -38.6666564941 -20.3333282471 -19.3333435059 -20 0 -22 0 -22.6666717529 6.66665649414 -23.3333282471 13.3333435059 rrcurveto
          -42 -95 rlineto
          46 -16 31.3333282471 -8 16.6666717529 0 rrcurveto
          238 794 rmoveto
          -2 -18.6666870117 4 -16 10 -13.3333129883 10.6666564941 -16 16.6666870117 -8 22.6666564941 0 22.6666564941 0 18.6666870117 8 14.6666564941 16 12.6666564941 14 7.33334350586 16 2 18 2 17.3333129883 -4 15.6666870117 -10 14 -11.3333435059 16.6666870117 -16.6666564941 8.33331298828 -22 0 rrcurveto
          -22.6666564941 0 -18.6666870117 -8.33331298828 -14.6666564941 -16.6666870117 -12.6666564941 -14 -7.33334350586 -15.6666870117 -2 -17.3333129883 rrcurveto
          -209 hmoveto
          -2 -18.6666870117 3.66665649414 -16 9.33334350586 -13.3333129883 11.3333435059 -16 16.9999847412 -8 22.6666717529 0 22 0 18.3333282471 8 14.6666717529 16 12.6666717529 14 7.33332824707 16 2 18 2 17.3333129883 -4 15.6666870117 -10 14 -11.3333282471 16.6666870117 -16.3333435059 8.33331298828 -21.3333282471 0 rrcurveto
          -23.3333282471 0 -19 -8.33331298828 -14.6666717529 -16.6666870117 -12 -13.3333129883 -7 -15.6666870117 -2 -18 rrcurveto
          endchar
        </CharString>
        <CharString name="yen">
          56 189 287 rmoveto
          -79 0 -8 -83 82 0 -5 -49 -82 0 -9 -83 82 0 -8 -70 119 0 8 70 79 0 9 83 -79 0 5 49 79 0 rlineto
          8 83 -76 0 209 354 -124 0 -134 -225 -86 225 -124 0 rlineto
          endchar
        </CharString>
        <CharString name="z">
          7 35 77 rmoveto
          -8 -77 386 0 10 92 -242 0 48 60 216 262 8 80 -365 0 -9 -86 233 0 rlineto
          -22.6666564941 -25.3333435059 -15 -17.6666564941 -7.33334350586 -10 rrcurveto
          endchar
        </CharString>
        <CharString name="zcaron">
          7 28 77 rmoveto
          -8 -77 386 0 10 92 -242 0 48 60 215 262 9 80 -365 0 -9 -86 233 0 rlineto
          -22.6666564941 -25.3333435059 -15 -17.6666564941 -7.33334350586 -10 rrcurveto
          222 370 rmoveto
          -91 callsubr
          endchar
        </CharString>
        <CharString name="zero">
          35 103 rmoveto
          37.3333435059 -76.6666717529 59.6666564941 -38.3333282471 82 0 76.6666564941 0 66 38.3333282471 55.3333435059 76.6666717529 44.6666564941 61.3333282471 26.3333435059 70.6666717529 8 80 2.66665649414 21.3333435059 1.33334350586 21 0 20.6666564941 0 81.3333435059 -16.6666564941 64.9999694824 -33.3333435059 48.6666870117 -36.6666564941 55.3333129883 -53.6666870117 27.6666870117 -70.6666564941 0 rrcurveto
          -80 0 -65.3333282471 -35 -50.6666717529 -70 -44 -61.3333435059 -27 -78.6666564941 -10 -96 -2 -22 -1 -20.6666564941 0 -19.3333435059 0 -57.3333282471 10.3333282471 -50 20.6666717529 -42.6666717529 rrcurveto
          189 -18 rmoveto
          -68.6666717529 -34.3333282471 57 114 hvcurveto
          0 19.3333435059 1 19.6666564941 2 20 7.33332824707 69.3333435059 10.6666717529 51.6666564941 14 34 25.3333282471 59.3333129883 39.3333435059 29.6666870117 53.3333282471 0 72 0 36 -54 0 -108 0 -22.6666564941 -1.66665649414 -27.3333435059 -3.33334350586 -32 -6 -58 -12.6666564941 -48.6666717529 -19.3333435059 -39.3333282471 rrcurveto
          -28 -56 -38.3333435059 -28 -48.6666564941 0 rrcurveto
          endchar
        </CharString>
</ttFont>
